<svg width="60" height="47" viewBox="0 0 60 47" fill="none" xmlns="http://www.w3.org/2000/svg">
<path d="M49.1953 36.425C49.1484 36.1671 49.0312 35.9562 48.8203 35.8156C48.6094 35.675 48.375 35.6046 48.1172 35.6515C47.8828 35.6984 47.6484 35.839 47.5078 36.0265C46.875 36.8937 46.1719 37.7375 45.4219 38.5109C45.3984 38.5343 45.375 38.5578 45.3516 38.5812L45.2578 38.675C42.9375 34.7609 39.1875 31.925 34.8281 30.6828C36.8672 29.6046 38.4844 27.8703 39.3984 25.7609C40.3359 23.6515 40.5469 21.3078 39.9844 19.0812C39.4219 16.8546 38.1328 14.8625 36.3281 13.4562C34.5234 12.05 32.2734 11.2765 29.9766 11.2765C27.6797 11.2765 25.4531 12.05 23.625 13.4562C21.8203 14.8625 20.5312 16.8546 19.9688 19.0812C19.4062 21.3078 19.6172 23.675 20.5547 25.7609C21.4922 27.8703 23.1094 29.5812 25.125 30.6828C20.7656 31.9015 17.0156 34.7609 14.6953 38.6515C14.3672 38.3468 14.0625 38.0187 13.7812 37.6671C12.2109 35.8859 10.9453 33.8703 10.0312 31.6671C9 29.0656 8.4375 26.2531 8.4375 23.4406V20.089L12.4688 24.1203C12.6562 24.3078 12.8906 24.4015 13.125 24.4015C13.3594 24.4015 13.6172 24.3078 13.7812 24.1203C13.9453 23.9328 14.0625 23.6984 14.0625 23.464C14.0625 23.2296 13.9688 22.9718 13.7812 22.8078L8.15625 17.1828C8.0625 17.089 7.96875 17.0187 7.85156 16.9718C7.73438 16.925 7.61719 16.9015 7.5 16.9015C7.38281 16.9015 7.26562 16.925 7.14844 16.9718C7.03125 17.0187 6.9375 17.089 6.84375 17.1828L1.21875 22.8078C1.03125 22.9484 0.9375 23.1828 0.9375 23.4406C0.9375 23.6984 1.03125 23.9328 1.21875 24.0968C1.40625 24.2609 1.61719 24.3781 1.875 24.3781C2.13281 24.3781 2.36719 24.2843 2.53125 24.0968L6.5625 20.089V23.4406C6.5625 28.4093 8.13281 33.2375 11.0625 37.2453C13.9922 41.2531 18.0938 44.2296 22.8281 45.7531C27.5625 47.2765 32.625 47.2531 37.3359 45.7062C42.0469 44.1593 46.1484 41.1359 49.0312 37.1281C49.1719 36.9171 49.2422 36.6828 49.1953 36.425ZM24.0234 27.5421C22.4531 25.9484 21.5625 23.7921 21.5625 21.5656C21.5625 19.9015 22.0547 18.2609 22.9922 16.8781C23.9297 15.4953 25.2422 14.4171 26.7656 13.7609C28.3125 13.1281 30 12.964 31.6406 13.2921C33.2812 13.6203 34.7812 14.4171 35.9531 15.589C37.125 16.7609 37.9453 18.2843 38.25 19.9015C38.5781 21.5421 38.4141 23.2296 37.7812 24.7765C37.1484 26.3234 36.0703 27.6359 34.6641 28.55C33.2812 29.4875 31.6406 29.9796 29.9766 29.9796C27.7734 30.0031 25.6172 29.1125 24.0234 27.5421ZM43.5 40.2453C43.4766 40.2687 43.4531 40.2687 43.4531 40.2921C43.4297 40.3156 43.3828 40.339 43.3594 40.3625C43.3359 40.3859 43.3125 40.4093 43.2656 40.4328C39.4922 43.3859 34.8281 44.9796 30.0234 45.0031C25.1484 45.0031 20.4141 43.339 16.6172 40.3156C16.6172 40.3156 16.6172 40.3156 16.5938 40.2921L16.5703 40.2687L16.5469 40.2453C16.4297 40.1515 16.3125 40.0578 16.1953 39.964C17.5781 37.5265 19.5938 35.4875 22.0312 34.0812C24.4688 32.675 27.2344 31.925 30.0469 31.925C32.8594 31.925 35.625 32.675 38.0625 34.0812C40.5 35.4875 42.5156 37.5265 43.8984 39.9875C43.7344 40.0578 43.6172 40.1515 43.5 40.2453ZM58.9922 23.089C58.9453 22.9718 58.875 22.8781 58.7812 22.7843C58.6875 22.6906 58.5938 22.6203 58.4766 22.5734C58.3594 22.5265 58.2422 22.5031 58.125 22.5031C58.0078 22.5031 57.8906 22.5265 57.7734 22.5734C57.6562 22.6203 57.5625 22.6906 57.4688 22.7843L53.4375 26.7921V23.4406C53.4375 18.4718 51.8672 13.6437 48.9375 9.63589C46.0078 5.62808 41.9062 2.65152 37.1719 1.12808C32.4375 -0.395357 27.3516 -0.371919 22.6406 1.17496C17.9297 2.72183 13.8281 5.74527 10.9453 9.77652C10.8047 9.98746 10.7344 10.2218 10.7812 10.4796C10.8281 10.714 10.9688 10.9484 11.1562 11.089C11.3672 11.2296 11.6016 11.3 11.8594 11.2531C12.0938 11.2062 12.3281 11.0656 12.4688 10.8781C15.1172 7.17496 18.8906 4.40933 23.2266 2.97964C27.5625 1.54996 32.25 1.52652 36.5859 2.93277C40.9219 4.33902 44.7188 7.08121 47.4141 10.7609C50.1094 14.4171 51.5625 18.8703 51.5625 23.4406V26.7921L47.5312 22.7609C47.4375 22.6671 47.3438 22.5968 47.2266 22.55C47.1094 22.5031 46.9922 22.4796 46.875 22.4796C46.7578 22.4796 46.6406 22.5031 46.5234 22.55C46.4062 22.5968 46.3125 22.6671 46.2188 22.7609C46.125 22.8546 46.0547 22.9484 46.0078 23.0656C45.9609 23.1828 45.9375 23.3 45.9375 23.4171C45.9375 23.5343 45.9609 23.6515 46.0078 23.7687C46.0547 23.8859 46.125 23.9796 46.2188 24.0734L51.8438 29.6984C51.9375 29.7921 52.0312 29.8625 52.1484 29.9093C52.2656 29.9562 52.3828 29.9796 52.5 29.9796C52.6172 29.9796 52.7344 29.9562 52.8516 29.9093C52.9688 29.8625 53.0625 29.7921 53.1562 29.6984L58.7812 24.0734C58.875 23.9796 58.9453 23.8859 58.9922 23.7687C59.0391 23.6515 59.0625 23.5343 59.0625 23.4171C59.0625 23.3 59.0391 23.2062 58.9922 23.089Z" fill="#36343A"/>
<path d="M34.8516 30.6828C36.8906 29.6046 38.5078 27.8703 39.4219 25.7609C40.3594 23.6515 40.5703 21.3078 40.0078 19.0812C39.4453 16.8546 38.1563 14.8625 36.3516 13.4562C34.5469 12.05 32.2969 11.2765 30 11.2765C27.7031 11.2765 25.4766 12.05 23.6484 13.4562C21.8438 14.8625 20.5547 16.8546 19.9922 19.0812C19.4297 21.3078 19.6406 23.675 20.5781 25.7609C21.5156 27.8703 23.1328 29.5812 25.1484 30.6828C20.7891 31.9015 17.0391 34.7609 14.7187 38.6515C14.3906 38.3468 14.0859 38.0187 13.8047 37.6671C14.0625 38.089 15.4219 39.3078 16.1484 39.9406C17.5312 37.5031 19.5469 35.464 21.9844 34.0578C24.4219 32.6515 27.1875 31.9015 30 31.9015C32.8125 31.9015 35.5781 32.6515 38.0156 34.0578C40.4531 35.464 42.4688 37.5031 43.8516 39.964C44.6016 39.3312 45.0469 38.9093 45.2578 38.675C42.9609 34.7609 39.2109 31.9015 34.8516 30.6828ZM30 30.0031C27.7734 30.0031 25.6172 29.1125 24.0234 27.5421C22.4531 25.9484 21.5625 23.7921 21.5625 21.5656C21.5625 19.9015 22.0547 18.2609 22.9922 16.8781C23.9297 15.4953 25.2422 14.4171 26.7656 13.7609C28.3125 13.1281 30 12.964 31.6406 13.2921C33.2812 13.6203 34.7812 14.4171 35.9531 15.589C37.125 16.7609 37.9453 18.2843 38.25 19.9015C38.5781 21.5421 38.4141 23.2296 37.7812 24.7765C37.1484 26.3234 36.0703 27.6359 34.6641 28.55C33.3047 29.5109 31.6641 30.0031 30 30.0031ZM43.2891 40.4093C43.3125 40.4093 43.3125 40.3859 43.3359 40.3625C43.3125 40.3859 43.2891 40.4093 43.2422 40.4328C43.2656 40.4328 43.2891 40.4093 43.2891 40.4093Z" fill="#D8A462"/>
<path d="M45.4219 38.5109C45.4219 38.5109 45.3984 38.5343 45.3516 38.5812C45.375 38.5578 45.3984 38.5343 45.4219 38.5109Z" fill="black"/>
</svg>
