<svg width="18" height="24" viewBox="0 0 18 24" fill="none" xmlns="http://www.w3.org/2000/svg">
<path d="M6.24618 24H3.99336V22.588H6.24618C8.99668 22.588 11.6345 21.4725 13.5794 19.4868C15.5243 17.5012 16.617 14.8081 16.617 12C16.617 9.19189 15.5243 6.49879 13.5794 4.51315C11.6345 2.52752 8.99668 1.412 6.24618 1.412H0V0H6.24618C9.36348 0 12.3531 1.26428 14.5574 3.51472C16.7617 5.76515 18 8.8174 18 12C18 15.1826 16.7617 18.2348 14.5574 20.4853C12.3531 22.7357 9.36348 24 6.24618 24Z" fill="#D8A462"/>
<path d="M8.33044 19.469L7.95138 18.111C9.25467 17.7325 10.4022 16.9318 11.221 15.8296C12.0398 14.7274 12.4857 13.3834 12.4913 12C12.4864 10.3126 11.8261 8.69616 10.6553 7.50517C9.48453 6.31418 7.89884 5.64592 6.24609 5.64699V4.23499C8.26618 4.23365 10.2043 5.05043 11.6353 6.50614C13.0663 7.96184 13.8733 9.9376 13.8792 12C13.8722 13.6907 13.3272 15.3334 12.3265 16.6805C11.3257 18.0276 9.92327 19.0062 8.33044 19.469Z" fill="#B96A55"/>
<path d="M9.33552 13.607L8.10039 12.964C8.26267 12.6407 8.34069 12.2802 8.32693 11.9172C8.31316 11.5541 8.20808 11.2008 8.02179 10.8913C7.83551 10.5817 7.5743 10.3264 7.26332 10.1498C6.95234 9.97321 6.60206 9.88133 6.24622 9.88303C5.79462 9.88374 5.35529 10.0331 4.99346 10.309L4.15796 9.18203C4.67263 8.78735 5.28463 8.5465 5.92561 8.48637C6.56659 8.42624 7.21133 8.5492 7.78783 8.84151C8.36433 9.13383 8.8499 9.584 9.1903 10.1417C9.53071 10.6995 9.71257 11.3429 9.71556 12C9.71507 12.5588 9.58483 13.1096 9.33552 13.607Z" fill="#612751"/>
</svg>
