<svg xmlns="http://www.w3.org/2000/svg" xmlns:xlink="http://www.w3.org/1999/xlink" viewBox="0 0 350.743 350.741"><defs><style>.a{fill:url(#a);}.b{fill:url(#b);}.c{fill:url(#c);}.d{fill:url(#d);}</style><linearGradient id="a" x1="0.046" y1="0.029" x2="0.76" y2="1.184" gradientUnits="objectBoundingBox"><stop offset="0" stop-color="#2d319d"/><stop offset="0.7" stop-color="#5768ca"/><stop offset="1" stop-color="#6e86f0"/></linearGradient><linearGradient id="b" x1="0.5" x2="0.5" y2="1" gradientUnits="objectBoundingBox"><stop offset="0" stop-color="#fbd8d0"/><stop offset="0.271" stop-color="#f9a7a7"/><stop offset="0.537" stop-color="#d39ebb"/><stop offset="1" stop-color="#6e86f0"/></linearGradient><linearGradient id="c" x1="0.046" y1="0.029" x2="0.76" y2="1.184" xlink:href="#a"/><linearGradient id="d" xlink:href="#b"/></defs><g transform="translate(-5089.129 -1738)"><path class="a" d="M18.724,125.311c-5.183,33.446,2.026,66.547,19.782,90.816,13.649,18.647,32.674,30.7,53.583,33.94,22.048,3.419,43.706-1.664,60.988-14.312a75.792,75.792,0,0,0,12.917-11.946c-8.628,3.8-18.7,4.92-29.616,3.228-45.508-7.055-76.408-52.292-68.885-100.846,3.627-23.419,17.028-44.655,37.728-59.8,26.286-19.233,61.963-27.071,97.88-21.505,29.027,4.5,68.629,23.163,99.272,59.086,0,0-88.691-153.11-217.948-79.061C42.746,48.786,23.188,96.492,18.724,125.311Z" transform="translate(5120.262 1733.314)"/><path class="b" d="M293.612,161.071c6.443-33.227.486-66.574-16.341-91.5C264.333,50.424,245.777,37.661,225,33.636c-21.9-4.248-43.737.015-61.484,12.006a75.825,75.825,0,0,0-13.363,11.445c8.766-3.471,18.871-4.21,29.719-2.107,45.209,8.764,74.384,55.136,65.034,103.374-4.51,23.262-18.7,43.98-39.958,58.332-26.991,18.225-62.939,24.717-98.624,17.8C77.5,228.894,38.627,208.748,9.358,171.7c0,0,82.85,156.348,214.811,87.225C266.721,236.635,288.061,189.7,293.612,161.071Z" transform="translate(5097.99 1812.183)"/><path class="c" d="M125.3,293.5c33.444,5.183,66.545-2.026,90.814-19.782,18.647-13.647,30.7-32.676,33.944-53.585,3.414-22.046-1.668-43.706-14.315-60.986a75.972,75.972,0,0,0-11.947-12.92c3.8,8.632,4.923,18.7,3.228,29.618-7.053,45.509-52.291,76.41-100.846,68.885C102.756,241.1,81.518,227.7,66.376,207,47.143,180.716,39.3,145.038,44.869,109.121c4.5-29.027,23.163-68.629,59.086-99.272,0,0-153.11,88.691-79.062,217.949C48.769,269.477,96.473,289.034,125.3,293.5Z" transform="translate(5084.461 1748.204)"/><path class="d" d="M258.905,89.165c-22.287-42.55-69.221-63.892-97.853-69.441-33.225-6.443-66.574-.484-91.494,16.341C50.408,49,37.645,67.557,33.617,88.331c-4.248,21.9.015,43.737,12.006,61.484a75.709,75.709,0,0,0,11.445,13.362c-3.473-8.766-4.209-18.871-2.107-29.719C63.726,88.249,110.1,59.074,158.335,68.425c23.264,4.511,43.982,18.7,58.334,39.96,18.227,26.989,24.716,62.937,17.8,98.622-5.591,28.831-25.737,67.7-62.792,96.971C171.675,303.977,328.027,221.127,258.905,89.165Z" transform="translate(5163.33 1769.364)"/></g></svg>