<svg width="840" height="800" viewBox="0 0 840 800" fill="none" xmlns="http://www.w3.org/2000/svg">
<mask id="mask0" mask-type="alpha" maskUnits="userSpaceOnUse" x="0" y="0" width="840" height="800">
<rect width="840" height="800" fill="#C4C4C4"/>
</mask>
<g mask="url(#mask0)">
<path d="M4.81592 353.54C-10.3751 451.566 10.754 548.582 62.7955 619.712C102.8 674.364 158.56 709.69 219.843 719.186C284.464 729.207 347.942 714.309 398.594 677.239C412.53 667.078 425.236 655.328 436.453 642.227C411.165 653.364 381.645 656.647 349.651 651.688C216.27 631.01 125.705 498.426 147.754 356.119C158.385 287.48 197.662 225.24 258.332 180.851C335.374 124.481 439.941 101.509 545.211 117.823C630.287 131.012 746.357 185.711 836.17 290.997C836.17 290.997 576.223 -157.752 197.381 59.2779C75.2226 129.253 17.8996 269.074 4.81592 353.54Z" transform="translate(-252.69 -157)" fill="url(#paint0_linear)"/>
<path d="M833.127 378.196C852.011 280.811 834.551 183.074 785.233 110.019C747.312 53.9008 692.926 16.4938 632.03 4.69699C567.843 -7.75345 503.841 4.74094 451.825 39.8853C437.513 49.509 424.369 60.7661 412.66 73.4294C438.352 63.2563 467.969 61.0903 499.764 67.254C632.268 92.9404 717.778 228.852 690.373 370.232C677.155 438.411 635.565 499.133 573.26 541.197C494.151 594.613 388.79 613.64 284.2 593.367C199.719 576.978 85.7852 517.932 -5.81391e-07 409.348C-5.81391e-07 409.348 242.827 867.587 629.595 664.995C754.312 599.666 816.857 462.104 833.127 378.196Z" transform="translate(-340.602 154.31)" fill="url(#paint1_linear)"/>
<path d="M353.562 831.351C451.584 846.542 548.601 825.413 619.731 773.372C674.384 733.374 709.711 677.602 719.219 616.32C729.225 551.706 714.33 488.223 677.263 437.577C667.097 423.641 655.346 410.933 642.247 399.71C653.384 425.009 656.676 454.517 651.708 486.517C631.036 619.899 498.447 710.466 356.136 688.411C287.488 677.772 225.241 638.498 180.861 577.829C124.49 500.793 101.503 396.225 117.825 290.956C131.014 205.881 185.714 89.8114 291.002 -6.70828e-08C291.002 -6.70828e-08 -157.752 259.944 59.2771 638.786C129.256 760.942 269.073 818.262 353.562 831.351Z" transform="translate(-394 -98.2261)" fill="url(#paint2_linear)"/>
<path d="M664.999 210.963C599.678 86.2533 462.118 23.7022 378.199 7.43864C280.819 -11.4451 183.076 6.02008 110.037 55.3324C53.9102 93.2435 16.5028 147.632 4.69703 208.519C-7.75353 272.705 4.741 336.707 39.8857 388.722C49.5072 403.035 60.7647 416.178 73.4301 427.884C63.251 402.192 61.0939 372.575 67.2547 340.781C92.9442 208.278 228.863 122.769 370.236 150.176C438.421 163.397 499.144 204.984 541.209 267.295C594.631 346.397 613.649 451.756 593.379 556.345C576.992 640.846 517.946 754.767 409.341 840.557C409.335 840.554 867.591 597.73 664.999 210.963Z" transform="translate(-82.6923 -14.7042)" fill="url(#paint3_linear)"/>
</g>
<defs>
<linearGradient id="paint0_linear" x2="1" gradientUnits="userSpaceOnUse" gradientTransform="translate(521.352 -236.892) scale(1135.41 980.699) rotate(58.2764)">
<stop stop-color="#2D319D"/>
<stop offset="0.7" stop-color="#5768CA"/>
<stop offset="1" stop-color="#6E86F0"/>
</linearGradient>
<linearGradient id="paint1_linear" x2="1" gradientUnits="userSpaceOnUse" gradientTransform="translate(840.567) scale(840.567 716.69) rotate(90)">
<stop stop-color="#FBD8D0"/>
<stop offset="0.271" stop-color="#F9A7A7"/>
<stop offset="0.537" stop-color="#D39EBB"/>
<stop offset="1" stop-color="#6E86F0"/>
</linearGradient>
<linearGradient id="paint2_linear" x2="1" gradientUnits="userSpaceOnUse" gradientTransform="translate(450.327 -274.263) scale(980.734 1135.41) rotate(58.2764)">
<stop stop-color="#2D319D"/>
<stop offset="0.7" stop-color="#5768CA"/>
<stop offset="1" stop-color="#6E86F0"/>
</linearGradient>
<linearGradient id="paint3_linear" x2="1" gradientUnits="userSpaceOnUse" gradientTransform="translate(716.692) scale(716.692 840.557) rotate(90)">
<stop stop-color="#FBD8D0"/>
<stop offset="0.271" stop-color="#F9A7A7"/>
<stop offset="0.537" stop-color="#D39EBB"/>
<stop offset="1" stop-color="#6E86F0"/>
</linearGradient>
</defs>
</svg>
