<svg width="18" height="18" viewBox="0 0 18 18" fill="none" xmlns="http://www.w3.org/2000/svg">
<path d="M17.6719 9.36562L17.6437 9.39375L13.7156 13.3312C13.6089 13.4387 13.4639 13.4993 13.3125 13.5C13.2024 13.4985 13.0952 13.4646 13.0041 13.4027C12.9131 13.3408 12.8422 13.2535 12.8003 13.1517C12.7583 13.0499 12.7472 12.938 12.7683 12.83C12.7893 12.7219 12.8417 12.6224 12.9188 12.5438L15.8906 9.5625H6.75C6.60082 9.5625 6.45774 9.50324 6.35225 9.39775C6.24676 9.29226 6.1875 9.14918 6.1875 9C6.1875 8.85082 6.24676 8.70774 6.35225 8.60225C6.45774 8.49676 6.60082 8.4375 6.75 8.4375H15.8906L12.9188 5.45625C12.8654 5.40546 12.823 5.34438 12.794 5.27669C12.765 5.20901 12.75 5.13614 12.75 5.0625C12.75 4.98886 12.765 4.91599 12.794 4.84831C12.823 4.78062 12.8654 4.71954 12.9188 4.66875C12.9704 4.61516 13.0322 4.57253 13.1007 4.54341C13.1692 4.51429 13.2428 4.49928 13.3172 4.49928C13.3916 4.49928 13.4652 4.51429 13.5337 4.54341C13.6021 4.57253 13.664 4.61516 13.7156 4.66875L17.6437 8.60625L17.6719 8.63437L17.6906 8.65313C17.7096 8.6759 17.7253 8.70112 17.7375 8.72812H17.7469C17.7888 8.80927 17.8107 8.89929 17.8107 8.99063C17.8107 9.08197 17.7888 9.17198 17.7469 9.25312H17.7375C17.7253 9.28013 17.7096 9.30536 17.6906 9.32812L17.6719 9.36562ZM6.75 16.6875H1.5C1.45027 16.6875 1.40258 16.6677 1.36742 16.6326C1.33225 16.5974 1.3125 16.5497 1.3125 16.5V1.5C1.3125 1.45027 1.33225 1.40258 1.36742 1.36742C1.40258 1.33225 1.45027 1.3125 1.5 1.3125H6.75C6.89918 1.3125 7.04226 1.25324 7.14775 1.14775C7.25324 1.04226 7.3125 0.899184 7.3125 0.75C7.3125 0.600816 7.25324 0.457742 7.14775 0.352252C7.04226 0.246763 6.89918 0.1875 6.75 0.1875H1.5C1.1519 0.1875 0.818064 0.325781 0.571922 0.571922C0.325781 0.818064 0.1875 1.1519 0.1875 1.5V16.5C0.1875 16.8481 0.325781 17.1819 0.571922 17.4281C0.818064 17.6742 1.1519 17.8125 1.5 17.8125H6.75C6.89918 17.8125 7.04226 17.7532 7.14775 17.6477C7.25324 17.5423 7.3125 17.3992 7.3125 17.25C7.3125 17.1008 7.25324 16.9577 7.14775 16.8523C7.04226 16.7468 6.89918 16.6875 6.75 16.6875Z" fill="#6A696F"/>
</svg>
