<svg width="140" height="20" viewBox="0 0 140 20" fill="none" xmlns="http://www.w3.org/2000/svg">
<g clip-path="url(#clip0_1821_5241)">
<path d="M28.5324 17.3661C27.2537 17.3565 25.9764 17.277 24.7059 17.1281L24.7059 2.86708C25.9301 2.70727 27.1629 2.6278 28.3969 2.62917C33.7118 2.62917 36.491 6.13495 36.491 9.85911C36.4943 13.76 33.8472 17.3661 28.5324 17.3661ZM28.5324 3.97591C27.7694 3.96672 27.0068 4.01985 26.252 4.1348V15.8409C27.0715 15.9714 27.9009 16.0243 28.7298 15.9989C32.904 15.9989 34.8177 13.3054 34.8177 9.85826C34.8127 6.49182 32.6488 3.97591 28.5324 3.97591Z" fill="#D8A462"/>
<path d="M41.0749 17.2564V2.73792H42.621V17.2564H41.0749Z" fill="#D8A462"/>
<path d="M50.7176 17.4943C49.2501 17.4882 47.8199 17.0181 46.621 16.1476L47.3742 14.7609C48.3629 15.5338 49.5551 15.9824 50.7952 16.0482C51.1368 16.0839 51.4819 16.0445 51.8076 15.9326C52.1333 15.8207 52.4322 15.6389 52.6844 15.3991C52.9366 15.1594 53.1363 14.8672 53.2704 14.542C53.4045 14.2167 53.4698 13.8659 53.4621 13.5127C53.4621 12.245 52.9789 11.4922 50.6597 10.4428C48.2059 9.33399 47.2974 8.20476 47.2974 6.46122C47.2974 4.36165 49.0368 2.5 51.6261 2.5C52.748 2.50405 53.8438 2.84869 54.7762 3.49073L54.0807 4.83748C53.3385 4.27948 52.4484 3.96791 51.5294 3.94446C49.7512 3.94446 48.8435 5.05499 48.8435 6.3822C48.8435 7.39247 49.52 8.20476 51.2594 9.01621C54.2162 10.3833 55.0471 11.3953 55.0471 13.3343C55.0379 13.903 54.9175 14.464 54.6931 14.9838C54.4687 15.5036 54.1448 15.9716 53.7407 16.3598C53.3367 16.7481 52.8607 17.0486 52.3413 17.2435C51.8219 17.4384 51.2697 17.5237 50.7176 17.4943Z" fill="#D8A462"/>
<path d="M64.4733 4.16368V17.2564H62.9305V4.16368H58.1963V2.73792H69.1918V4.16368H64.4733Z" fill="#D8A462"/>
<path d="M73.1926 17.2564V2.73792H74.7388V17.2564H73.1926Z" fill="#D8A462"/>
<path d="M79.8025 17.2564V2.73792H81.3478V15.8307H88.0923V17.2573L79.8025 17.2564Z" fill="#D8A462"/>
<path d="M91.861 17.2564V2.73792H93.4071V15.8307H100.152V17.2573L91.861 17.2564Z" fill="#D8A462"/>
<path d="M103.92 17.2564V2.73792H112.211V4.16368H105.466V9.17681H111.534V10.6017H105.466V15.8307H112.211V17.2573L103.92 17.2564Z" fill="#D8A462"/>
<path d="M124.772 17.3032L121.003 11.5823C120.694 11.6018 120.385 11.6222 120.056 11.6222C119.593 11.6222 118.916 11.6027 118.452 11.5823V17.3032H116.906V2.92657C117.989 2.77342 119.08 2.69395 120.172 2.68866C123.824 2.68866 125.623 4.55031 125.623 7.04668C125.646 8.00349 125.353 8.94007 124.791 9.70297C124.23 10.4659 123.432 11.0099 122.531 11.2458L126.646 17.3032H124.772ZM120.404 4.11443C119.75 4.1018 119.096 4.15502 118.452 4.27332V10.1761C119.024 10.2411 119.598 10.2743 120.173 10.2755C122.82 10.2746 123.96 9.02729 123.96 7.14524C123.96 5.44163 122.723 4.11443 120.404 4.11443Z" fill="#D8A462"/>
<path d="M135.014 10.8192V17.2564H133.468V10.7988L128.501 2.73792H130.241L134.299 9.47249L138.299 2.73792H140L135.014 10.8192Z" fill="#D8A462"/>
<path d="M5.14391 20H3.28865V18.8233H5.14391C7.40903 18.8233 9.58138 17.8937 11.1831 16.239C12.7847 14.5843 13.6846 12.3401 13.6846 10C13.6846 7.65991 12.7847 5.41566 11.1831 3.76096C9.58138 2.10627 7.40903 1.17667 5.14391 1.17667H0V0H5.14391C7.7111 0 10.1732 1.05357 11.9884 2.92893C13.8037 4.8043 14.8235 7.34784 14.8235 10C14.8235 12.6522 13.8037 15.1957 11.9884 17.0711C10.1732 18.9464 7.7111 20 5.14391 20Z" fill="#D8A462"/>
<path d="M6.86044 16.2242L6.54827 15.0925C7.62157 14.7771 8.56657 14.1099 9.24091 13.1913C9.91525 12.2728 10.2824 11.1528 10.287 10C10.283 8.59388 9.73921 7.24682 8.77504 6.25433C7.81087 5.26183 6.50501 4.70495 5.14392 4.70584V3.52918C6.80752 3.52807 8.40362 4.20871 9.58208 5.4218C10.7605 6.63489 11.4251 8.28136 11.43 10C11.4242 11.409 10.9755 12.7778 10.1513 13.9004C9.32711 15.023 8.17218 15.8385 6.86044 16.2242Z" fill="#B96A55"/>
<path d="M7.68801 11.3392L6.67084 10.8033C6.80449 10.5339 6.86874 10.2335 6.8574 9.93095C6.84606 9.62843 6.75952 9.33401 6.60611 9.07606C6.4527 8.81811 6.23759 8.60531 5.98149 8.45815C5.72539 8.31099 5.43693 8.23443 5.14388 8.23585C4.77197 8.23644 4.41017 8.36094 4.11219 8.59085L3.42413 7.65168C3.84798 7.32278 4.35198 7.12207 4.87985 7.07196C5.40772 7.02186 5.93868 7.12432 6.41344 7.36792C6.88821 7.61151 7.28808 7.98665 7.56842 8.45144C7.84876 8.91623 7.99852 9.45238 8.00098 10C8.00058 10.4657 7.89332 10.9246 7.68801 11.3392Z" fill="#612751"/>
</g>
<defs>
<clipPath id="clip0_1821_5241">
<rect width="140" height="20" fill="white"/>
</clipPath>
</defs>
</svg>
