<svg width="22" height="22" viewBox="0 0 22 22" fill="none" xmlns="http://www.w3.org/2000/svg">
<path d="M8.35927 4.8C8.18309 4.62073 7.96394 4.48956 7.7227 4.41899C7.48146 4.34842 7.22616 4.34081 6.98114 4.39688C6.7339 4.45152 6.50451 4.56787 6.31435 4.73507C6.1242 4.90228 5.97947 5.1149 5.89364 5.35312L0.840518 19.2375C0.761717 19.4635 0.737779 19.7049 0.770679 19.942C0.803579 20.179 0.892374 20.4049 1.02974 20.6008C1.1671 20.7968 1.3491 20.9573 1.5607 21.0691C1.77231 21.1809 2.00747 21.2407 2.24677 21.2438C2.4221 21.244 2.59629 21.2155 2.76239 21.1594L16.6468 16.1063C16.885 16.0204 17.0976 15.8757 17.2648 15.6855C17.432 15.4954 17.5484 15.266 17.603 15.0187C17.6591 14.7737 17.6515 14.5184 17.5809 14.2772C17.5103 14.036 17.3792 13.8168 17.1999 13.6406L8.35927 4.8ZM7.79677 17.7281L4.27177 14.2031L5.49989 10.8094L11.1905 16.5L7.79677 17.7281ZM2.25614 19.7438L3.69989 15.7594L6.24052 18.3L2.25614 19.7438ZM12.7468 15.9281L6.07177 9.25312L7.29989 5.85938L16.1405 14.7L12.7468 15.9281ZM12.9999 6.75C13.0137 6.24277 13.1351 5.74426 13.3561 5.2875C13.853 4.29375 14.7905 3.75 15.9999 3.75C16.628 3.75 17.0311 3.53437 17.2843 3.075C17.4133 2.81487 17.4867 2.53071 17.4999 2.24062C17.4999 2.14257 17.5193 2.04549 17.5572 1.95502C17.595 1.86454 17.6504 1.78248 17.7201 1.71358C17.7899 1.64468 17.8726 1.59033 17.9636 1.55366C18.0545 1.517 18.1518 1.49876 18.2499 1.5C18.4488 1.5 18.6396 1.57902 18.7802 1.71967C18.9209 1.86032 18.9999 2.05109 18.9999 2.25C18.9999 3.45937 18.203 5.25 15.9999 5.25C15.3718 5.25 14.9686 5.46563 14.7155 5.925C14.5865 6.18513 14.513 6.46929 14.4999 6.75937C14.4999 6.85743 14.4804 6.95451 14.4426 7.04498C14.4048 7.13546 14.3494 7.21752 14.2797 7.28642C14.2099 7.35532 14.1271 7.40967 14.0362 7.44634C13.9453 7.483 13.8479 7.50124 13.7499 7.5C13.551 7.5 13.3602 7.42098 13.2196 7.28033C13.0789 7.13968 12.9999 6.94891 12.9999 6.75ZM10.7499 3.75V1.5C10.7499 1.30109 10.8289 1.11032 10.9696 0.96967C11.1102 0.829018 11.301 0.75 11.4999 0.75C11.6988 0.75 11.8896 0.829018 12.0302 0.96967C12.1709 1.11032 12.2499 1.30109 12.2499 1.5V3.75C12.2499 3.94891 12.1709 4.13968 12.0302 4.28033C11.8896 4.42098 11.6988 4.5 11.4999 4.5C11.301 4.5 11.1102 4.42098 10.9696 4.28033C10.8289 4.13968 10.7499 3.94891 10.7499 3.75ZM20.2843 11.4656C20.4251 11.6078 20.5041 11.7999 20.5041 12C20.5041 12.2001 20.4251 12.3922 20.2843 12.5344C20.1409 12.673 19.9493 12.7505 19.7499 12.7505C19.5505 12.7505 19.3589 12.673 19.2155 12.5344L17.7155 11.0344C17.5959 10.8887 17.5348 10.7037 17.544 10.5154C17.5533 10.3271 17.6322 10.149 17.7655 10.0157C17.8989 9.88236 18.077 9.8034 18.2653 9.79416C18.4535 9.78491 18.6385 9.84603 18.7843 9.96563L20.2843 11.4656ZM20.7343 7.4625L18.4843 8.2125C18.4089 8.23856 18.3296 8.25125 18.2499 8.25C18.0715 8.25004 17.899 8.18651 17.7632 8.07081C17.6275 7.95511 17.5374 7.79481 17.5092 7.61868C17.4809 7.44255 17.5164 7.26213 17.6092 7.1098C17.702 6.95747 17.8461 6.8432 18.0155 6.7875L20.2655 6.0375C20.3591 6.00672 20.4578 5.99467 20.556 6.00204C20.6542 6.00942 20.7501 6.03606 20.838 6.08046C20.9259 6.12486 21.0042 6.18614 21.0685 6.2608C21.1327 6.33547 21.1816 6.42206 21.2124 6.51562C21.2432 6.60919 21.2552 6.7079 21.2478 6.80613C21.2405 6.90435 21.2138 7.00016 21.1694 7.08809C21.125 7.17601 21.0638 7.25433 20.9891 7.31857C20.9144 7.38281 20.8278 7.43172 20.7343 7.4625Z" fill="#36343A"/>
</svg>
