<svg width="15" height="14" viewBox="0 0 15 14" fill="none" xmlns="http://www.w3.org/2000/svg">
<path d="M5.9065 2.7C5.78905 2.58048 5.64295 2.49304 5.48212 2.44599C5.3213 2.39895 5.1511 2.39387 4.98775 2.43125C4.82292 2.46768 4.67 2.54524 4.54323 2.65672C4.41646 2.76819 4.31997 2.90993 4.26275 3.06875L0.894004 12.325C0.84147 12.4756 0.825511 12.6366 0.847445 12.7947C0.869378 12.9527 0.928575 13.1032 1.02015 13.2339C1.11173 13.3645 1.23306 13.4715 1.37413 13.5461C1.5152 13.6206 1.67197 13.6605 1.8315 13.6625C1.94839 13.6627 2.06452 13.6437 2.17525 13.6062L11.4315 10.2375C11.5903 10.1803 11.7321 10.0838 11.8435 9.95703C11.955 9.83026 12.0326 9.67733 12.069 9.5125C12.1064 9.34915 12.1013 9.17896 12.0543 9.01813C12.0072 8.8573 11.9198 8.7112 11.8003 8.59375L5.9065 2.7ZM5.5315 11.3188L3.1815 8.96875L4.00025 6.70625L7.794 10.5L5.5315 11.3188ZM1.83775 12.6625L2.80025 10.0063L4.494 11.7L1.83775 12.6625ZM8.8315 10.1187L4.3815 5.66875L5.20025 3.40625L11.094 9.3L8.8315 10.1187ZM9.00025 4C9.00945 3.66184 9.09041 3.3295 9.23775 3.025C9.569 2.3625 10.194 2 11.0003 2C11.419 2 11.6878 1.85625 11.8565 1.55C11.9425 1.37658 11.9915 1.18714 12.0003 0.99375C12.0002 0.928381 12.0132 0.863661 12.0384 0.803345C12.0636 0.74303 12.1006 0.688319 12.1471 0.642388C12.1936 0.596456 12.2488 0.560218 12.3094 0.535775C12.37 0.511333 12.4349 0.499173 12.5003 0.5C12.6329 0.5 12.76 0.552678 12.8538 0.646447C12.9476 0.740215 13.0003 0.867392 13.0003 1C13.0003 1.80625 12.469 3 11.0003 3C10.5815 3 10.3128 3.14375 10.144 3.45C10.058 3.62342 10.009 3.81286 10.0003 4.00625C10.0003 4.07162 9.98728 4.13634 9.96208 4.19665C9.93688 4.25697 9.89995 4.31168 9.85343 4.35761C9.80692 4.40354 9.75175 4.43978 9.69112 4.46422C9.6305 4.48867 9.56562 4.50083 9.50025 4.5C9.36765 4.5 9.24047 4.44732 9.1467 4.35355C9.05293 4.25979 9.00025 4.13261 9.00025 4ZM7.50025 2V0.5C7.50025 0.367392 7.55293 0.240215 7.6467 0.146447C7.74047 0.0526784 7.86765 0 8.00025 0C8.13286 0 8.26004 0.0526784 8.35381 0.146447C8.44758 0.240215 8.50025 0.367392 8.50025 0.5V2C8.50025 2.13261 8.44758 2.25979 8.35381 2.35355C8.26004 2.44732 8.13286 2.5 8.00025 2.5C7.86765 2.5 7.74047 2.44732 7.6467 2.35355C7.55293 2.25979 7.50025 2.13261 7.50025 2ZM13.8565 7.14375C13.9504 7.23855 14.0031 7.36658 14.0031 7.5C14.0031 7.63342 13.9504 7.76145 13.8565 7.85625C13.7609 7.94866 13.6332 8.00032 13.5003 8.00032C13.3673 8.00032 13.2396 7.94866 13.144 7.85625L12.144 6.85625C12.0643 6.7591 12.0235 6.63577 12.0297 6.51024C12.0359 6.38472 12.0885 6.26597 12.1774 6.17711C12.2662 6.08824 12.385 6.0356 12.5105 6.02944C12.636 6.02327 12.7594 6.06402 12.8565 6.14375L13.8565 7.14375ZM14.1565 4.475L12.6565 4.975C12.6063 4.99237 12.5534 5.00083 12.5003 5C12.3813 5.00003 12.2663 4.95768 12.1758 4.88054C12.0853 4.8034 12.0252 4.69654 12.0064 4.57912C11.9876 4.4617 12.0113 4.34142 12.0731 4.23987C12.135 4.13831 12.231 4.06213 12.344 4.025L13.844 3.525C13.9064 3.50448 13.9722 3.49645 14.0377 3.50136C14.1032 3.50628 14.167 3.52404 14.2256 3.55364C14.2843 3.58324 14.3365 3.62409 14.3793 3.67387C14.4221 3.72365 14.4547 3.78137 14.4753 3.84375C14.4958 3.90613 14.5038 3.97194 14.4989 4.03742C14.494 4.1029 14.4762 4.16677 14.4466 4.22539C14.417 4.28401 14.3762 4.33622 14.3264 4.37905C14.2766 4.42188 14.2189 4.45448 14.1565 4.475Z" fill="#9A98A0"/>
</svg>
