<svg width="23" height="24" viewBox="0 0 23 24" fill="none" xmlns="http://www.w3.org/2000/svg">
<path d="M17.9999 6.44062C17.8396 6.16353 17.6263 5.92074 17.3721 5.7261C17.118 5.53146 16.828 5.3888 16.5187 5.30624C16.2101 5.22173 15.8878 5.19976 15.5706 5.24162C15.2534 5.28348 14.9479 5.38832 14.6718 5.54999C14.3904 5.70728 14.1446 5.92114 13.9499 6.17812L12.6374 3.90937C12.478 3.63171 12.2655 3.38817 12.0119 3.19267C11.7584 2.99716 11.4688 2.85352 11.1598 2.76994C10.8507 2.68637 10.5282 2.6645 10.2107 2.70558C9.89321 2.74666 9.5869 2.84989 9.30929 3.00937C8.9986 3.19146 8.73016 3.43753 8.52179 3.73124C8.22926 3.45514 7.87107 3.25829 7.48117 3.15937C7.17262 3.07486 6.85028 3.05288 6.53311 3.09474C6.21595 3.1366 5.91035 3.24145 5.63429 3.40312C5.3572 3.56343 5.11441 3.77676 4.91977 4.03091C4.72514 4.28507 4.58247 4.57507 4.49992 4.88437C4.405 5.22631 4.38897 5.58533 4.45304 5.93437C4.22033 5.99141 3.99642 6.07972 3.78742 6.19687C3.22761 6.52216 2.81954 7.05606 2.65261 7.68163C2.48568 8.30719 2.57348 8.97342 2.89679 9.53437L3.08429 9.85312C2.76262 9.89044 2.45261 9.99591 2.17492 10.1625C1.61575 10.486 1.20786 11.0182 1.04087 11.6422C0.873871 12.2663 0.961424 12.9311 1.28429 13.4906L4.75304 19.5C5.7491 21.2215 7.38739 22.4775 9.30843 22.9925C11.2295 23.5074 13.2763 23.2393 14.9999 22.2469C16.512 21.3813 17.6705 20.0103 18.2718 18.375C19.4907 17.2157 20.2839 15.68 20.5236 14.0151C20.7634 12.3501 20.4359 10.653 19.5937 9.19687L17.9999 6.44062ZM10.0593 4.31249C10.1663 4.25051 10.2845 4.2103 10.4071 4.19419C10.5297 4.17808 10.6543 4.18639 10.7737 4.21863C10.8931 4.25087 11.0049 4.30641 11.1027 4.38205C11.2005 4.4577 11.2824 4.55194 11.3437 4.65937L13.3405 8.11874C13.1608 8.17435 12.9879 8.24982 12.8249 8.34375C12.5457 8.50417 12.3005 8.71753 12.103 8.97187L10.7905 6.70312C10.5621 6.30361 10.2237 5.97818 9.81554 5.76562L9.71242 5.59687C9.58974 5.38018 9.55736 5.12389 9.62228 4.8835C9.68721 4.64311 9.84421 4.43796 10.0593 4.31249ZM6.38429 4.69687C6.60098 4.57419 6.85727 4.54181 7.09766 4.60674C7.33805 4.67166 7.5432 4.82866 7.66867 5.04374L7.97804 5.58749C7.79899 5.64483 7.62623 5.72022 7.46242 5.81249C7.14785 5.98929 6.87835 6.23633 6.67492 6.53437C6.51485 6.38543 6.33504 6.25924 6.14054 6.15937L6.04679 5.98124C5.98442 5.8748 5.94367 5.7571 5.92687 5.63488C5.91008 5.51265 5.91757 5.38832 5.94893 5.269C5.98028 5.14968 6.03488 5.03772 6.10959 4.93954C6.1843 4.84136 6.27765 4.7589 6.38429 4.69687ZM14.2499 20.9437C12.8723 21.7388 11.2354 21.9544 9.69892 21.543C8.16246 21.1317 6.85221 20.127 6.05617 18.75L2.58742 12.7406C2.49407 12.5803 2.45036 12.396 2.46182 12.2108C2.47328 12.0257 2.5394 11.8482 2.65181 11.7006C2.76422 11.5531 2.91787 11.4422 3.09331 11.382C3.26875 11.3218 3.45811 11.315 3.63742 11.3625C3.87784 11.4299 4.08281 11.5878 4.20929 11.8031L6.45929 15.7031C6.52629 15.8155 6.62087 15.9089 6.73407 15.9746C6.84726 16.0402 6.97534 16.0758 7.10617 16.0781C7.2376 16.0777 7.36659 16.0427 7.48024 15.9767C7.59389 15.9106 7.68819 15.8159 7.75371 15.702C7.81922 15.588 7.85364 15.4589 7.85352 15.3275C7.85341 15.196 7.81876 15.0669 7.75304 14.9531L4.19054 8.78437C4.06622 8.56805 4.03292 8.31121 4.09798 8.07034C4.16303 7.82947 4.3211 7.62432 4.53742 7.5C4.75373 7.37567 5.01058 7.34238 5.25144 7.40743C5.49231 7.47248 5.69747 7.63055 5.82179 7.84687L9.38429 14.0156C9.42902 14.1089 9.49255 14.1919 9.57089 14.2594C9.64924 14.3269 9.7407 14.3775 9.83953 14.408C9.93837 14.4384 10.0424 14.4482 10.1452 14.4365C10.248 14.4248 10.3472 14.392 10.4367 14.3401C10.5262 14.2883 10.6039 14.2184 10.6651 14.1351C10.7263 14.0517 10.7696 13.9566 10.7923 13.8556C10.815 13.7547 10.8165 13.6502 10.7969 13.5487C10.7772 13.4471 10.7367 13.3508 10.678 13.2656L7.86554 8.39062C7.74287 8.17393 7.71048 7.91764 7.77541 7.67725C7.84033 7.43686 7.99733 7.23171 8.21242 7.10625C8.42768 6.98402 8.68255 6.9519 8.92141 7.01688C9.16028 7.08187 9.36374 7.23868 9.48742 7.45312L13.4249 14.2781C13.4927 14.3919 13.5888 14.4861 13.7038 14.5518C13.8187 14.6175 13.9487 14.6524 14.0812 14.6531C14.2127 14.6499 14.3415 14.6145 14.4562 14.55C14.6273 14.4501 14.7519 14.2866 14.8028 14.0951C14.8538 13.9037 14.8269 13.6998 14.728 13.5281L13.228 10.9219C13.1049 10.7092 13.0712 10.4563 13.1343 10.2187C13.1643 10.0982 13.2189 9.98511 13.2947 9.88669C13.3706 9.78827 13.466 9.70661 13.5749 9.64687C13.6792 9.58338 13.7956 9.54226 13.9166 9.52613C14.0377 9.50999 14.1607 9.51918 14.278 9.55312C14.3974 9.58305 14.5095 9.63664 14.6077 9.71072C14.706 9.7848 14.7883 9.87786 14.8499 9.98437L16.4437 12.75C16.8386 13.4318 17.0951 14.1848 17.1986 14.9659C17.3021 15.747 17.2505 16.5409 17.0467 17.302C16.8429 18.0631 16.491 18.7766 16.0111 19.4015C15.5312 20.0264 14.9327 20.5505 14.2499 20.9437ZM18.7124 15.0375C18.6151 13.9669 18.2856 12.9303 17.7468 12L16.153 9.23437C15.9218 8.83709 15.5841 8.51237 15.178 8.29687L15.0749 8.12812C14.9513 7.91217 14.9176 7.65621 14.9812 7.41562C15.0486 7.1752 15.2065 6.97023 15.4218 6.84375C15.5281 6.78197 15.6456 6.74193 15.7675 6.72594C15.8893 6.70996 16.0132 6.71834 16.1318 6.75061C16.2504 6.78288 16.3615 6.8384 16.4584 6.91393C16.5554 6.98947 16.6365 7.08352 16.6968 7.19062L18.2905 9.94687C18.7305 10.7123 18.9964 11.5653 19.0693 12.4451C19.1422 13.325 19.0204 14.2101 18.7124 15.0375ZM15.4687 2.31562L15.853 0.862495C15.8783 0.767081 15.9221 0.677573 15.9819 0.599081C16.0417 0.520588 16.1164 0.454649 16.2017 0.405028C16.2871 0.355407 16.3813 0.323075 16.4791 0.309879C16.5769 0.296683 16.6764 0.302881 16.7718 0.32812C16.8672 0.353358 16.9567 0.397143 17.0352 0.456973C17.1137 0.516803 17.1796 0.591508 17.2293 0.676822C17.2789 0.762136 17.3112 0.856388 17.3244 0.954197C17.3376 1.05201 17.3314 1.15146 17.3062 1.24687L16.9124 2.69999C16.8707 2.85933 16.7771 3.00023 16.6464 3.1004C16.5156 3.20058 16.3552 3.25431 16.1905 3.25312L15.9937 3.23437C15.8025 3.18174 15.6399 3.05554 15.5415 2.88337C15.4431 2.71119 15.4169 2.50706 15.4687 2.31562ZM17.9343 3.17812L18.7968 1.94999C18.912 1.78701 19.0868 1.67596 19.2833 1.64087C19.4798 1.60578 19.6823 1.64947 19.8468 1.76249C19.9278 1.81948 19.9966 1.89193 20.0495 1.97567C20.1023 2.05941 20.138 2.15278 20.1546 2.25039C20.1711 2.348 20.1682 2.44793 20.146 2.54441C20.1237 2.64088 20.0826 2.732 20.0249 2.81249L19.1624 4.04062C19.1063 4.12128 19.0347 4.18996 18.9518 4.24267C18.8688 4.29539 18.7763 4.33107 18.6794 4.34765C18.5826 4.36423 18.4834 4.36137 18.3876 4.33924C18.2919 4.31711 18.2015 4.27615 18.1218 4.21874C17.9594 4.10522 17.8486 3.93207 17.8135 3.7371C17.7783 3.54212 17.8218 3.34117 17.9343 3.17812ZM22.0499 5.20312L20.8218 6.06562C20.6934 6.14948 20.5438 6.19501 20.3905 6.19687C20.2323 6.19562 20.0785 6.14433 19.9511 6.05036C19.8238 5.95639 19.7294 5.82454 19.6816 5.67369C19.6337 5.52283 19.6348 5.36071 19.6847 5.21051C19.7346 5.06032 19.8307 4.92975 19.9593 4.83749L21.1874 3.97499C21.2679 3.91735 21.359 3.87621 21.4555 3.85396C21.552 3.8317 21.6519 3.82877 21.7495 3.84533C21.8471 3.86189 21.9405 3.89762 22.0242 3.95044C22.108 4.00327 22.1804 4.07215 22.2374 4.15312C22.3504 4.31765 22.3941 4.52007 22.359 4.71658C22.324 4.91309 22.2129 5.08787 22.0499 5.20312Z" fill="#36343A"/>
</svg>
