<svg width="15" height="16" viewBox="0 0 15 16" fill="none" xmlns="http://www.w3.org/2000/svg">
<path d="M11.9999 4.79375C11.8931 4.60902 11.7508 4.44716 11.5814 4.3174C11.412 4.18764 11.2186 4.09253 11.0124 4.0375C10.8067 3.98115 10.5919 3.9665 10.3804 3.99441C10.169 4.02232 9.96523 4.09222 9.78119 4.2C9.59358 4.30485 9.42972 4.44743 9.29994 4.61875L8.42494 3.10625C8.31868 2.92114 8.17699 2.75878 8.00797 2.62845C7.83894 2.49811 7.6459 2.40235 7.43986 2.34663C7.23382 2.29091 7.01882 2.27633 6.80715 2.30372C6.59547 2.33111 6.39127 2.39993 6.20619 2.50625C5.99906 2.62764 5.82011 2.79168 5.68119 2.9875C5.48617 2.80342 5.24738 2.6722 4.98744 2.60625C4.78174 2.5499 4.56685 2.53525 4.35541 2.56316C4.14397 2.59107 3.94023 2.66097 3.75619 2.76875C3.57147 2.87562 3.40961 3.01784 3.27985 3.18728C3.15009 3.35671 3.05498 3.55005 2.99994 3.75625C2.93667 3.98421 2.92598 4.22356 2.96869 4.45625C2.81355 4.49427 2.66428 4.55314 2.52494 4.63125C2.15174 4.84811 1.8797 5.20404 1.76841 5.62108C1.65712 6.03813 1.71565 6.48228 1.93119 6.85625L2.05619 7.06875C1.84175 7.09363 1.63507 7.16394 1.44994 7.275C1.07717 7.49066 0.805243 7.84547 0.693912 8.2615C0.582581 8.67752 0.64095 9.12073 0.856194 9.49375L3.16869 13.5C3.83273 14.6476 4.92493 15.485 6.20562 15.8283C7.48631 16.1716 8.8509 15.9929 9.99994 15.3312C11.008 14.7542 11.7804 13.8402 12.1812 12.75C12.9938 11.9772 13.5226 10.9533 13.6824 9.84338C13.8423 8.73342 13.6239 7.60197 13.0624 6.63125L11.9999 4.79375ZM6.70619 3.375C6.77753 3.33367 6.85633 3.30687 6.93807 3.29613C7.01981 3.28539 7.10286 3.29093 7.18245 3.31242C7.26203 3.33391 7.33658 3.37094 7.4018 3.42137C7.46702 3.4718 7.52161 3.53463 7.56244 3.60625L8.89369 5.9125C8.77389 5.94957 8.6586 5.99988 8.54994 6.0625C8.36382 6.16945 8.20034 6.31169 8.06869 6.48125L7.19369 4.96875C7.04143 4.7024 6.8158 4.48545 6.54369 4.34375L6.47494 4.23125C6.39316 4.08679 6.37157 3.91593 6.41485 3.75567C6.45814 3.5954 6.56281 3.45864 6.70619 3.375ZM4.25619 3.63125C4.40065 3.54946 4.57151 3.52787 4.73177 3.57116C4.89204 3.61444 5.0288 3.71911 5.11244 3.8625L5.31869 4.225C5.19933 4.26322 5.08415 4.31348 4.97494 4.375C4.76523 4.49286 4.58556 4.65755 4.44994 4.85625C4.34323 4.75695 4.22336 4.67283 4.09369 4.60625L4.03119 4.4875C3.98961 4.41654 3.96244 4.33806 3.95125 4.25658C3.94005 4.1751 3.94505 4.09221 3.96595 4.01267C3.98685 3.93312 4.02325 3.85848 4.07306 3.79303C4.12286 3.72758 4.1851 3.6726 4.25619 3.63125ZM9.49994 14.4625C8.58155 14.9926 7.49026 15.1363 6.46595 14.862C5.44164 14.5878 4.56814 13.918 4.03744 13L1.72494 8.99375C1.66271 8.88689 1.63357 8.76398 1.64121 8.64057C1.64885 8.51715 1.69293 8.39877 1.76787 8.30041C1.84281 8.20205 1.94524 8.12813 2.06221 8.08801C2.17917 8.04788 2.30541 8.04336 2.42494 8.075C2.58523 8.11994 2.72187 8.22522 2.80619 8.36875L4.30619 10.9687C4.35086 11.0437 4.41391 11.106 4.48938 11.1497C4.56484 11.1935 4.65023 11.2172 4.73744 11.2187C4.82506 11.2184 4.91106 11.1951 4.98683 11.1511C5.06259 11.1071 5.12546 11.0439 5.16914 10.968C5.21281 10.892 5.23576 10.8059 5.23568 10.7183C5.23561 10.6307 5.2125 10.5446 5.16869 10.4687L2.79369 6.35625C2.71081 6.21204 2.68862 6.04081 2.73198 5.88023C2.77535 5.71965 2.88073 5.58288 3.02494 5.5C3.16916 5.41712 3.34038 5.39492 3.50096 5.43829C3.66154 5.48165 3.79831 5.58704 3.88119 5.73125L6.25619 9.84375C6.28601 9.90592 6.32837 9.96125 6.3806 10.0063C6.43283 10.0513 6.4938 10.085 6.55969 10.1053C6.62558 10.1256 6.69496 10.1321 6.76346 10.1243C6.83197 10.1165 6.89813 10.0947 6.95778 10.0601C7.01744 10.0255 7.06929 9.97896 7.11009 9.92338C7.15089 9.86779 7.17975 9.80437 7.19486 9.7371C7.20997 9.66982 7.21101 9.60015 7.1979 9.53246C7.18479 9.46477 7.15783 9.40052 7.11869 9.34375L5.24369 6.09375C5.16191 5.94929 5.14032 5.77843 5.1836 5.61817C5.22689 5.4579 5.33156 5.32114 5.47494 5.2375C5.61845 5.15601 5.78837 5.1346 5.94761 5.17792C6.10685 5.22124 6.24249 5.32579 6.32494 5.46875L8.94994 10.0187C8.99516 10.0946 9.0592 10.1574 9.13585 10.2012C9.2125 10.245 9.29916 10.2683 9.38744 10.2687C9.47514 10.2666 9.56097 10.243 9.63744 10.2C9.75151 10.1334 9.83459 10.0244 9.86855 9.89675C9.90251 9.76911 9.88459 9.63322 9.81869 9.51875L8.81869 7.78125C8.73662 7.63944 8.71414 7.47086 8.75619 7.3125C8.77619 7.23211 8.81261 7.15674 8.86317 7.09113C8.91372 7.02551 8.97732 6.97108 9.04994 6.93125C9.11948 6.88892 9.19706 6.86151 9.27775 6.85075C9.35845 6.83999 9.44049 6.84612 9.51869 6.86875C9.59826 6.8887 9.673 6.92443 9.73849 6.97381C9.80398 7.0232 9.85888 7.08524 9.89994 7.15625L10.9624 9C11.2257 9.45453 11.3968 9.95655 11.4658 10.4773C11.5347 10.998 11.5003 11.5272 11.3645 12.0347C11.2286 12.5421 10.994 13.0177 10.6741 13.4343C10.3541 13.8509 9.95512 14.2003 9.49994 14.4625ZM12.4749 10.525C12.4101 9.81124 12.1904 9.1202 11.8312 8.5L10.7687 6.65625C10.6145 6.39139 10.3894 6.17491 10.1187 6.03125L10.0499 5.91875C9.9675 5.77478 9.94505 5.60414 9.98744 5.44375C10.0324 5.28346 10.1377 5.14682 10.2812 5.0625C10.352 5.02132 10.4304 4.99462 10.5116 4.98396C10.5929 4.9733 10.6755 4.97889 10.7545 5.00041C10.8336 5.02192 10.9076 5.05893 10.9723 5.10929C11.037 5.15965 11.091 5.22234 11.1312 5.29375L12.1937 7.13125C12.487 7.64154 12.6642 8.21019 12.7129 8.79675C12.7615 9.38332 12.6802 9.97338 12.4749 10.525ZM10.3124 2.04375L10.5687 1.075C10.5855 1.01139 10.6147 0.951715 10.6546 0.899387C10.6945 0.847059 10.7443 0.803099 10.8012 0.770019C10.858 0.736938 10.9209 0.715383 10.9861 0.706586C11.0513 0.697789 11.1176 0.701921 11.1812 0.718747C11.2448 0.735572 11.3045 0.764762 11.3568 0.804649C11.4091 0.844536 11.4531 0.894339 11.4862 0.951215C11.5193 1.00809 11.5408 1.07093 11.5496 1.13613C11.5584 1.20134 11.5543 1.26764 11.5374 1.33125L11.2749 2.3C11.2471 2.40622 11.1847 2.50015 11.0976 2.56693C11.0104 2.63372 10.9035 2.66954 10.7937 2.66875L10.6624 2.65625C10.535 2.62116 10.4266 2.53703 10.361 2.42224C10.2954 2.30746 10.278 2.17137 10.3124 2.04375ZM11.9562 2.61875L12.5312 1.8C12.608 1.69134 12.7246 1.6173 12.8556 1.59391C12.9866 1.57052 13.1215 1.59965 13.2312 1.675C13.2852 1.71299 13.3311 1.76129 13.3663 1.81711C13.4015 1.87294 13.4253 1.93518 13.4364 2.00026C13.4474 2.06534 13.4455 2.13195 13.4306 2.19627C13.4158 2.26059 13.3884 2.32133 13.3499 2.375L12.7749 3.19375C12.7375 3.24752 12.6898 3.29331 12.6345 3.32845C12.5792 3.36359 12.5175 3.38738 12.4529 3.39843C12.3884 3.40948 12.3223 3.40758 12.2584 3.39282C12.1946 3.37807 12.1344 3.35076 12.0812 3.3125C11.973 3.23681 11.8991 3.12138 11.8756 2.9914C11.8522 2.86142 11.8812 2.72745 11.9562 2.61875ZM14.6999 3.96875L13.8812 4.54375C13.7956 4.59966 13.6959 4.63001 13.5937 4.63125C13.4882 4.63041 13.3857 4.59622 13.3008 4.53357C13.2159 4.47092 13.153 4.38303 13.1211 4.28246C13.0892 4.18189 13.0899 4.0738 13.1231 3.97367C13.1564 3.87354 13.2205 3.7865 13.3062 3.725L14.1249 3.15C14.1786 3.11157 14.2394 3.08414 14.3037 3.06931C14.368 3.05447 14.4346 3.05252 14.4997 3.06356C14.5648 3.07459 14.627 3.09841 14.6828 3.13363C14.7387 3.16885 14.787 3.21477 14.8249 3.26875C14.9003 3.37844 14.9294 3.51338 14.906 3.64439C14.8826 3.77539 14.8086 3.89192 14.6999 3.96875Z" fill="#9A98A0"/>
</svg>
