<svg width="14" height="13" viewBox="0 0 14 13" fill="none" xmlns="http://www.w3.org/2000/svg">
<path d="M13.4937 4.50625C13.3521 4.34786 13.1788 4.22096 12.985 4.13375C12.7912 4.04655 12.5813 4.00098 12.3687 4H9V3C8.99835 2.33747 8.73443 1.70254 8.26594 1.23406C7.79746 0.765572 7.16253 0.50165 6.5 0.5C6.40711 0.500753 6.31618 0.526738 6.23691 0.575176C6.15765 0.623614 6.09304 0.692684 6.05 0.775L3.6875 5.5H1C0.734784 5.5 0.48043 5.60536 0.292893 5.79289C0.105357 5.98043 0 6.23478 0 6.5V12C0 12.2652 0.105357 12.5196 0.292893 12.7071C0.48043 12.8946 0.734784 13 1 13H11.6187C11.9836 12.9985 12.3355 12.8646 12.6091 12.6232C12.8827 12.3818 13.0593 12.0493 13.1062 11.6875L13.8562 5.6875C13.8812 5.47623 13.8619 5.26207 13.7994 5.05869C13.737 4.85531 13.6329 4.66716 13.4937 4.50625ZM1 6.5H3.5V12H1V6.5ZM12.8625 5.5625L12.1125 11.5625C12.0973 11.6829 12.0389 11.7937 11.948 11.8742C11.8572 11.9547 11.7401 11.9994 11.6187 12H4.5V6.11875L6.79375 1.53125C7.1335 1.5991 7.43929 1.78246 7.65918 2.0502C7.87907 2.31794 7.99949 2.65354 8 3V4.5C8 4.63261 8.05268 4.75979 8.14645 4.85355C8.24021 4.94732 8.36739 5 8.5 5H12.3687C12.4395 5.00071 12.5094 5.01607 12.5739 5.04511C12.6385 5.07416 12.6963 5.11625 12.7437 5.16875C12.79 5.22242 12.8245 5.2852 12.8449 5.35302C12.8654 5.42085 12.8714 5.49221 12.8625 5.5625Z" fill="#9A98A0"/>
</svg>
