<svg width="22" height="20" viewBox="0 0 22 20" fill="none" xmlns="http://www.w3.org/2000/svg">
<path d="M20.7406 6.50937C20.5281 6.27179 20.2681 6.08144 19.9775 5.95063C19.6868 5.81982 19.3719 5.75147 19.0531 5.75H14V4.25C13.9975 3.2562 13.6016 2.30381 12.8989 1.60108C12.1962 0.898358 11.2438 0.502475 10.25 0.5C10.1107 0.50113 9.97426 0.540107 9.85537 0.612764C9.73648 0.685421 9.63957 0.789026 9.575 0.9125L6.03125 8H2C1.60218 8 1.22064 8.15804 0.93934 8.43934C0.658035 8.72064 0.5 9.10218 0.5 9.5V17.75C0.5 18.1478 0.658035 18.5294 0.93934 18.8107C1.22064 19.092 1.60218 19.25 2 19.25H17.9281C18.4754 19.2477 19.0032 19.0469 19.4136 18.6848C19.824 18.3227 20.089 17.824 20.1594 17.2812L21.2844 8.28125C21.3218 7.96434 21.2928 7.6431 21.1992 7.33803C21.1055 7.03296 20.9494 6.75074 20.7406 6.50937ZM2 9.5H5.75V17.75H2V9.5ZM19.7938 8.09375L18.6688 17.0938C18.646 17.2744 18.5583 17.4406 18.422 17.5613C18.2857 17.6821 18.1102 17.7492 17.9281 17.75H7.25V8.92813L10.6906 2.04688C11.2003 2.14865 11.6589 2.4237 11.9888 2.8253C12.3186 3.22691 12.4992 3.73031 12.5 4.25V6.5C12.5 6.69891 12.579 6.88968 12.7197 7.03033C12.8603 7.17098 13.0511 7.25 13.25 7.25H19.0531C19.1593 7.25107 19.2641 7.27411 19.3609 7.31767C19.4577 7.36124 19.5444 7.42438 19.6156 7.50312C19.685 7.58363 19.7367 7.6778 19.7674 7.77953C19.798 7.88127 19.807 7.98832 19.7938 8.09375Z" fill="#36343A"/>
</svg>
