<svg width="14" height="13" viewBox="0 0 14 13" fill="none" xmlns="http://www.w3.org/2000/svg">
<path d="M7.08301 12.5C6.99769 12.5009 6.91364 12.4793 6.83926 12.4375C6.57051 12.2875 0.333008 8.74375 0.333008 4.25C0.333008 3.46294 0.580648 2.69583 1.04085 2.05734C1.50105 1.41884 2.15048 0.941328 2.89715 0.692438C3.64382 0.443548 4.44988 0.435899 5.20114 0.670574C5.95239 0.90525 6.61077 1.37035 7.08301 2C7.55524 1.37035 8.21362 0.90525 8.96488 0.670574C9.71614 0.435899 10.5222 0.443548 11.2689 0.692438C12.0155 0.941328 12.665 1.41884 13.1252 2.05734C13.5854 2.69583 13.833 3.46294 13.833 4.25C13.833 6.1625 12.7268 8.125 10.5455 10.0875C9.55503 10.9779 8.47657 11.7653 7.32676 12.4375C7.25238 12.4793 7.16833 12.5009 7.08301 12.5ZM4.08301 1.5C3.35366 1.5 2.65419 1.78973 2.13846 2.30546C1.62274 2.82118 1.33301 3.52066 1.33301 4.25C1.33301 7.7 5.95801 10.7313 7.08301 11.4188C8.20801 10.7313 12.833 7.7 12.833 4.25C12.8336 3.61427 12.6139 2.99797 12.2113 2.50596C11.8087 2.01395 11.2481 1.67663 10.6248 1.55139C10.0015 1.42614 9.35409 1.52071 8.79268 1.81901C8.23127 2.1173 7.79055 2.60089 7.54551 3.1875C7.50784 3.27921 7.44376 3.35764 7.3614 3.41284C7.27905 3.46804 7.18215 3.49752 7.08301 3.49752C6.98387 3.49752 6.88696 3.46804 6.80461 3.41284C6.72226 3.35764 6.65818 3.27921 6.62051 3.1875C6.4124 2.68642 6.06008 2.25848 5.60828 1.95802C5.15648 1.65756 4.62559 1.49814 4.08301 1.5Z" fill="#9A98A0"/>
</svg>
