<svg width="7" height="12" viewBox="0 0 7 12" fill="none" xmlns="http://www.w3.org/2000/svg">
<path d="M6.53063 10.4691C6.67152 10.61 6.75068 10.8011 6.75068 11.0003C6.75068 11.1996 6.67152 11.3907 6.53063 11.5316C6.38973 11.6725 6.19863 11.7516 5.99938 11.7516C5.80012 11.7516 5.60902 11.6725 5.46813 11.5316L0.468127 6.53157C0.398207 6.4619 0.342729 6.3791 0.304875 6.28794C0.267021 6.19677 0.247536 6.09903 0.247536 6.00032C0.247536 5.90161 0.267021 5.80387 0.304875 5.71271C0.342729 5.62155 0.398207 5.53875 0.468127 5.46907L5.46813 0.469074C5.60902 0.328178 5.80012 0.249023 5.99938 0.249023C6.19863 0.249023 6.38973 0.328178 6.53063 0.469074C6.67152 0.609971 6.75068 0.801067 6.75068 1.00032C6.75068 1.19958 6.67152 1.39068 6.53063 1.53157L2.0625 5.9997L6.53063 10.4691Z" fill="#36343A"/>
</svg>
