<svg xmlns="http://www.w3.org/2000/svg" width="36" height="36" viewBox="0 0 36 36" fill="none">
<path d="M18.9 9.3C20.5 8.6 21.4 7.6 21.7 6.3C22.2 3.4 19 0.5 18.6 0.2C18.4 0.1 18.2 0 18 0C17.8 0 17.6 0.1 17.5 0.2C16.8 0.8 16.2 1.4 15.7 2.1C14.5 3.7 14 5.1 14.2 6.3C14.4 7.6 15.4 8.6 17.1 9.3C17.6 9.4 18.2 9.5 18.9 9.3ZM15.9 6C15.6 4.7 17 3 18 2C18.3 2.4 18.7 2.7 19 3.1C19.5 3.9 20.2 5.1 20 6C19.9 6.7 19.2 7.3 18 7.8C16.7 7.4 16 6.7 15.9 6Z" fill="#D9A562"/>
<path d="M4.80001 21.7L4.60001 21.5C4.60001 21.5 4.60001 21.5 4.60001 21.4C4.60001 21.5 4.70001 21.6 4.80001 21.7Z" fill="#36343A"/>
<path d="M31.9 12.5C31.1 11.7 30 11.3 28.9 11.3H18.8V9.29999C18.1 9.49999 17.5 9.49999 17 9.29999V11.2H7C5.9 11.2 4.8 11.6 4 12.4C3.2 13.2 2.8 14.3 2.8 15.4V17.3C2.8 18.1 3 18.8 3.3 19.5C3.5 20.1 3.9 20.7 4.3 21.1C4.3 21.1 4.3 21.1 4.3 21.2L4.4 21.3C4.5 21.4 4.6 21.5 4.7 21.5V29C4.7 29.5 4.9 30 5.3 30.4C5.7 30.8 6.2 31 6.7 31H29.2C29.7 31 30.2 30.8 30.6 30.4C31 30 31.2 29.5 31.2 29V21.7L31.4 21.6C31.5 21.5 31.6 21.4 31.7 21.3C31.7 21.3 31.7 21.2 31.8 21.2C31.8 21.1 31.9 21.1 32 21V20.9L32.4 20.1L32.6 19.7C32.9 19 33 18.3 33 17.6V15.7C33.2 14.4 32.7 13.3 31.9 12.5ZM29.5 29C29.5 29.1 29.5 29.1 29.4 29.2C29.4 29.3 29.3 29.3 29.2 29.3H6.7C6.6 29.3 6.6 29.3 6.5 29.2C6.4 29.2 6.4 29.1 6.4 29V22.7C6.7 22.8 6.9 22.9 7.2 22.9H7.3C7.7 23 8.1 23 8.5 23C9.4 23 10.4 22.7 11.2 22.2C12 21.7 12.7 21.1 13.2 20.3C13.7 21.1 14.4 21.8 15.2 22.3C16 22.8 17 23 17.9 23C18.9 23 19.8 22.8 20.6 22.3C21.4 21.8 22.1 21.1 22.6 20.3C23.1 21.1 23.8 21.8 24.6 22.2C25.4 22.7 26.3 22.9 27.3 23H27.4C27.7 23 28 23 28.3 22.9C28.7 22.8 29 22.7 29.3 22.6V29H29.5ZM31.5 17.3C31.5 17.8 31.4 18.4 31.2 18.9C31 19.4 30.7 19.9 30.3 20.2C29.9 20.6 29.5 20.8 29 21C28.5 21.2 28 21.3 27.5 21.3C26.5 21.3 25.5 20.8 24.8 20.1C24.1 19.4 23.7 18.4 23.7 17.3C23.7 17.1 23.6 16.9 23.5 16.7C23.3 16.5 23.1 16.5 22.9 16.5C22.7 16.5 22.5 16.6 22.3 16.7C22.1 16.9 22.1 17.1 22.1 17.3C22.1 18.3 21.7 19.3 21 20.1C20 21 19 21.4 18 21.4C17 21.4 16 21 15.2 20.2C14.4 19.4 14 18.5 14 17.4C14 17.2 13.9 17 13.8 16.8C13.6 16.6 13.4 16.6 13.2 16.6C13 16.6 12.8 16.7 12.6 16.8C12.4 17 12.4 17.2 12.4 17.4C12.4 18.4 12 19.4 11.3 20.2C10.6 20.9 9.6 21.4 8.6 21.4C8.1 21.4 7.6 21.3 7.1 21.1C6.6 20.9 6.2 20.6 5.8 20.3C5.4 19.9 5.1 19.5 4.9 19C4.7 18.5 4.6 18 4.6 17.4V15.5C4.6 14.8 4.9 14.2 5.4 13.7C5.9 13.2 6.5 13 7.2 12.9H29C29.7 12.9 30.3 13.2 30.8 13.7C31.3 14.2 31.5 14.8 31.5 15.5V17.3Z" fill="#35343A"/>
</svg>
