<svg xmlns="http://www.w3.org/2000/svg" width="120" height="120" viewBox="0 0 120 120" fill="none">
<path d="M28.6373 34.8263C28.1545 34.8263 27.7594 34.4313 27.7594 33.9484V29.4887C27.7594 29.0059 28.1545 28.6108 28.6373 28.6108C29.1201 28.6108 29.5152 29.0059 29.5152 29.4887V33.9484C29.5152 34.4313 29.1201 34.8263 28.6373 34.8263Z" fill="#D8A462"/>
<path d="M30.8672 32.5965H26.4074C25.9246 32.5965 25.5295 32.2014 25.5295 31.7186C25.5295 31.2357 25.9246 30.8407 26.4074 30.8407H30.8672C31.35 30.8407 31.7451 31.2357 31.7451 31.7186C31.7451 32.2014 31.35 32.5965 30.8672 32.5965Z" fill="#D8A462"/>
<path d="M63.3405 88.1762H54.7898C54.307 88.1762 53.9119 87.7812 53.9119 87.2983V70.785H51.805C51.4538 70.785 51.129 70.5743 50.9973 70.2407C50.8656 69.9071 50.9358 69.5385 51.1904 69.2839L59.153 61.3213C59.3285 61.1457 59.5656 61.0492 59.8202 61.0667C60.066 61.0755 60.2942 61.1984 60.4523 61.3828L67.0014 69.3453C67.2209 69.6087 67.2648 69.9686 67.1155 70.2759C66.9663 70.5832 66.659 70.7763 66.3254 70.7763H64.2184V87.2896C64.2184 87.7724 63.8234 88.1675 63.3405 88.1675V88.1762ZM55.6677 86.4204H62.4626V69.9071C62.4626 69.4243 62.8577 69.0292 63.3405 69.0292H64.4642L59.706 63.2439L53.9207 69.0292H54.781C55.2639 69.0292 55.6589 69.4243 55.6589 69.9071V86.4204H55.6677Z" fill="#D8A462"/>
<path d="M92.2408 94.8395H26.9164C23.8086 94.8395 21.2715 92.3111 21.2715 89.1946V47.4329C21.2715 44.3252 23.7998 41.7881 26.9164 41.7881H92.2408C95.3486 41.7881 97.8857 44.3164 97.8857 47.4329V89.1946C97.8857 92.3024 95.3574 94.8395 92.2408 94.8395V94.8395ZM26.9164 43.5439C24.7743 43.5439 23.0273 45.2909 23.0273 47.4329V89.1946C23.0273 91.3367 24.7743 93.0837 26.9164 93.0837H92.2408C94.3829 93.0837 96.1299 91.3367 96.1299 89.1946V47.4329C96.1299 45.2909 94.3829 43.5439 92.2408 43.5439H26.9164Z" fill="#36343A"/>
<path d="M76.6756 101.599H42.4726C41.9898 101.599 41.5947 101.204 41.5947 100.721V93.9616C41.5947 93.4787 41.9898 93.0837 42.4726 93.0837H76.6756C77.1584 93.0837 77.5535 93.4787 77.5535 93.9616V100.721C77.5535 101.204 77.1584 101.599 76.6756 101.599ZM43.3505 99.8435H75.7977V94.8395H43.3505V99.8435Z" fill="#36343A"/>
<path d="M83.2776 101.599H35.8623C35.3794 101.599 34.9844 101.204 34.9844 100.721C34.9844 100.239 35.3794 99.8435 35.8623 99.8435H83.2776C83.7604 99.8435 84.1555 100.239 84.1555 100.721C84.1555 101.204 83.7604 101.599 83.2776 101.599Z" fill="#36343A"/>
<path d="M96.9991 88.1762H22.4216C21.9388 88.1762 21.5437 87.7812 21.5437 87.2983C21.5437 86.8155 21.9388 86.4204 22.4216 86.4204H96.9991C97.482 86.4204 97.877 86.8155 97.877 87.2983C97.877 87.7812 97.482 88.1762 96.9991 88.1762Z" fill="#36343A"/>
<path d="M97.8416 37.2845V32.737L94.0403 31.3586C93.8033 30.5949 93.496 29.8574 93.1273 29.1639L94.848 25.5031L91.6261 22.2811L87.9652 24.0018C87.2717 23.6331 86.5343 23.3259 85.7705 23.0889L84.3922 19.2875H79.8447L78.4664 23.0889C77.7026 23.3259 76.9652 23.6331 76.2716 24.0018L72.6108 22.2811L69.3889 25.5031L71.1096 29.1639C70.7409 29.8574 70.4336 30.5949 70.1966 31.3586L66.3953 32.737V37.2845L70.1966 38.6628C70.4336 39.4265 70.7409 40.164 71.1096 40.8575L69.3889 44.5183L72.6108 47.7402L76.2716 46.0196C76.9652 46.3883 77.7026 46.6955 78.4664 46.9326L79.8447 50.7339H84.3922L85.7705 46.9326C86.5343 46.6955 87.2717 46.3883 87.9652 46.0196L91.6261 47.7402L94.848 44.5183L93.1273 40.8575C93.496 40.164 93.8033 39.4265 94.0403 38.6628L97.8416 37.2845V37.2845ZM82.1184 42.4202C78.0274 42.4202 74.709 39.1017 74.709 35.0107C74.709 30.9197 78.0274 27.6012 82.1184 27.6012C86.2094 27.6012 89.5279 30.9197 89.5279 35.0107C89.5279 39.1017 86.2094 42.4202 82.1184 42.4202Z" fill="white"/>
<path d="M85.0156 51.603H79.2302L77.7905 47.6261C77.2725 47.4505 76.7546 47.231 76.2542 46.9852L72.4265 48.7762L68.3355 44.6851L70.1352 40.8575C69.8894 40.3571 69.6787 39.8479 69.4943 39.3212L65.5175 37.8814V32.0961L69.4943 30.6563C69.6699 30.1383 69.8894 29.6204 70.1352 29.12L68.3355 25.2924L72.4265 21.2013L76.2542 22.9922C76.7546 22.7464 77.2637 22.5357 77.7905 22.3514L79.2302 18.3745H85.0156L86.4553 22.3514C86.9733 22.5269 87.4913 22.7464 87.9917 22.9922L91.8193 21.2013L95.9103 25.2924L94.1106 29.12C94.3564 29.6204 94.5671 30.1296 94.7515 30.6563L98.7284 32.0961V37.8814L94.7515 39.3212C94.5759 39.8391 94.3564 40.3571 94.1106 40.8575L95.9103 44.6851L91.8193 48.7762L87.9917 46.9852C87.4913 47.231 86.9821 47.4417 86.4553 47.6261L85.0156 51.603ZM80.4681 49.8472H83.7865L85.1034 46.2127L85.5248 46.081C86.2183 45.8703 86.9119 45.5806 87.5615 45.2294L87.9478 45.0275L91.4506 46.6692L93.7946 44.3252L92.1529 40.8223L92.3548 40.4361C92.706 39.7777 92.9869 39.0929 93.2064 38.3906L93.3381 37.9692L96.9726 36.6523V33.3339L93.3381 32.017L93.2064 31.5957C92.9957 30.9021 92.706 30.2086 92.3548 29.5501L92.1529 29.1639L93.7946 25.6611L91.4506 23.3171L87.9478 24.9588L87.5615 24.7568C86.9031 24.4056 86.2183 24.1247 85.516 23.9053L85.0946 23.7736L83.7777 20.139H80.4593L79.1424 23.7736L78.7211 23.9053C78.0187 24.116 77.334 24.4056 76.6755 24.7568L76.2893 24.9588L72.7865 23.3171L70.4425 25.6611L72.0841 29.1639L71.8822 29.5501C71.5311 30.2086 71.2501 30.8933 71.0307 31.5957L70.899 32.017L67.2645 33.3339V36.6523L70.899 37.9692L71.0307 38.3906C71.2414 39.0841 71.5311 39.7777 71.8822 40.4361L72.0841 40.8223L70.4425 44.3252L72.7865 46.6692L76.2893 45.0275L76.6755 45.2294C77.334 45.5806 78.0187 45.8615 78.7123 46.081L79.1337 46.2127L80.4505 49.8472H80.4681ZM82.1273 43.2893C77.5534 43.2893 73.8399 39.567 73.8399 35.0019C73.8399 30.4368 77.5622 26.7146 82.1273 26.7146C86.6924 26.7146 90.4147 30.4368 90.4147 35.0019C90.4147 39.567 86.6924 43.2893 82.1273 43.2893ZM82.1273 28.4616C78.5279 28.4616 75.5957 31.3937 75.5957 34.9931C75.5957 38.5925 78.5279 41.5247 82.1273 41.5247C85.7267 41.5247 88.6589 38.5925 88.6589 34.9931C88.6589 31.3937 85.7267 28.4616 82.1273 28.4616Z" fill="#D8A462"/>
<path d="M47.995 25.2924C42.789 25.2924 38.5663 29.4887 38.5663 34.6683C33.3604 34.6683 29.1377 38.8647 29.1377 44.0443C29.1377 48.0914 31.7187 51.5239 35.3357 52.8408V74.6302H32.3508L38.8999 82.5928L46.8713 74.6302H43.8864V51.7786C46.3708 50.093 47.995 47.2574 47.995 44.0443C53.2009 44.0443 57.4236 39.8479 57.4236 34.6683C57.4236 29.4887 53.2009 25.2924 47.995 25.2924V25.2924Z" fill="white"/>
<path d="M38.8997 83.4707C38.8997 83.4707 38.8733 83.4707 38.8558 83.4707C38.6099 83.4619 38.3817 83.339 38.2237 83.1546L31.6745 75.1921C31.4551 74.9287 31.4112 74.5688 31.5604 74.2615C31.7097 73.9543 32.0169 73.7611 32.3505 73.7611H34.4575V53.4465C30.7264 51.8312 28.2595 48.1353 28.2595 44.053C28.2595 38.6803 32.4295 34.2645 37.7233 33.8343C38.1534 28.5757 42.5956 24.432 47.9947 24.432C53.6835 24.432 58.3012 29.0322 58.3012 34.6858C58.3012 40.3395 54.1312 44.4744 48.8375 44.9046C48.6004 47.8104 47.1168 50.488 44.764 52.2526V73.7699H46.871C47.2221 73.7699 47.547 73.9806 47.6786 74.3142C47.8103 74.6478 47.7401 75.0165 47.4855 75.2711L39.5142 83.2337C39.3474 83.4005 39.1279 83.4883 38.8909 83.4883L38.8997 83.4707ZM34.2117 75.5081L38.9699 81.2935L44.7552 75.5081H43.8949C43.4121 75.5081 43.017 75.1131 43.017 74.6302V51.7785C43.017 51.4888 43.1575 51.2167 43.4033 51.0499C45.7385 49.4609 47.1256 46.8447 47.1256 44.0355C47.1256 43.5526 47.5206 43.1576 48.0035 43.1576C52.7178 43.1576 56.5542 39.3475 56.5542 34.6595C56.5542 29.9715 52.7178 26.1615 48.0035 26.1615C43.2892 26.1615 39.4527 29.9715 39.4527 34.6595C39.4527 35.1424 39.0577 35.5374 38.5748 35.5374C33.8605 35.5374 30.0241 39.3475 30.0241 44.0355C30.0241 47.5822 32.2803 50.7865 35.6427 52.0068C35.9938 52.1297 36.2221 52.4633 36.2221 52.832V74.6214C36.2221 75.1043 35.827 75.4993 35.3442 75.4993H34.2205L34.2117 75.5081Z" fill="#36343A"/>
<path d="M88.8259 51.9102C88.8259 49.136 87.2457 46.7306 84.9368 45.5454C84.9368 45.5103 84.9368 45.4752 84.9368 45.4313C84.9368 39.6635 80.2664 34.9931 74.4986 34.9931C73.8314 34.9931 73.173 35.0633 72.5409 35.1862C71.0748 31.2006 67.256 28.3562 62.7611 28.3562C57.0021 28.3562 52.3229 33.0266 52.3229 38.7944C52.3229 39.4704 52.3931 40.1201 52.516 40.7609C52.0946 40.6995 51.6645 40.6643 51.2255 40.6643C46.1425 40.6643 42.0164 44.7905 42.0164 49.8735C42.0164 54.9565 46.1337 59.0827 51.2255 59.0827H74.7357V74.6302H71.7508L78.2999 82.5928L86.2712 74.6302H83.2864V58.8895C86.4556 58.1521 88.8172 55.3164 88.8172 51.919L88.8259 51.9102Z" fill="white"/>
<path d="M78.3087 83.4707C78.3087 83.4707 78.2823 83.4707 78.2648 83.4707C78.019 83.4619 77.7907 83.339 77.6327 83.1546L71.0836 75.1921C70.8641 74.9287 70.8202 74.5688 70.9694 74.2615C71.1187 73.9543 71.426 73.7611 71.7596 73.7611H73.8665V59.9693H51.2343C45.6772 59.9693 41.1472 55.4481 41.1472 49.8822C41.1472 44.3164 45.6684 39.7952 51.2343 39.7952C51.3221 39.7952 51.4099 39.7952 51.4976 39.7952C51.4713 39.4616 51.4537 39.128 51.4537 38.8032C51.4537 32.5613 56.528 27.4871 62.7699 27.4871C67.2384 27.4871 71.303 30.1647 73.1027 34.2206C73.5768 34.1591 74.0509 34.1327 74.5162 34.1327C80.6176 34.1327 85.604 38.9876 85.8235 45.0363C88.2377 46.4936 89.7126 49.0746 89.7126 51.919C89.7126 55.4394 87.4652 58.4857 84.1818 59.5567V73.7523H86.2888C86.6399 73.7523 86.9648 73.963 87.0964 74.2966C87.2281 74.6214 87.1579 74.999 86.9033 75.2535L78.932 83.2161C78.7652 83.3829 78.5457 83.4707 78.3087 83.4707V83.4707ZM73.6207 75.5081L78.3789 81.2935L84.1643 75.5081H83.3039C82.8211 75.5081 82.426 75.1131 82.426 74.6302V58.8895C82.426 58.4857 82.707 58.1258 83.102 58.038C85.964 57.3708 87.9568 54.8599 87.9568 51.9278C87.9568 49.5662 86.6487 47.4329 84.5418 46.3443C84.2433 46.1951 84.0589 45.8878 84.0677 45.5542C84.0677 45.5367 84.0677 45.4664 84.0677 45.4489C84.0677 40.1815 79.7835 35.8973 74.5074 35.8973C73.928 35.8973 73.3222 35.9588 72.7077 36.0729C72.2863 36.1519 71.8649 35.9149 71.7157 35.511C70.3374 31.7712 66.738 29.2516 62.7523 29.2516C57.4849 29.2516 53.192 33.5358 53.192 38.812C53.192 39.4001 53.2534 40.0059 53.3676 40.6116C53.4202 40.8926 53.3325 41.1735 53.1393 41.3842C52.9462 41.5861 52.6653 41.6914 52.3843 41.6476C51.9366 41.5861 51.5679 41.5598 51.2167 41.5598C46.6253 41.5598 42.8855 45.2996 42.8855 49.891C42.8855 54.4824 46.6253 58.2223 51.2167 58.2223H74.7268C75.2097 58.2223 75.6047 58.6173 75.6047 59.1002V74.6478C75.6047 75.1306 75.2097 75.5257 74.7268 75.5257H73.6031L73.6207 75.5081Z" fill="#36343A"/>
</svg>