<svg width="58" height="60" viewBox="0 0 58 60" fill="none" xmlns="http://www.w3.org/2000/svg">
<path d="M18 50.9H19.5V52.9C19.5 53.4 20 53.9 20.5 53.9C21 53.9 21.5 53.4 21.5 52.9V50.9H23C24.9 50.9 26.5 49.3 26.5 47.4V44.9C26.5 43 24.9 41.4 23 41.4H18C17.2 41.4 16.5 40.7 16.5 39.9V37.4C16.5 36.6 17.2 35.9 18 35.9H23C23.8 35.9 24.5 36.6 24.5 37.4V37.9C24.5 38.4 24.9 38.9 25.5 38.9C26.1 38.9 26.5 38.5 26.5 37.9V37.4C26.5 35.5 24.9 33.9 23 33.9H21.5V31.9C21.5 31.4 21 30.9 20.5 30.9C20 30.9 19.5 31.4 19.5 31.9V33.9H18C16.1 33.9 14.5 35.5 14.5 37.4V39.9C14.5 41.8 16.1 43.4 18 43.4H23C23.8 43.4 24.5 44.1 24.5 44.9V47.4C24.5 48.2 23.8 48.9 23 48.9H18C17.2 48.9 16.5 48.2 16.5 47.4V46.9C16.5 46.4 16.1 45.9 15.5 45.9C14.9 45.9 14.5 46.3 14.5 46.9V47.4C14.5 49.3 16.1 50.9 18 50.9Z" fill="#D8A462"/>
<path d="M34.7001 5.50001C32.4001 4.60001 29.9 4.20001 27.3 4.20001C25.8 4.20001 24.3 4.40001 22.9 4.70001C21.5 5.00001 20.2 5.40001 18.8 6.00001C17.5 6.60001 16.3 7.30001 15.2 8.10001C14.1 8.90001 13 9.80001 12.1 10.8C11.9 11 11.8 11.2 11.8 11.5C11.8 11.8 11.9 12 12.1 12.2C12.2 12.3 12.3 12.4 12.5 12.4V12.5H12.8C13.1 12.5 13.3 12.4 13.5 12.2C17 8.40001 22 6.20001 27.4 6.20001C29.7 6.20001 32 6.60001 34.1 7.40001C34.3 7.50001 34.4 7.50001 34.5 7.50001C34.9 7.50001 35.3001 7.20001 35.4001 6.80001C35.5001 6.50001 35.5001 6.30001 35.4001 6.00001C35.2001 5.80001 35 5.60001 34.7001 5.50001Z" fill="#D8A462"/>
<path d="M55.6 22.2C54.6 21.3 53.5 20.6 52.2 20.4C51.5 14.9 48.7 9.9 44.3 6.2C39.6 2.2 33.6 0 27.4 0C24.6 0 21.9 0.4 19.2 1.3C16.7 2.1 14.3 3.3 12.2 4.8C10.1 6.3 8.20002 8.1 6.70002 10.2C5.30002 12.1 4.20002 14.2 3.50002 16.4C3.40002 16.4 3.30002 16.4 3.20002 16.4C3.10002 16.4 3.00002 16.4 2.90002 16.4C2.20002 16.5 1.50002 16.9 1.10002 17.4C0.600024 18 0.400024 18.7 0.400024 19.4V27C0.400024 27.9 0.800025 28.7 1.40002 29.3C1.80002 29.7 2.40002 29.9 3.00002 30C2.30002 31.2 1.80002 32.5 1.40002 33.7C0.800025 35.7 0.400024 37.8 0.400024 39.9C0.400024 42.6 0.900024 45.2 2.00002 47.7C3.00002 50.1 4.50002 52.3 6.30002 54.1C8.20002 55.9 10.3 57.4 12.7 58.4C15.2 59.5 17.8 60 20.5 60H23L22.6 59.9C24.5 59.7 26.4 59.2 28.2 58.4C30.6 57.4 32.8 55.9 34.6 54.1C36.4 52.2 37.9 50.1 38.9 47.7C40 45.2 40.5 42.6 40.5 39.9C40.5 37.8 40.2 35.7 39.5 33.7C39.1 32.4 38.5 31.2 37.9 30C38.5 29.9 39 29.7 39.4 29.3C40.1 28.7 40.4 27.9 40.4 27V22.2C41.9 22.5 43.4 23.1 44.7 23.9C44.2 24.9 43.9 26 43.9 27.1C43.9 28.9 44.6 30.6 45.9 31.9C47.2 33.2 48.9 33.9 50.7 33.9C52.5 33.9 54.2 33.2 55.5 31.9C56.8 30.6 57.5 28.9 57.5 27.1C57.6 25.2 56.9 23.5 55.6 22.2ZM46.9 24.3C47 24.3 47 24.2 47.1 24.1L47.2 24C48.1 23 49.3 22.3 50.7 22.3H51.2C53.7 22.5 55.6 24.6 55.6 27.1C55.6 29.7 53.4 31.9 50.8 31.9C48.2 31.9 46 29.8 46 27.1C46.1 26.1 46.4 25.2 46.9 24.3ZM5.50002 29.7C9.20002 29.2 13.1 28.9 17 28.8H24C27.9 28.9 31.8 29.2 35.5 29.7C37.5 32.7 38.6 36.2 38.6 39.8C38.6 44.6 36.7 49.2 33.3 52.6C29.9 56 25.3 57.9 20.5 57.9C10.5 57.9 2.40002 49.8 2.40002 39.8C2.40002 36.2 3.40002 32.7 5.50002 29.7ZM37.6 28H37.5C37.3 28 37.1 27.9 36.9 27.9C36.7 27.9 36.5 27.8 36.2 27.8C32.1 27.3 28 27 24.1 26.8H17C13.1 26.9 9.10002 27.2 5.00002 27.8H4.90002C4.50002 27.8 4.00002 27.9 3.70002 28H3.40002C3.20002 28 2.90002 27.9 2.80002 27.8C2.60002 27.6 2.40002 27.3 2.40002 27V19.5C2.40002 19 2.80002 18.6 3.30002 18.5C8.90002 17.7 14.6 17.3 20.1 17.3H20.5C26.3 17.3 32.1 17.7 37.7 18.5C38.2 18.6 38.6 19 38.6 19.5V27C38.6 27.3 38.5 27.6 38.2 27.8C38.1 27.9 37.9 28 37.6 28ZM39.5 17.8L39.8 17.5C39.3 17 38.7 16.6 38 16.5C27.3 15 16.5 14.9 5.80002 16.2C9.00002 7.7 17.7 2 27.4 2C33 2 38.4 3.8 42.5 7.2C46.7 10.5 49.4 15.2 50.1 20.3C48.6 20.5 47.2 21.1 46.1 22.2C44.4 21.2 42.6 20.4 40.6 20.1V19.5C40.6 18.8 40.3 18.1 39.9 17.5L39.5 17.8Z" fill="#36343A"/>
</svg>
