<svg width="120" height="120" viewBox="0 0 120 120" fill="none" xmlns="http://www.w3.org/2000/svg">
<path d="M77.791 98.746H39.7341C36.7668 98.746 34.3525 96.3318 34.3525 93.3645V27.5923C34.3525 24.625 36.7668 22.2108 39.7341 22.2108H77.791C80.7583 22.2108 83.1725 24.625 83.1725 27.5923V93.3645C83.1725 96.3318 80.7583 98.746 77.791 98.746ZM39.7341 23.9666C37.7324 23.9666 36.1083 25.5907 36.1083 27.5923V93.3645C36.1083 95.3661 37.7324 96.9902 39.7341 96.9902H77.791C79.7926 96.9902 81.4167 95.3661 81.4167 93.3645V27.5923C81.4167 25.5907 79.7926 23.9666 77.791 23.9666H39.7341Z" fill="#36343A"/>
<path d="M82.0662 32.6667H35.2917C34.8089 32.6667 34.4138 32.2716 34.4138 31.7888C34.4138 31.3059 34.8089 30.9109 35.2917 30.9109H82.0662C82.549 30.9109 82.9441 31.3059 82.9441 31.7888C82.9441 32.2716 82.549 32.6667 82.0662 32.6667Z" fill="#36343A"/>
<path d="M82.2942 89.0541H35.3178C34.835 89.0541 34.4399 88.659 34.4399 88.1762C34.4399 87.6933 34.835 87.2983 35.3178 87.2983H82.2942C82.7771 87.2983 83.1721 87.6933 83.1721 88.1762C83.1721 88.659 82.7771 89.0541 82.2942 89.0541Z" fill="#36343A"/>
<path d="M64.2623 28.2069H52.1737C51.6908 28.2069 51.2958 27.8118 51.2958 27.329C51.2958 26.8461 51.6908 26.4511 52.1737 26.4511H64.2623C64.7452 26.4511 65.1402 26.8461 65.1402 27.329C65.1402 27.8118 64.7452 28.2069 64.2623 28.2069Z" fill="#36343A"/>
<path d="M68.3447 28.2069H67.8618C67.379 28.2069 66.9839 27.8118 66.9839 27.329C66.9839 26.8461 67.379 26.4511 67.8618 26.4511H68.3447C68.8275 26.4511 69.2226 26.8461 69.2226 27.329C69.2226 27.8118 68.8275 28.2069 68.3447 28.2069Z" fill="#D8A462"/>
<path d="M46.2827 93.5401H45.7999C45.3171 93.5401 44.922 93.1451 44.922 92.6622C44.922 92.1794 45.3171 91.7843 45.7999 91.7843H46.2827C46.7656 91.7843 47.1606 92.1794 47.1606 92.6622C47.1606 93.1451 46.7656 93.5401 46.2827 93.5401Z" fill="#D8A462"/>
<path d="M57.8802 93.5401H57.3974C56.9145 93.5401 56.5195 93.1451 56.5195 92.6622C56.5195 92.1794 56.9145 91.7843 57.3974 91.7843H57.8802C58.3631 91.7843 58.7581 92.1794 58.7581 92.6622C58.7581 93.1451 58.3631 93.5401 57.8802 93.5401Z" fill="#D8A462"/>
<path d="M69.4772 93.5401H68.9944C68.5115 93.5401 68.1165 93.1451 68.1165 92.6622C68.1165 92.1794 68.5115 91.7843 68.9944 91.7843H69.4772C69.96 91.7843 70.3551 92.1794 70.3551 92.6622C70.3551 93.1451 69.96 93.5401 69.4772 93.5401Z" fill="#D8A462"/>
<path d="M95.6651 39.2509H64.0783V81.7149H95.6651V39.2509Z" fill="white"/>
<path d="M95.6734 82.5928H64.0866C63.6038 82.5928 63.2087 82.1977 63.2087 81.7149V39.2509C63.2087 38.7681 63.6038 38.373 64.0866 38.373H95.6734C96.1563 38.373 96.5513 38.7681 96.5513 39.2509V81.7149C96.5513 82.1977 96.1563 82.5928 95.6734 82.5928ZM64.9645 80.837H94.7955V40.1288H64.9645V80.837Z" fill="#36343A"/>
<path d="M76.9305 52.1561H69.9863C69.5035 52.1561 69.1084 51.761 69.1084 51.2782V44.334C69.1084 43.8511 69.5035 43.4561 69.9863 43.4561H76.9305C77.4133 43.4561 77.8084 43.8511 77.8084 44.334V51.2782C77.8084 51.761 77.4133 52.1561 76.9305 52.1561ZM70.8642 50.4003H76.0526V45.2119H70.8642V50.4003Z" fill="#D8A462"/>
<path d="M89.7654 52.1561H82.8213C82.3384 52.1561 81.9434 51.761 81.9434 51.2782V44.334C81.9434 43.8511 82.3384 43.4561 82.8213 43.4561H89.7654C90.2483 43.4561 90.6433 43.8511 90.6433 44.334V51.2782C90.6433 51.761 90.2483 52.1561 89.7654 52.1561ZM83.6992 50.4003H88.8875V45.2119H83.6992V50.4003Z" fill="#36343A"/>
<path d="M76.9305 64.8328H69.9863C69.5035 64.8328 69.1084 64.4378 69.1084 63.9549V57.0108C69.1084 56.5279 69.5035 56.1329 69.9863 56.1329H76.9305C77.4133 56.1329 77.8084 56.5279 77.8084 57.0108V63.9549C77.8084 64.4378 77.4133 64.8328 76.9305 64.8328ZM70.8642 63.077H76.0526V57.8887H70.8642V63.077Z" fill="#D8A462"/>
<path d="M89.7654 64.8328H82.8213C82.3384 64.8328 81.9434 64.4378 81.9434 63.9549V57.0108C81.9434 56.5279 82.3384 56.1329 82.8213 56.1329H89.7654C90.2483 56.1329 90.6433 56.5279 90.6433 57.0108V63.9549C90.6433 64.4378 90.2483 64.8328 89.7654 64.8328ZM83.6992 63.077H88.8875V57.8887H83.6992V63.077Z" fill="#36343A"/>
<path d="M76.9305 77.5097H69.9863C69.5035 77.5097 69.1084 77.1147 69.1084 76.6318V69.6877C69.1084 69.2048 69.5035 68.8098 69.9863 68.8098H76.9305C77.4133 68.8098 77.8084 69.2048 77.8084 69.6877V76.6318C77.8084 77.1147 77.4133 77.5097 76.9305 77.5097ZM70.8642 75.7539H76.0526V70.5656H70.8642V75.7539Z" fill="#36343A"/>
<path d="M89.7654 77.5097H82.8213C82.3384 77.5097 81.9434 77.1147 81.9434 76.6318V69.6877C81.9434 69.2048 82.3384 68.8098 82.8213 68.8098H89.7654C90.2483 68.8098 90.6433 69.2048 90.6433 69.6877V76.6318C90.6433 77.1147 90.2483 77.5097 89.7654 77.5097ZM83.6992 75.7539H88.8875V70.5656H83.6992V75.7539Z" fill="#D8A462"/>
<path d="M53.4378 39.2509H21.851V81.7149H53.4378V39.2509Z" fill="white"/>
<path d="M53.4466 82.5928H21.851C21.3682 82.5928 20.9731 82.1977 20.9731 81.7149V39.2509C20.9731 38.7681 21.3682 38.373 21.851 38.373H53.4378C53.9207 38.373 54.3157 38.7681 54.3157 39.2509V81.7149C54.3157 82.1977 53.9207 82.5928 53.4378 82.5928H53.4466ZM22.7377 80.837H52.5687V40.1288H22.7289V80.837H22.7377Z" fill="#36343A"/>
<path d="M37.6445 58.5471C34.0451 58.5471 31.1217 55.6237 31.1217 52.0243C31.1217 48.4249 34.0451 45.5015 37.6445 45.5015C41.2439 45.5015 44.1673 48.4249 44.1673 52.0243C44.1673 55.6237 41.2439 58.5471 37.6445 58.5471ZM37.6445 47.2485C35.0108 47.2485 32.8775 49.3906 32.8775 52.0155C32.8775 54.6404 35.0196 56.7825 37.6445 56.7825C40.2694 56.7825 42.4115 54.6404 42.4115 52.0155C42.4115 49.3906 40.2694 47.2485 37.6445 47.2485Z" fill="#D8A462"/>
<path d="M29.4448 64.8416H27.0657C26.5829 64.8416 26.1878 64.4466 26.1878 63.9637C26.1878 63.4809 26.5829 63.0858 27.0657 63.0858H29.4448C29.9277 63.0858 30.3227 63.4809 30.3227 63.9637C30.3227 64.4466 29.9277 64.8416 29.4448 64.8416Z" fill="#36343A"/>
<path d="M48.2321 64.8416H34.3349C33.8521 64.8416 33.457 64.4466 33.457 63.9637C33.457 63.4809 33.8521 63.0858 34.3349 63.0858H48.2321C48.7149 63.0858 49.11 63.4809 49.11 63.9637C49.11 64.4466 48.7149 64.8416 48.2321 64.8416Z" fill="#D8A462"/>
<path d="M29.4448 70.153H27.0657C26.5829 70.153 26.1878 69.7579 26.1878 69.2751C26.1878 68.7922 26.5829 68.3972 27.0657 68.3972H29.4448C29.9277 68.3972 30.3227 68.7922 30.3227 69.2751C30.3227 69.7579 29.9277 70.153 29.4448 70.153Z" fill="#36343A"/>
<path d="M48.2321 70.153H34.3349C33.8521 70.153 33.457 69.7579 33.457 69.2751C33.457 68.7922 33.8521 68.3972 34.3349 68.3972H48.2321C48.7149 68.3972 49.11 68.7922 49.11 69.2751C49.11 69.7579 48.7149 70.153 48.2321 70.153Z" fill="#D8A462"/>
<path d="M29.4448 75.4642H27.0657C26.5829 75.4642 26.1878 75.0692 26.1878 74.5863C26.1878 74.1035 26.5829 73.7084 27.0657 73.7084H29.4448C29.9277 73.7084 30.3227 74.1035 30.3227 74.5863C30.3227 75.0692 29.9277 75.4642 29.4448 75.4642Z" fill="#D8A462"/>
<path d="M48.2321 75.4642H34.3349C33.8521 75.4642 33.457 75.0692 33.457 74.5863C33.457 74.1035 33.8521 73.7084 34.3349 73.7084H48.2321C48.7149 73.7084 49.11 74.1035 49.11 74.5863C49.11 75.0692 48.7149 75.4642 48.2321 75.4642Z" fill="#36343A"/>
<path d="M95.9196 27.4607C95.4367 27.4607 95.0417 27.0656 95.0417 26.5828V22.123C95.0417 21.6402 95.4367 21.2451 95.9196 21.2451C96.4024 21.2451 96.7975 21.6402 96.7975 22.123V26.5828C96.7975 27.0656 96.4024 27.4607 95.9196 27.4607Z" fill="#D8A462"/>
<path d="M98.1494 25.2309H93.6897C93.2068 25.2309 92.8118 24.8358 92.8118 24.353C92.8118 23.8701 93.2068 23.4751 93.6897 23.4751H98.1494C98.6322 23.4751 99.0273 23.8701 99.0273 24.353C99.0273 24.8358 98.6322 25.2309 98.1494 25.2309Z" fill="#D8A462"/>
<path d="M88.9752 35.1686C88.4924 35.1686 88.0974 34.7736 88.0974 34.2907V29.831C88.0974 29.3481 88.4924 28.9531 88.9752 28.9531C89.4581 28.9531 89.8531 29.3481 89.8531 29.831V34.2907C89.8531 34.7736 89.4581 35.1686 88.9752 35.1686Z" fill="#D8A462"/>
<path d="M91.2051 32.9388H86.7454C86.2625 32.9388 85.8675 32.5438 85.8675 32.0609C85.8675 31.5781 86.2625 31.183 86.7454 31.183H91.2051C91.688 31.183 92.083 31.5781 92.083 32.0609C92.083 32.5438 91.688 32.9388 91.2051 32.9388Z" fill="#D8A462"/>
<path d="M27.4167 35.1686C26.9338 35.1686 26.5388 34.7736 26.5388 34.2907V29.831C26.5388 29.3481 26.9338 28.9531 27.4167 28.9531C27.8995 28.9531 28.2946 29.3481 28.2946 29.831V34.2907C28.2946 34.7736 27.8995 35.1686 27.4167 35.1686Z" fill="#D8A462"/>
<path d="M29.6465 32.9388H25.1867C24.7039 32.9388 24.3088 32.5438 24.3088 32.0609C24.3088 31.5781 24.7039 31.183 25.1867 31.183H29.6465C30.1293 31.183 30.5244 31.5781 30.5244 32.0609C30.5244 32.5438 30.1293 32.9388 29.6465 32.9388Z" fill="#D8A462"/>
<path d="M25.1869 92.1707C24.704 92.1707 24.309 91.7756 24.309 91.2928V86.8331C24.309 86.3502 24.704 85.9552 25.1869 85.9552C25.6697 85.9552 26.0648 86.3502 26.0648 86.8331V91.2928C26.0648 91.7756 25.6697 92.1707 25.1869 92.1707Z" fill="#D8A462"/>
<path d="M27.4167 89.9408H22.957C22.4742 89.9408 22.0791 89.5457 22.0791 89.0629C22.0791 88.5801 22.4742 88.185 22.957 88.185H27.4167C27.8996 88.185 28.2946 88.5801 28.2946 89.0629C28.2946 89.5457 27.8996 89.9408 27.4167 89.9408Z" fill="#D8A462"/>
<path d="M91.2051 92.5481C90.7223 92.5481 90.3272 92.153 90.3272 91.6702V87.2105C90.3272 86.7277 90.7223 86.3326 91.2051 86.3326C91.688 86.3326 92.083 86.7277 92.083 87.2105V91.6702C92.083 92.153 91.688 92.5481 91.2051 92.5481Z" fill="#D8A462"/>
<path d="M93.4349 90.3183H88.9752C88.4923 90.3183 88.0973 89.9232 88.0973 89.4404C88.0973 88.9575 88.4923 88.5625 88.9752 88.5625H93.4349C93.9178 88.5625 94.3128 88.9575 94.3128 89.4404C94.3128 89.9232 93.9178 90.3183 93.4349 90.3183Z" fill="#D8A462"/>
</svg>
