<svg width="120" height="120" viewBox="0 0 120 120" fill="none" xmlns="http://www.w3.org/2000/svg">
<path d="M92.9783 91.2575H27.0306C24.1247 91.2575 21.7544 88.8872 21.7544 85.9814V41.0329C21.7544 38.1271 24.1247 35.7568 27.0306 35.7568H92.9783C95.8842 35.7568 98.2545 38.1271 98.2545 41.0329V85.9814C98.2545 88.8872 95.8842 91.2575 92.9783 91.2575ZM27.0306 37.5126C25.0904 37.5126 23.5102 39.0928 23.5102 41.0329V85.9814C23.5102 87.9215 25.0904 89.5017 27.0306 89.5017H92.9783C94.9185 89.5017 96.4987 87.9215 96.4987 85.9814V41.0329C96.4987 39.0928 94.9185 37.5126 92.9783 37.5126H27.0306Z" fill="#36343A"/>
<path d="M96.762 84.4714H23.0185C22.5357 84.4714 22.1406 84.0763 22.1406 83.5935C22.1406 83.1106 22.5357 82.7156 23.0185 82.7156H96.762C97.2449 82.7156 97.6399 83.1106 97.6399 83.5935C97.6399 84.0763 97.2449 84.4714 96.762 84.4714Z" fill="#D8A462"/>
<path d="M75.5785 98.1841H44.4306C43.9478 98.1841 43.5527 97.7891 43.5527 97.3062V90.3708C43.5527 89.888 43.9478 89.4929 44.4306 89.4929H75.5785C76.0613 89.4929 76.4564 89.888 76.4564 90.3708V97.3062C76.4564 97.7891 76.0613 98.1841 75.5785 98.1841ZM45.3085 96.4283H74.7006V91.2487H45.3085V96.4283Z" fill="#36343A"/>
<path d="M83.6988 98.1841H36.301C35.8182 98.1841 35.4231 97.7891 35.4231 97.3062C35.4231 96.8234 35.8182 96.4283 36.301 96.4283H83.6988C84.1816 96.4283 84.5767 96.8234 84.5767 97.3062C84.5767 97.7891 84.1816 98.1841 83.6988 98.1841Z" fill="#36343A"/>
<path d="M29.55 52.0681C29.0672 52.0681 28.6721 51.673 28.6721 51.1902V45.6945C28.6721 45.2117 29.0672 44.8167 29.55 44.8167C30.0329 44.8167 30.4279 45.2117 30.4279 45.6945V51.1902C30.4279 51.673 30.0329 52.0681 29.55 52.0681Z" fill="#D8A462"/>
<path d="M35.52 54.298C35.0371 54.298 34.6421 53.9029 34.6421 53.4201V47.9244C34.6421 47.4416 35.0371 47.0465 35.52 47.0465C36.0028 47.0465 36.3979 47.4416 36.3979 47.9244V53.4201C36.3979 53.9029 36.0028 54.298 35.52 54.298Z" fill="#D8A462"/>
<path d="M41.5157 50.0666C41.0329 50.0666 40.6378 49.6715 40.6378 49.1887V43.693C40.6378 43.2102 41.0329 42.8151 41.5157 42.8151C41.9986 42.8151 42.3936 43.2102 42.3936 43.693V49.1887C42.3936 49.6715 41.9986 50.0666 41.5157 50.0666Z" fill="#D8A462"/>
<path d="M78.5632 47.3187C78.0804 47.3187 77.6853 46.9237 77.6853 46.4408V40.9452C77.6853 40.4623 78.0804 40.0673 78.5632 40.0673C79.046 40.0673 79.4411 40.4623 79.4411 40.9452V46.4408C79.4411 46.9237 79.046 47.3187 78.5632 47.3187Z" fill="#D8A462"/>
<path d="M84.7351 55.7816C84.2522 55.7816 83.8572 55.3865 83.8572 54.9037V49.4081C83.8572 48.9252 84.2522 48.5302 84.7351 48.5302C85.2179 48.5302 85.613 48.9252 85.613 49.4081V54.9037C85.613 55.3865 85.2179 55.7816 84.7351 55.7816Z" fill="#D8A462"/>
<path d="M90.3446 51.5502C89.8617 51.5502 89.4667 51.1551 89.4667 50.6723V45.1766C89.4667 44.6938 89.8617 44.2987 90.3446 44.2987C90.8274 44.2987 91.2225 44.6938 91.2225 45.1766V50.6723C91.2225 51.1551 90.8274 51.5502 90.3446 51.5502Z" fill="#D8A462"/>
<path d="M86.9298 34.0097C86.4469 34.0097 86.0519 33.6146 86.0519 33.1318V28.6721C86.0519 28.1892 86.4469 27.7942 86.9298 27.7942C87.4126 27.7942 87.8077 28.1892 87.8077 28.6721V33.1318C87.8077 33.6146 87.4126 34.0097 86.9298 34.0097Z" fill="#D8A462"/>
<path d="M89.1596 31.7799H84.6999C84.2171 31.7799 83.822 31.3848 83.822 30.902C83.822 30.4191 84.2171 30.0241 84.6999 30.0241H89.1596C89.6425 30.0241 90.0375 30.4191 90.0375 30.902C90.0375 31.3848 89.6425 31.7799 89.1596 31.7799Z" fill="#D8A462"/>
<path d="M71.5842 28.0224C71.1014 28.0224 70.7063 27.6274 70.7063 27.1445V22.6848C70.7063 22.202 71.1014 21.8069 71.5842 21.8069C72.067 21.8069 72.4621 22.202 72.4621 22.6848V27.1445C72.4621 27.6274 72.067 28.0224 71.5842 28.0224Z" fill="#D8A462"/>
<path d="M73.8139 25.8014H69.3542C68.8714 25.8014 68.4763 25.4063 68.4763 24.9235C68.4763 24.4406 68.8714 24.0456 69.3542 24.0456H73.8139C74.2968 24.0456 74.6918 24.4406 74.6918 24.9235C74.6918 25.4063 74.2968 25.8014 73.8139 25.8014Z" fill="#D8A462"/>
<path d="M33.3341 31.5868C32.8512 31.5868 32.4562 31.1917 32.4562 30.7089V26.2491C32.4562 25.7663 32.8512 25.3712 33.3341 25.3712C33.8169 25.3712 34.212 25.7663 34.212 26.2491V30.7089C34.212 31.1917 33.8169 31.5868 33.3341 31.5868Z" fill="#D8A462"/>
<path d="M35.5639 29.3569H31.1042C30.6214 29.3569 30.2263 28.9619 30.2263 28.479C30.2263 27.9962 30.6214 27.6011 31.1042 27.6011H35.5639C36.0468 27.6011 36.4418 27.9962 36.4418 28.479C36.4418 28.9619 36.0468 29.3569 35.5639 29.3569Z" fill="#D8A462"/>
<path d="M59.9256 23.273L48.4866 39.9268V67.5191V68.1863V69.0554L54.8074 71.4784H65.1579L71.5841 69.0554V68.1863V67.5191V39.9268L59.9256 23.273Z" fill="white"/>
<path d="M65.1578 72.3564H54.8074C54.7021 72.3564 54.5967 72.3389 54.4914 72.295L48.1705 69.8807C47.8281 69.7491 47.6086 69.4242 47.6086 69.0643V39.9268C47.6086 39.7512 47.6613 39.5757 47.7667 39.4264L59.2057 22.7815C59.3725 22.5444 59.6359 22.404 59.9256 22.404C60.1977 22.4391 60.4874 22.5444 60.6454 22.7815L72.3127 39.4264C72.4181 39.5757 72.4707 39.7512 72.4707 39.9268V69.0643C72.4707 69.433 72.2425 69.7578 71.9001 69.8895L65.4651 72.3037C65.3685 72.3389 65.2632 72.3564 65.1578 72.3564ZM54.9742 70.6006H64.9998L70.7149 68.4498V40.199L59.9343 24.8094L49.3644 40.1902V68.4498L54.9654 70.5918L54.9742 70.6006Z" fill="#36343A"/>
<path d="M68.441 78.4402H51.5327C51.0498 78.4402 50.6548 78.0451 50.6548 77.5623V76.0347C50.6548 75.8504 50.7162 75.6748 50.8216 75.5255L54.0961 70.9692C54.2629 70.741 54.5263 70.6005 54.8072 70.6005H65.1577C65.4386 70.6005 65.702 70.7322 65.8688 70.9692L69.1521 75.5255C69.2575 75.6748 69.3189 75.8591 69.3189 76.0347V77.5623C69.3189 78.0451 68.9239 78.4402 68.441 78.4402ZM52.4106 76.6844H67.5631V76.3156L64.7099 72.3475H55.2638L52.4194 76.3156V76.6844H52.4106Z" fill="#36343A"/>
<path d="M32.6402 73.9804C32.4471 73.9804 32.254 73.919 32.1047 73.7961C31.894 73.6293 31.7623 73.3747 31.7623 73.1025V61.7864C31.7623 61.523 31.8765 61.2772 32.0872 61.1104L47.9332 48.1263C48.1966 47.9068 48.5565 47.8629 48.8638 48.0122C49.1711 48.1614 49.3642 48.4687 49.3642 48.8023V69.0642C49.3642 69.468 49.0921 69.8192 48.7058 69.9158L32.8597 73.9541C32.7895 73.9717 32.7192 73.9804 32.6402 73.9804ZM33.5181 62.199V71.9701L47.6084 68.3794V50.6547L33.5181 62.199Z" fill="#36343A"/>
<path d="M87.7547 73.9804C87.6845 73.9804 87.6055 73.9804 87.5353 73.9541L71.6892 69.9158C71.3029 69.8192 71.0308 69.468 71.0308 69.0642V48.8023C71.0308 48.4599 71.2239 48.1526 71.5312 48.0122C71.8384 47.8629 72.1984 47.9068 72.4617 48.1263L88.3078 61.1104C88.5097 61.2772 88.6326 61.523 88.6326 61.7864V73.1025C88.6326 73.3747 88.5097 73.6293 88.2903 73.7961C88.1322 73.919 87.9479 73.9804 87.7547 73.9804ZM72.7866 68.3794L86.8768 71.9701V62.199L72.7866 50.6547V68.3794Z" fill="#36343A"/>
<path d="M66.2904 55.7816H54.2281C53.7453 55.7816 53.3502 55.3865 53.3502 54.9037V49.4081C53.3502 48.9252 53.7453 48.5302 54.2281 48.5302H66.2904C66.7733 48.5302 67.1683 48.9252 67.1683 49.4081V54.9037C67.1683 55.3865 66.7733 55.7816 66.2904 55.7816ZM55.106 54.0258H65.4125V50.2859H55.106V54.0258Z" fill="#D8A462"/>
<path d="M66.2904 45.0098H54.2281C53.7453 45.0098 53.3502 44.6148 53.3502 44.1319V40.9452C53.3502 40.7608 53.4117 40.5764 53.5258 40.4184L59.3112 32.6051C59.4692 32.3857 59.7238 32.254 59.9959 32.254C60.2681 32.254 60.5314 32.3681 60.6982 32.5788L66.9752 40.3921C67.0981 40.5501 67.1683 40.7432 67.1683 40.9452V44.1319C67.1683 44.6148 66.7733 45.0098 66.2904 45.0098ZM55.106 43.254H65.4125V41.2524L60.0398 34.5716L55.106 41.2349V43.254Z" fill="#D8A462"/>
</svg>
