<svg width="120" height="120" viewBox="0 0 120 120" fill="none" xmlns="http://www.w3.org/2000/svg">
<path d="M77.0707 98.8602H25.7838C22.9219 98.8602 20.5955 96.5338 20.5955 93.6718V25.74C20.5955 22.8781 22.9219 20.5516 25.7838 20.5516H77.0707C79.9326 20.5516 82.2591 22.8781 82.2591 25.74V93.6718C82.2591 96.5338 79.9326 98.8602 77.0707 98.8602ZM25.7838 22.3074C23.8876 22.3074 22.3513 23.8438 22.3513 25.74V93.6718C22.3513 95.5681 23.8876 97.1044 25.7838 97.1044H77.0707C78.967 97.1044 80.5033 95.5681 80.5033 93.6718V25.74C80.5033 23.8438 78.967 22.3074 77.0707 22.3074H25.7838Z" fill="#36343A"/>
<path d="M86.1785 77.809L77.7671 86.2204L90.1204 98.5737L98.5318 90.1623L86.1785 77.809Z" fill="white"/>
<path d="M90.1162 99.4572C89.8879 99.4572 89.6684 99.3694 89.4929 99.2026L77.1408 86.8505C76.7984 86.5082 76.7984 85.9551 77.1408 85.6127L85.5511 77.2024C85.8847 76.8688 86.4641 76.8688 86.7889 77.2024L99.141 89.5633C99.3078 89.7301 99.3956 89.9495 99.3956 90.1866C99.3956 90.4236 99.299 90.6431 99.141 90.8099L90.7307 99.2202C90.5551 99.3957 90.3356 99.4747 90.1074 99.4747L90.1162 99.4572ZM79.002 86.2272L90.1162 97.3414L97.2886 90.169L86.1744 79.0548L79.002 86.2272Z" fill="#36343A"/>
<path d="M94.6137 87.5696L87.5308 94.6525L88.7723 95.8941L95.8553 88.8111L94.6137 87.5696Z" fill="#D8A462"/>
<path d="M80.5032 31.9117H22.3424V33.6675H80.5032V31.9117Z" fill="#D8A462"/>
<path d="M94.023 72.2862C93.5402 72.2862 93.1451 71.8911 93.1451 71.4083V66.9486C93.1451 66.4657 93.5402 66.0707 94.023 66.0707C94.5059 66.0707 94.9009 66.4657 94.9009 66.9486V71.4083C94.9009 71.8911 94.5059 72.2862 94.023 72.2862Z" fill="#D8A462"/>
<path d="M96.2529 70.0564H91.7932C91.3103 70.0564 90.9153 69.6613 90.9153 69.1785C90.9153 68.6956 91.3103 68.3006 91.7932 68.3006H96.2529C96.7357 68.3006 97.1308 68.6956 97.1308 69.1785C97.1308 69.6613 96.7357 70.0564 96.2529 70.0564Z" fill="#D8A462"/>
<path d="M94.0228 64.1569C93.54 64.1569 93.1449 63.7619 93.1449 63.279V60.8824C93.1449 60.3995 93.54 60.0045 94.0228 60.0045C94.5056 60.0045 94.9007 60.3995 94.9007 60.8824V63.279C94.9007 63.7619 94.5056 64.1569 94.0228 64.1569Z" fill="#D8A462"/>
<path d="M94.0138 58.0906C93.9611 58.0906 93.8996 58.0906 93.847 58.0731C93.7943 58.0555 93.7328 58.0379 93.6802 58.0204C93.6275 57.994 93.5748 57.9677 93.5309 57.9414C93.487 57.9062 93.4343 57.8711 93.3992 57.8272C93.3202 57.7482 93.25 57.6517 93.2061 57.5463C93.1622 57.441 93.1359 57.3268 93.1359 57.2127C93.1359 57.0986 93.1622 56.9845 93.2061 56.8703C93.25 56.765 93.3202 56.6684 93.3992 56.5894C93.4343 56.5455 93.4782 56.5104 93.5309 56.4753C93.5748 56.4489 93.6275 56.4226 93.6802 56.3963C93.7328 56.3787 93.7943 56.3611 93.847 56.3524C94.0138 56.3173 94.1981 56.3348 94.3561 56.3963C94.4615 56.4402 94.5581 56.5104 94.6371 56.5894C94.7249 56.6684 94.7863 56.765 94.8302 56.8703C94.8741 56.9845 94.9004 57.0986 94.9004 57.2127C94.9004 57.3268 94.8741 57.441 94.8302 57.5463C94.7863 57.6517 94.7249 57.7482 94.6371 57.8272C94.4703 57.994 94.2508 58.0906 94.0138 58.0906Z" fill="#D8A462"/>
<path d="M94.0228 54.421C93.54 54.421 93.1449 54.0259 93.1449 53.5431V47.8455C93.1449 47.3626 93.54 46.9676 94.0228 46.9676C94.5056 46.9676 94.9007 47.3626 94.9007 47.8455V53.5431C94.9007 54.0259 94.5056 54.421 94.0228 54.421Z" fill="#D8A462"/>
<path d="M94.0228 45.045C93.54 45.045 93.1449 44.65 93.1449 44.1671V42.9732C93.1449 42.4904 93.54 42.0953 94.0228 42.0953C94.5056 42.0953 94.9007 42.4904 94.9007 42.9732V44.1671C94.9007 44.65 94.5056 45.045 94.0228 45.045Z" fill="#D8A462"/>
<path d="M33.5619 45.7737H27.7766C27.2937 45.7737 26.8987 45.3787 26.8987 44.8958V39.1104C26.8987 38.6276 27.2937 38.2325 27.7766 38.2325H33.5619C34.0448 38.2325 34.4398 38.6276 34.4398 39.1104V44.8958C34.4398 45.3787 34.0448 45.7737 33.5619 45.7737ZM28.6545 44.0179H32.684V39.9883H28.6545V44.0179Z" fill="#36343A"/>
<path d="M33.5619 57.1776H27.7766C27.2937 57.1776 26.8987 56.7825 26.8987 56.2997V50.5143C26.8987 50.0315 27.2937 49.6364 27.7766 49.6364H33.5619C34.0448 49.6364 34.4398 50.0315 34.4398 50.5143V56.2997C34.4398 56.7825 34.0448 57.1776 33.5619 57.1776ZM28.6545 55.4218H32.684V51.3922H28.6545V55.4218Z" fill="#36343A"/>
<path d="M33.5619 68.5727H27.7766C27.2937 68.5727 26.8987 68.1776 26.8987 67.6948V61.9095C26.8987 61.4266 27.2937 61.0316 27.7766 61.0316H33.5619C34.0448 61.0316 34.4398 61.4266 34.4398 61.9095V67.6948C34.4398 68.1776 34.0448 68.5727 33.5619 68.5727ZM28.6545 66.8169H32.684V62.7874H28.6545V66.8169Z" fill="#D8A462"/>
<path d="M33.5619 79.9766H27.7766C27.2937 79.9766 26.8987 79.5815 26.8987 79.0987V73.3134C26.8987 72.8305 27.2937 72.4355 27.7766 72.4355H33.5619C34.0448 72.4355 34.4398 72.8305 34.4398 73.3134V79.0987C34.4398 79.5815 34.0448 79.9766 33.5619 79.9766ZM28.6545 78.2208H32.684V74.1913H28.6545V78.2208Z" fill="#D8A462"/>
<path d="M33.5619 91.3717H27.7766C27.2937 91.3717 26.8987 90.9767 26.8987 90.4938V84.7085C26.8987 84.2256 27.2937 83.8306 27.7766 83.8306H33.5619C34.0448 83.8306 34.4398 84.2256 34.4398 84.7085V90.4938C34.4398 90.9767 34.0448 91.3717 33.5619 91.3717ZM28.6545 89.6159H32.684V85.5864H28.6545V89.6159Z" fill="#36343A"/>
<path d="M65.0873 29.0146C64.3323 29.0146 63.7178 28.4001 63.7178 27.6451C63.7178 26.8901 64.3323 26.2756 65.0873 26.2756C65.8423 26.2756 66.4568 26.8901 66.4568 27.6451C66.4568 28.4001 65.8423 29.0146 65.0873 29.0146ZM65.0873 27.2588C64.8766 27.2588 64.701 27.4344 64.701 27.6451C64.701 27.8558 64.8766 28.0314 65.0873 28.0314C65.298 28.0314 65.4736 27.8558 65.4736 27.6451C65.4736 27.4344 65.298 27.2588 65.0873 27.2588Z" fill="#D8A462"/>
<path d="M70.1788 29.0146C69.4239 29.0146 68.8093 28.4001 68.8093 27.6451C68.8093 26.8901 69.4239 26.2756 70.1788 26.2756C70.9338 26.2756 71.5484 26.8901 71.5484 27.6451C71.5484 28.4001 70.9338 29.0146 70.1788 29.0146ZM70.1788 27.2588C69.9682 27.2588 69.7926 27.4344 69.7926 27.6451C69.7926 27.8558 69.9682 28.0314 70.1788 28.0314C70.3895 28.0314 70.5651 27.8558 70.5651 27.6451C70.5651 27.4344 70.3895 27.2588 70.1788 27.2588Z" fill="#D8A462"/>
<path d="M75.271 29.0146C74.516 29.0146 73.9015 28.4001 73.9015 27.6451C73.9015 26.8901 74.516 26.2756 75.271 26.2756C76.026 26.2756 76.6405 26.8901 76.6405 27.6451C76.6405 28.4001 76.026 29.0146 75.271 29.0146ZM75.271 27.2588C75.0603 27.2588 74.8847 27.4344 74.8847 27.6451C74.8847 27.8558 75.0603 28.0314 75.271 28.0314C75.4817 28.0314 75.6573 27.8558 75.6573 27.6451C75.6573 27.4344 75.4817 27.2588 75.271 27.2588Z" fill="#D8A462"/>
<path d="M61.8214 86.2712C74.9317 86.2712 85.5598 75.6431 85.5598 62.5328C85.5598 49.4224 74.9317 38.7944 61.8214 38.7944C48.711 38.7944 38.083 49.4224 38.083 62.5328C38.083 75.6431 48.711 86.2712 61.8214 86.2712Z" fill="white"/>
<path d="M61.8212 87.1491C48.2489 87.1491 37.205 76.1051 37.205 62.5328C37.205 48.9605 48.2489 37.9165 61.8212 37.9165C75.3936 37.9165 86.4375 48.9605 86.4375 62.5328C86.4375 76.1051 75.3936 87.1491 61.8212 87.1491ZM61.8212 39.6811C49.2146 39.6811 38.9608 49.9349 38.9608 62.5416C38.9608 75.1482 49.2146 85.4021 61.8212 85.4021C74.4279 85.4021 84.6817 75.1482 84.6817 62.5416C84.6817 49.9349 74.4279 39.6811 61.8212 39.6811Z" fill="#36343A"/>
<path d="M59.9955 73.41C59.7673 73.41 59.5478 73.3222 59.3722 73.1554L50.8741 64.6573C50.5493 64.3325 50.5318 63.797 50.839 63.4546L55.3251 58.4067C55.4831 58.2223 55.7114 58.1169 55.9572 58.1082C56.203 58.1169 56.4312 58.196 56.6068 58.3628L60.9349 62.6908L67.9581 55.6676C68.3004 55.3252 68.8535 55.3252 69.1959 55.6676L73.0235 59.4953C73.1903 59.6621 73.2781 59.8815 73.2781 60.1186C73.2781 60.3556 73.1815 60.5751 73.0235 60.7419L60.6188 73.1466C60.4432 73.3222 60.2238 73.4012 59.9955 73.4012V73.41ZM52.7002 63.9989L59.9955 71.2942L71.1624 60.1273L68.5726 57.5375L61.5494 64.5607C61.3826 64.7275 61.1631 64.8153 60.9261 64.8153C60.689 64.8153 60.4696 64.7188 60.3028 64.5607L56.0099 60.2678L52.7002 63.9989Z" fill="#D8A462"/>
<path d="M81.4409 76.6113L76.6423 81.4098L79.6282 84.3957L84.4268 79.5972L81.4409 76.6113Z" fill="white"/>
<path d="M79.634 85.2879C79.4057 85.2879 79.1863 85.2001 79.0107 85.0333L76.0258 82.0485C75.859 81.8817 75.7712 81.6622 75.7712 81.4252C75.7712 81.1881 75.8678 80.9687 76.0258 80.8019L80.8192 76.0085C80.986 75.8417 81.2054 75.7539 81.4425 75.7539C81.6795 75.7539 81.899 75.8505 82.0658 76.0085L85.0506 78.9934C85.393 79.3358 85.393 79.8888 85.0506 80.2312L80.2573 85.0245C80.0817 85.2001 79.8623 85.2791 79.634 85.2791V85.2879ZM77.887 81.4252L79.634 83.1722L83.1895 79.6167L81.4425 77.8697L77.887 81.4252Z" fill="#36343A"/>
<path d="M61.8914 79.2743C52.6998 79.2743 45.2201 71.7946 45.2201 62.603C45.2201 53.4114 52.6998 45.9317 61.8914 45.9317C71.083 45.9317 78.5627 53.4114 78.5627 62.603C78.5627 71.7946 71.083 79.2743 61.8914 79.2743ZM61.8914 47.6875C53.6655 47.6875 46.9759 54.3771 46.9759 62.603C46.9759 70.8289 53.6655 77.5185 61.8914 77.5185C70.1173 77.5185 76.8069 70.8289 76.8069 62.603C76.8069 54.3771 70.1173 47.6875 61.8914 47.6875Z" fill="#36343A"/>
</svg>
