<svg width="120" height="120" viewBox="0 0 120 120" fill="none" xmlns="http://www.w3.org/2000/svg">
<path d="M90.0463 75.5168H29.322C28.8391 75.5168 28.4441 75.1217 28.4441 74.6389V41.2612C28.4441 38.645 30.5686 36.5117 33.1847 36.5117H86.1747C88.7909 36.5117 90.9154 38.6363 90.9154 41.2612V74.6389C90.9154 75.1217 90.5203 75.5168 90.0375 75.5168H90.0463ZM30.1999 73.761H89.1684V41.2612C89.1684 39.6107 87.8252 38.2675 86.1835 38.2675H33.1935C31.5431 38.2675 30.2087 39.6107 30.2087 41.2612V73.761H30.1999Z" fill="#36343A"/>
<path d="M97.0694 90.5201H22.2987C22.0003 90.5201 21.7193 90.3709 21.5613 90.1163C21.4033 89.8617 21.3769 89.5457 21.5086 89.2735L28.5318 74.279C28.6723 73.9717 28.9883 73.7698 29.3307 73.7698H90.055C90.3974 73.7698 90.7046 73.963 90.8539 74.279L97.8771 89.2735C98.0087 89.5457 97.9824 89.8617 97.8244 90.1163C97.6664 90.3709 97.3854 90.5201 97.0869 90.5201H97.0694ZM23.677 88.7643H95.6911L89.4931 75.5256H29.8838L23.6858 88.7643H23.677Z" fill="#36343A"/>
<path d="M97.0694 98.5617H22.2988C21.816 98.5617 21.4209 98.1667 21.4209 97.6838V89.8178C21.4209 89.335 21.816 88.9399 22.2988 88.9399H97.0694C97.5523 88.9399 97.9473 89.335 97.9473 89.8178V97.6838C97.9473 98.1667 97.5523 98.5617 97.0694 98.5617ZM23.1767 96.8059H96.1915V90.6957H23.1767V96.8059Z" fill="#36343A"/>
<path d="M64.35 94.6287H55.0267C54.5439 94.6287 54.1488 94.2337 54.1488 93.7508C54.1488 93.268 54.5439 92.8729 55.0267 92.8729H64.35C64.8328 92.8729 65.2279 93.268 65.2279 93.7508C65.2279 94.2337 64.8328 94.6287 64.35 94.6287Z" fill="#D8A462"/>
<path d="M74.3844 23.3432H39.0929C37.5214 23.3432 36.2485 24.6161 36.2485 26.1876V64.9819C36.2485 66.5534 37.5214 67.8263 39.0929 67.8263H80.2663C81.8378 67.8263 83.1107 66.5534 83.1107 64.9819V32.0783L74.3844 23.352V23.3432Z" fill="white"/>
<path d="M80.2751 68.7043H39.1017C37.0474 68.7043 35.3794 67.0363 35.3794 64.982V26.1876C35.3794 24.1334 37.0474 22.4654 39.1017 22.4654H74.3932C74.6303 22.4654 74.8497 22.5619 75.0165 22.72L83.7428 31.4463C83.9096 31.6131 83.9974 31.8325 83.9974 32.0696V64.9732C83.9974 67.0275 82.3294 68.6955 80.2751 68.6955V68.7043ZM39.1017 24.2212C38.0219 24.2212 37.1352 25.0991 37.1352 26.1876V64.982C37.1352 66.0618 38.0131 66.9485 39.1017 66.9485H80.2751C81.355 66.9485 82.2416 66.0706 82.2416 64.982V32.4383L74.0245 24.2212H39.1017Z" fill="#36343A"/>
<path d="M83.137 33.3601H74.4107C73.9279 33.3601 73.5328 32.965 73.5328 32.4822V23.3433C73.5328 22.8604 73.9279 22.4654 74.4107 22.4654C74.8936 22.4654 75.2886 22.8604 75.2886 23.3433V31.6043H83.137C83.6199 31.6043 84.0149 31.9993 84.0149 32.4822C84.0149 32.965 83.6199 33.3601 83.137 33.3601Z" fill="#36343A"/>
<path d="M50.8131 56.2118C50.5849 56.2118 50.3654 56.124 50.1898 55.9572L42.9033 48.6707C42.5609 48.3283 42.5609 47.7752 42.9033 47.4328L50.2162 40.1199C50.5585 39.7775 51.1116 39.7775 51.454 40.1199C51.7964 40.4623 51.7964 41.0154 51.454 41.3578L44.7644 48.0473L51.4277 54.7106C51.7701 55.053 51.7701 55.606 51.4277 55.9484C51.2521 56.124 51.0326 56.203 50.8044 56.203L50.8131 56.2118Z" fill="#D8A462"/>
<path d="M68.8536 56.2118C68.6253 56.2118 68.4059 56.124 68.2303 55.9572C67.8879 55.6148 67.8879 55.0618 68.2303 54.7194L74.9199 48.0298L68.2566 41.3665C67.9143 41.0242 67.9143 40.4711 68.2566 40.1287C68.599 39.7863 69.1521 39.7863 69.4945 40.1287L76.781 47.4153C77.1234 47.7576 77.1234 48.3107 76.781 48.6531L69.4681 55.966C69.2926 56.1416 69.0731 56.2206 68.8448 56.2206L68.8536 56.2118Z" fill="#D8A462"/>
<path d="M55.0445 59.9605C54.9303 59.9605 54.8162 59.9341 54.7021 59.8902C54.2543 59.7059 54.0436 59.1879 54.2368 58.7402L63.5601 36.6435C63.7444 36.1957 64.2624 35.9851 64.7101 36.1782C65.1578 36.3626 65.3685 36.8805 65.1754 37.3282L55.8521 59.425C55.7117 59.7586 55.3868 59.9605 55.0445 59.9605Z" fill="#D8A462"/>
<path d="M29.3392 84.9455C29.538 84.9455 29.6991 84.7844 29.6991 84.5856C29.6991 84.3868 29.538 84.2256 29.3392 84.2256C29.1404 84.2256 28.9792 84.3868 28.9792 84.5856C28.9792 84.7844 29.1404 84.9455 29.3392 84.9455Z" fill="white"/>
<path d="M29.3394 85.8146C28.6546 85.8146 28.1016 85.2616 28.1016 84.5768C28.1016 83.892 28.6546 83.339 29.3394 83.339C30.0242 83.339 30.5772 83.892 30.5772 84.5768C30.5772 85.2616 30.0242 85.8146 29.3394 85.8146ZM29.3394 84.0588C29.0497 84.0588 28.8214 84.2959 28.8214 84.5768C28.8214 84.8577 29.0585 85.0948 29.3394 85.0948C29.6203 85.0948 29.8574 84.8577 29.8574 84.5768C29.8574 84.2959 29.6203 84.0588 29.3394 84.0588Z" fill="#36343A"/>
<path d="M34.8529 84.9455C35.0517 84.9455 35.2129 84.7844 35.2129 84.5856C35.2129 84.3868 35.0517 84.2256 34.8529 84.2256C34.6541 84.2256 34.493 84.3868 34.493 84.5856C34.493 84.7844 34.6541 84.9455 34.8529 84.9455Z" fill="white"/>
<path d="M34.8529 85.8146C34.1681 85.8146 33.6151 85.2616 33.6151 84.5768C33.6151 83.892 34.1681 83.339 34.8529 83.339C35.5376 83.339 36.0907 83.892 36.0907 84.5768C36.0907 85.2616 35.5376 85.8146 34.8529 85.8146ZM34.8529 84.0588C34.5632 84.0588 34.3349 84.2959 34.3349 84.5768C34.3349 84.8577 34.572 85.0948 34.8529 85.0948C35.1338 85.0948 35.3708 84.8577 35.3708 84.5768C35.3708 84.2959 35.1338 84.0588 34.8529 84.0588Z" fill="#36343A"/>
<path d="M40.375 84.9455C40.5737 84.9455 40.7349 84.7844 40.7349 84.5856C40.7349 84.3868 40.5737 84.2256 40.375 84.2256C40.1762 84.2256 40.015 84.3868 40.015 84.5856C40.015 84.7844 40.1762 84.9455 40.375 84.9455Z" fill="white"/>
<path d="M40.3749 85.8146C39.6901 85.8146 39.137 85.2616 39.137 84.5768C39.137 83.892 39.6901 83.339 40.3749 83.339C41.0596 83.339 41.6127 83.892 41.6127 84.5768C41.6127 85.2616 41.0596 85.8146 40.3749 85.8146ZM40.3749 84.0588C40.0852 84.0588 39.8569 84.2959 39.8569 84.5768C39.8569 84.8577 40.0939 85.0948 40.3749 85.0948C40.6558 85.0948 40.8928 84.8577 40.8928 84.5768C40.8928 84.2959 40.6558 84.0588 40.3749 84.0588Z" fill="#36343A"/>
<path d="M45.8878 84.9455C46.0866 84.9455 46.2478 84.7844 46.2478 84.5856C46.2478 84.3868 46.0866 84.2256 45.8878 84.2256C45.689 84.2256 45.5279 84.3868 45.5279 84.5856C45.5279 84.7844 45.689 84.9455 45.8878 84.9455Z" fill="white"/>
<path d="M45.8879 85.8146C45.2032 85.8146 44.6501 85.2616 44.6501 84.5768C44.6501 83.892 45.2032 83.339 45.8879 83.339C46.5727 83.339 47.1258 83.892 47.1258 84.5768C47.1258 85.2616 46.5727 85.8146 45.8879 85.8146ZM45.8879 84.0588C45.5982 84.0588 45.37 84.2959 45.37 84.5768C45.37 84.8577 45.607 85.0948 45.8879 85.0948C46.1689 85.0948 46.4059 84.8577 46.4059 84.5768C46.4059 84.2959 46.1689 84.0588 45.8879 84.0588Z" fill="#D8A462"/>
<path d="M51.4099 84.9455C51.6087 84.9455 51.7698 84.7844 51.7698 84.5856C51.7698 84.3868 51.6087 84.2256 51.4099 84.2256C51.2111 84.2256 51.0499 84.3868 51.0499 84.5856C51.0499 84.7844 51.2111 84.9455 51.4099 84.9455Z" fill="white"/>
<path d="M51.4099 85.8146C50.7251 85.8146 50.1721 85.2616 50.1721 84.5768C50.1721 83.892 50.7251 83.339 51.4099 83.339C52.0947 83.339 52.6477 83.892 52.6477 84.5768C52.6477 85.2616 52.0947 85.8146 51.4099 85.8146ZM51.4099 84.0588C51.1202 84.0588 50.8919 84.2959 50.8919 84.5768C50.8919 84.8577 51.129 85.0948 51.4099 85.0948C51.6908 85.0948 51.9279 84.8577 51.9279 84.5768C51.9279 84.2959 51.6908 84.0588 51.4099 84.0588Z" fill="#36343A"/>
<path d="M56.9227 84.9455C57.1215 84.9455 57.2827 84.7844 57.2827 84.5856C57.2827 84.3868 57.1215 84.2256 56.9227 84.2256C56.724 84.2256 56.5628 84.3868 56.5628 84.5856C56.5628 84.7844 56.724 84.9455 56.9227 84.9455Z" fill="white"/>
<path d="M56.923 85.8146C56.2382 85.8146 55.6851 85.2616 55.6851 84.5768C55.6851 83.892 56.2382 83.339 56.923 83.339C57.6077 83.339 58.1608 83.892 58.1608 84.5768C58.1608 85.2616 57.6077 85.8146 56.923 85.8146ZM56.923 84.0588C56.6332 84.0588 56.405 84.2959 56.405 84.5768C56.405 84.8577 56.642 85.0948 56.923 85.0948C57.2039 85.0948 57.4409 84.8577 57.4409 84.5768C57.4409 84.2959 57.2039 84.0588 56.923 84.0588Z" fill="#36343A"/>
<path d="M62.4448 84.9455C62.6436 84.9455 62.8047 84.7844 62.8047 84.5856C62.8047 84.3868 62.6436 84.2256 62.4448 84.2256C62.246 84.2256 62.0848 84.3868 62.0848 84.5856C62.0848 84.7844 62.246 84.9455 62.4448 84.9455Z" fill="white"/>
<path d="M62.4449 85.8146C61.7602 85.8146 61.2071 85.2616 61.2071 84.5768C61.2071 83.892 61.7602 83.339 62.4449 83.339C63.1297 83.339 63.6828 83.892 63.6828 84.5768C63.6828 85.2616 63.1297 85.8146 62.4449 85.8146ZM62.4449 84.0588C62.1552 84.0588 61.927 84.2959 61.927 84.5768C61.927 84.8577 62.164 85.0948 62.4449 85.0948C62.7259 85.0948 62.9629 84.8577 62.9629 84.5768C62.9629 84.2959 62.7259 84.0588 62.4449 84.0588Z" fill="#36343A"/>
<path d="M67.9585 84.9455C68.1573 84.9455 68.3184 84.7844 68.3184 84.5856C68.3184 84.3868 68.1573 84.2256 67.9585 84.2256C67.7597 84.2256 67.5986 84.3868 67.5986 84.5856C67.5986 84.7844 67.7597 84.9455 67.9585 84.9455Z" fill="white"/>
<path d="M67.9584 85.8146C67.2737 85.8146 66.7206 85.2616 66.7206 84.5768C66.7206 83.892 67.2737 83.339 67.9584 83.339C68.6432 83.339 69.1963 83.892 69.1963 84.5768C69.1963 85.2616 68.6432 85.8146 67.9584 85.8146ZM67.9584 84.0588C67.6687 84.0588 67.4405 84.2959 67.4405 84.5768C67.4405 84.8577 67.6775 85.0948 67.9584 85.0948C68.2393 85.0948 68.4764 84.8577 68.4764 84.5768C68.4764 84.2959 68.2393 84.0588 67.9584 84.0588Z" fill="#36343A"/>
<path d="M73.4805 84.9455C73.6793 84.9455 73.8405 84.7844 73.8405 84.5856C73.8405 84.3868 73.6793 84.2256 73.4805 84.2256C73.2818 84.2256 73.1206 84.3868 73.1206 84.5856C73.1206 84.7844 73.2818 84.9455 73.4805 84.9455Z" fill="white"/>
<path d="M73.4804 85.8146C72.7956 85.8146 72.2426 85.2616 72.2426 84.5768C72.2426 83.892 72.7956 83.339 73.4804 83.339C74.1651 83.339 74.7182 83.892 74.7182 84.5768C74.7182 85.2616 74.1651 85.8146 73.4804 85.8146ZM73.4804 84.0588C73.1907 84.0588 72.9624 84.2959 72.9624 84.5768C72.9624 84.8577 73.1995 85.0948 73.4804 85.0948C73.7613 85.0948 73.9984 84.8577 73.9984 84.5768C73.9984 84.2959 73.7613 84.0588 73.4804 84.0588Z" fill="#36343A"/>
<path d="M78.9934 84.9455C79.1922 84.9455 79.3534 84.7844 79.3534 84.5856C79.3534 84.3868 79.1922 84.2256 78.9934 84.2256C78.7946 84.2256 78.6335 84.3868 78.6335 84.5856C78.6335 84.7844 78.7946 84.9455 78.9934 84.9455Z" fill="white"/>
<path d="M78.9935 85.8146C78.3087 85.8146 77.7556 85.2616 77.7556 84.5768C77.7556 83.892 78.3087 83.339 78.9935 83.339C79.6782 83.339 80.2313 83.892 80.2313 84.5768C80.2313 85.2616 79.6782 85.8146 78.9935 85.8146ZM78.9935 84.0588C78.7037 84.0588 78.4755 84.2959 78.4755 84.5768C78.4755 84.8577 78.7125 85.0948 78.9935 85.0948C79.2744 85.0948 79.5114 84.8577 79.5114 84.5768C79.5114 84.2959 79.2744 84.0588 78.9935 84.0588Z" fill="#D8A462"/>
<path d="M84.5155 84.9455C84.7142 84.9455 84.8754 84.7844 84.8754 84.5856C84.8754 84.3868 84.7142 84.2256 84.5155 84.2256C84.3167 84.2256 84.1555 84.3868 84.1555 84.5856C84.1555 84.7844 84.3167 84.9455 84.5155 84.9455Z" fill="white"/>
<path d="M84.5154 85.8146C83.8307 85.8146 83.2776 85.2616 83.2776 84.5768C83.2776 83.892 83.8307 83.339 84.5154 83.339C85.2002 83.339 85.7533 83.892 85.7533 84.5768C85.7533 85.2616 85.2002 85.8146 84.5154 85.8146ZM84.5154 84.0588C84.2257 84.0588 83.9975 84.2959 83.9975 84.5768C83.9975 84.8577 84.2345 85.0948 84.5154 85.0948C84.7963 85.0948 85.0334 84.8577 85.0334 84.5768C85.0334 84.2959 84.7963 84.0588 84.5154 84.0588Z" fill="#D8A462"/>
<path d="M90.0287 84.9455C90.2275 84.9455 90.3886 84.7844 90.3886 84.5856C90.3886 84.3868 90.2275 84.2256 90.0287 84.2256C89.8299 84.2256 89.6688 84.3868 89.6688 84.5856C89.6688 84.7844 89.8299 84.9455 90.0287 84.9455Z" fill="white"/>
<path d="M90.0289 85.8146C89.3442 85.8146 88.7911 85.2616 88.7911 84.5768C88.7911 83.892 89.3442 83.339 90.0289 83.339C90.7137 83.339 91.2668 83.892 91.2668 84.5768C91.2668 85.2616 90.7137 85.8146 90.0289 85.8146ZM90.0289 84.0588C89.7392 84.0588 89.511 84.2959 89.511 84.5768C89.511 84.8577 89.748 85.0948 90.0289 85.0948C90.3098 85.0948 90.5469 84.8577 90.5469 84.5768C90.5469 84.2959 90.3098 84.0588 90.0289 84.0588Z" fill="#D8A462"/>
<path d="M30.9376 80.2137C31.1364 80.2137 31.2976 80.0525 31.2976 79.8537C31.2976 79.6549 31.1364 79.4938 30.9376 79.4938C30.7388 79.4938 30.5777 79.6549 30.5777 79.8537C30.5777 80.0525 30.7388 80.2137 30.9376 80.2137Z" fill="white"/>
<path d="M30.9375 81.0827C30.2527 81.0827 29.6996 80.5296 29.6996 79.8449C29.6996 79.1601 30.2527 78.6071 30.9375 78.6071C31.6222 78.6071 32.1753 79.1601 32.1753 79.8449C32.1753 80.5296 31.6222 81.0827 30.9375 81.0827ZM30.9375 79.3269C30.6478 79.3269 30.4195 79.5639 30.4195 79.8449C30.4195 80.1258 30.6566 80.3629 30.9375 80.3629C31.2184 80.3629 31.4554 80.1258 31.4554 79.8449C31.4554 79.5639 31.2184 79.3269 30.9375 79.3269Z" fill="#D8A462"/>
<path d="M35.7308 80.2137C35.9296 80.2137 36.0907 80.0525 36.0907 79.8537C36.0907 79.6549 35.9296 79.4938 35.7308 79.4938C35.532 79.4938 35.3708 79.6549 35.3708 79.8537C35.3708 80.0525 35.532 80.2137 35.7308 80.2137Z" fill="white"/>
<path d="M35.7308 81.0827C35.046 81.0827 34.4929 80.5296 34.4929 79.8449C34.4929 79.1601 35.046 78.6071 35.7308 78.6071C36.4155 78.6071 36.9686 79.1601 36.9686 79.8449C36.9686 80.5296 36.4155 81.0827 35.7308 81.0827ZM35.7308 79.3269C35.4411 79.3269 35.2128 79.5639 35.2128 79.8449C35.2128 80.1258 35.4498 80.3629 35.7308 80.3629C36.0117 80.3629 36.2487 80.1258 36.2487 79.8449C36.2487 79.5639 36.0117 79.3269 35.7308 79.3269Z" fill="#36343A"/>
<path d="M40.5239 80.2137C40.7227 80.2137 40.8838 80.0525 40.8838 79.8537C40.8838 79.6549 40.7227 79.4938 40.5239 79.4938C40.3251 79.4938 40.1639 79.6549 40.1639 79.8537C40.1639 80.0525 40.3251 80.2137 40.5239 80.2137Z" fill="white"/>
<path d="M40.524 81.0827C39.8393 81.0827 39.2862 80.5296 39.2862 79.8449C39.2862 79.1601 39.8393 78.6071 40.524 78.6071C41.2088 78.6071 41.7619 79.1601 41.7619 79.8449C41.7619 80.5296 41.2088 81.0827 40.524 81.0827ZM40.524 79.3269C40.2343 79.3269 40.0061 79.5639 40.0061 79.8449C40.0061 80.1258 40.2431 80.3629 40.524 80.3629C40.805 80.3629 41.042 80.1258 41.042 79.8449C41.042 79.5639 40.805 79.3269 40.524 79.3269Z" fill="#36343A"/>
<path d="M45.3083 80.2137C45.5071 80.2137 45.6682 80.0525 45.6682 79.8537C45.6682 79.6549 45.5071 79.4938 45.3083 79.4938C45.1095 79.4938 44.9484 79.6549 44.9484 79.8537C44.9484 80.0525 45.1095 80.2137 45.3083 80.2137Z" fill="white"/>
<path d="M45.3083 81.0827C44.6236 81.0827 44.0705 80.5296 44.0705 79.8449C44.0705 79.1601 44.6236 78.6071 45.3083 78.6071C45.9931 78.6071 46.5462 79.1601 46.5462 79.8449C46.5462 80.5296 45.9931 81.0827 45.3083 81.0827ZM45.3083 79.3269C45.0186 79.3269 44.7904 79.5639 44.7904 79.8449C44.7904 80.1258 45.0274 80.3629 45.3083 80.3629C45.5893 80.3629 45.8263 80.1258 45.8263 79.8449C45.8263 79.5639 45.5893 79.3269 45.3083 79.3269Z" fill="#36343A"/>
<path d="M50.1015 80.2137C50.3002 80.2137 50.4614 80.0525 50.4614 79.8537C50.4614 79.6549 50.3002 79.4938 50.1015 79.4938C49.9027 79.4938 49.7415 79.6549 49.7415 79.8537C49.7415 80.0525 49.9027 80.2137 50.1015 80.2137Z" fill="white"/>
<path d="M50.1017 81.0827C49.4169 81.0827 48.8638 80.5296 48.8638 79.8449C48.8638 79.1601 49.4169 78.6071 50.1017 78.6071C50.7864 78.6071 51.3395 79.1601 51.3395 79.8449C51.3395 80.5296 50.7864 81.0827 50.1017 81.0827ZM50.1017 79.3269C49.812 79.3269 49.5837 79.5639 49.5837 79.8449C49.5837 80.1258 49.8207 80.3629 50.1017 80.3629C50.3826 80.3629 50.6196 80.1258 50.6196 79.8449C50.6196 79.5639 50.3826 79.3269 50.1017 79.3269Z" fill="#D8A462"/>
<path d="M54.8954 80.2137C55.0942 80.2137 55.2553 80.0525 55.2553 79.8537C55.2553 79.6549 55.0942 79.4938 54.8954 79.4938C54.6966 79.4938 54.5355 79.6549 54.5355 79.8537C54.5355 80.0525 54.6966 80.2137 54.8954 80.2137Z" fill="white"/>
<path d="M54.8954 81.0827C54.2106 81.0827 53.6575 80.5296 53.6575 79.8449C53.6575 79.1601 54.2106 78.6071 54.8954 78.6071C55.5801 78.6071 56.1332 79.1601 56.1332 79.8449C56.1332 80.5296 55.5801 81.0827 54.8954 81.0827ZM54.8954 79.3269C54.6057 79.3269 54.3774 79.5639 54.3774 79.8449C54.3774 80.1258 54.6144 80.3629 54.8954 80.3629C55.1763 80.3629 55.4133 80.1258 55.4133 79.8449C55.4133 79.5639 55.1763 79.3269 54.8954 79.3269Z" fill="#36343A"/>
<path d="M59.6885 80.2137C59.8873 80.2137 60.0485 80.0525 60.0485 79.8537C60.0485 79.6549 59.8873 79.4938 59.6885 79.4938C59.4898 79.4938 59.3286 79.6549 59.3286 79.8537C59.3286 80.0525 59.4898 80.2137 59.6885 80.2137Z" fill="white"/>
<path d="M59.6886 81.0827C59.0039 81.0827 58.4508 80.5296 58.4508 79.8449C58.4508 79.1601 59.0039 78.6071 59.6886 78.6071C60.3734 78.6071 60.9265 79.1601 60.9265 79.8449C60.9265 80.5296 60.3734 81.0827 59.6886 81.0827ZM59.6886 79.3269C59.3989 79.3269 59.1707 79.5639 59.1707 79.8449C59.1707 80.1258 59.4077 80.3629 59.6886 80.3629C59.9696 80.3629 60.2066 80.1258 60.2066 79.8449C60.2066 79.5639 59.9696 79.3269 59.6886 79.3269Z" fill="#36343A"/>
<path d="M64.473 80.2137C64.6718 80.2137 64.8329 80.0525 64.8329 79.8537C64.8329 79.6549 64.6718 79.4938 64.473 79.4938C64.2742 79.4938 64.113 79.6549 64.113 79.8537C64.113 80.0525 64.2742 80.2137 64.473 80.2137Z" fill="white"/>
<path d="M64.4729 81.0827C63.7882 81.0827 63.2351 80.5296 63.2351 79.8449C63.2351 79.1601 63.7882 78.6071 64.4729 78.6071C65.1577 78.6071 65.7108 79.1601 65.7108 79.8449C65.7108 80.5296 65.1577 81.0827 64.4729 81.0827ZM64.4729 79.3269C64.1832 79.3269 63.955 79.5639 63.955 79.8449C63.955 80.1258 64.192 80.3629 64.4729 80.3629C64.7539 80.3629 64.9909 80.1258 64.9909 79.8449C64.9909 79.5639 64.7539 79.3269 64.4729 79.3269Z" fill="#36343A"/>
<path d="M69.2661 80.2137C69.4649 80.2137 69.626 80.0525 69.626 79.8537C69.626 79.6549 69.4649 79.4938 69.2661 79.4938C69.0673 79.4938 68.9061 79.6549 68.9061 79.8537C68.9061 80.0525 69.0673 80.2137 69.2661 80.2137Z" fill="white"/>
<path d="M69.2662 81.0827C68.5815 81.0827 68.0284 80.5296 68.0284 79.8449C68.0284 79.1601 68.5815 78.6071 69.2662 78.6071C69.951 78.6071 70.5041 79.1601 70.5041 79.8449C70.5041 80.5296 69.951 81.0827 69.2662 81.0827ZM69.2662 79.3269C68.9765 79.3269 68.7483 79.5639 68.7483 79.8449C68.7483 80.1258 68.9853 80.3629 69.2662 80.3629C69.5471 80.3629 69.7842 80.1258 69.7842 79.8449C69.7842 79.5639 69.5471 79.3269 69.2662 79.3269Z" fill="#D8A462"/>
<path d="M74.0597 80.2137C74.2585 80.2137 74.4196 80.0525 74.4196 79.8537C74.4196 79.6549 74.2585 79.4938 74.0597 79.4938C73.8609 79.4938 73.6998 79.6549 73.6998 79.8537C73.6998 80.0525 73.8609 80.2137 74.0597 80.2137Z" fill="white"/>
<path d="M74.0596 81.0827C73.3748 81.0827 72.8217 80.5296 72.8217 79.8449C72.8217 79.1601 73.3748 78.6071 74.0596 78.6071C74.7443 78.6071 75.2974 79.1601 75.2974 79.8449C75.2974 80.5296 74.7443 81.0827 74.0596 81.0827ZM74.0596 79.3269C73.7699 79.3269 73.5416 79.5639 73.5416 79.8449C73.5416 80.1258 73.7786 80.3629 74.0596 80.3629C74.3405 80.3629 74.5775 80.1258 74.5775 79.8449C74.5775 79.5639 74.3405 79.3269 74.0596 79.3269Z" fill="#36343A"/>
<path d="M78.8529 80.2137C79.0516 80.2137 79.2128 80.0525 79.2128 79.8537C79.2128 79.6549 79.0516 79.4938 78.8529 79.4938C78.6541 79.4938 78.4929 79.6549 78.4929 79.8537C78.4929 80.0525 78.6541 80.2137 78.8529 80.2137Z" fill="white"/>
<path d="M78.8528 81.0827C78.1681 81.0827 77.615 80.5296 77.615 79.8449C77.615 79.1601 78.1681 78.6071 78.8528 78.6071C79.5376 78.6071 80.0907 79.1601 80.0907 79.8449C80.0907 80.5296 79.5376 81.0827 78.8528 81.0827ZM78.8528 79.3269C78.5631 79.3269 78.3349 79.5639 78.3349 79.8449C78.3349 80.1258 78.5719 80.3629 78.8528 80.3629C79.1338 80.3629 79.3708 80.1258 79.3708 79.8449C79.3708 79.5639 79.1338 79.3269 78.8528 79.3269Z" fill="#36343A"/>
<path d="M83.6376 80.2137C83.8364 80.2137 83.9975 80.0525 83.9975 79.8537C83.9975 79.6549 83.8364 79.4938 83.6376 79.4938C83.4388 79.4938 83.2776 79.6549 83.2776 79.8537C83.2776 80.0525 83.4388 80.2137 83.6376 80.2137Z" fill="white"/>
<path d="M83.6376 81.0827C82.9528 81.0827 82.3997 80.5296 82.3997 79.8449C82.3997 79.1601 82.9528 78.6071 83.6376 78.6071C84.3223 78.6071 84.8754 79.1601 84.8754 79.8449C84.8754 80.5296 84.3223 81.0827 83.6376 81.0827ZM83.6376 79.3269C83.3478 79.3269 83.1196 79.5639 83.1196 79.8449C83.1196 80.1258 83.3566 80.3629 83.6376 80.3629C83.9185 80.3629 84.1555 80.1258 84.1555 79.8449C84.1555 79.5639 83.9185 79.3269 83.6376 79.3269Z" fill="#36343A"/>
<path d="M88.4307 80.2137C88.6295 80.2137 88.7907 80.0525 88.7907 79.8537C88.7907 79.6549 88.6295 79.4938 88.4307 79.4938C88.232 79.4938 88.0708 79.6549 88.0708 79.8537C88.0708 80.0525 88.232 80.2137 88.4307 80.2137Z" fill="white"/>
<path d="M88.4308 81.0827C87.7461 81.0827 87.193 80.5296 87.193 79.8449C87.193 79.1601 87.7461 78.6071 88.4308 78.6071C89.1156 78.6071 89.6687 79.1601 89.6687 79.8449C89.6687 80.5296 89.1156 81.0827 88.4308 81.0827ZM88.4308 79.3269C88.1411 79.3269 87.9129 79.5639 87.9129 79.8449C87.9129 80.1258 88.1499 80.3629 88.4308 80.3629C88.7118 80.3629 88.9488 80.1258 88.9488 79.8449C88.9488 79.5639 88.7118 79.3269 88.4308 79.3269Z" fill="#D8A462"/>
<path d="M95.4717 27.645C94.9889 27.645 94.5938 27.2499 94.5938 26.7671V22.3074C94.5938 21.8245 94.9889 21.4295 95.4717 21.4295C95.9546 21.4295 96.3496 21.8245 96.3496 22.3074V26.7671C96.3496 27.2499 95.9546 27.645 95.4717 27.645Z" fill="#D8A462"/>
<path d="M97.7015 25.4152H93.2418C92.7589 25.4152 92.3639 25.0201 92.3639 24.5373C92.3639 24.0544 92.7589 23.6594 93.2418 23.6594H97.7015C98.1844 23.6594 98.5794 24.0544 98.5794 24.5373C98.5794 25.0201 98.1844 25.4152 97.7015 25.4152Z" fill="#D8A462"/>
<path d="M95.4718 33.7201C94.9889 33.7201 94.5939 33.3251 94.5939 32.8422V30.4456C94.5939 29.9627 94.9889 29.5677 95.4718 29.5677C95.9546 29.5677 96.3497 29.9627 96.3497 30.4456V32.8422C96.3497 33.3251 95.9546 33.7201 95.4718 33.7201Z" fill="#D8A462"/>
<path d="M95.4718 37.3897C95.3576 37.3897 95.2435 37.3721 95.1382 37.3282C95.024 37.2843 94.9275 37.2141 94.8485 37.1351C94.7695 37.056 94.708 36.9595 94.6641 36.8454C94.6202 36.74 94.5939 36.6259 94.5939 36.5118C94.5939 36.3976 94.6202 36.2835 94.6641 36.1782C94.708 36.0728 94.7695 35.9762 94.8485 35.8972C94.9275 35.8094 95.024 35.748 95.1382 35.7041C95.2962 35.6338 95.4718 35.6163 95.6386 35.6514C95.7 35.6514 95.7527 35.6777 95.8054 35.7041C95.858 35.7216 95.9107 35.748 95.9546 35.7831C96.0073 35.8182 96.0512 35.8533 96.0951 35.8972C96.1741 35.9762 96.2355 36.0728 96.2794 36.1782C96.3233 36.2835 96.3497 36.3976 96.3497 36.5118C96.3497 36.6259 96.3233 36.74 96.2794 36.8454C96.2355 36.9595 96.1741 37.056 96.0951 37.1351C96.0512 37.179 96.0073 37.2141 95.9546 37.2404C95.9107 37.2755 95.858 37.3019 95.8054 37.3282C95.7527 37.3458 95.7 37.3633 95.6386 37.3721C95.5859 37.3897 95.5244 37.3897 95.4718 37.3897Z" fill="#D8A462"/>
<path d="M95.4718 46.7569C94.9889 46.7569 94.5939 46.3618 94.5939 45.879V40.1814C94.5939 39.6986 94.9889 39.3035 95.4718 39.3035C95.9546 39.3035 96.3497 39.6986 96.3497 40.1814V45.879C96.3497 46.3618 95.9546 46.7569 95.4718 46.7569Z" fill="#D8A462"/>
<path d="M95.4718 51.6293C94.9889 51.6293 94.5939 51.2342 94.5939 50.7514V49.5574C94.5939 49.0746 94.9889 48.6795 95.4718 48.6795C95.9546 48.6795 96.3497 49.0746 96.3497 49.5574V50.7514C96.3497 51.2342 95.9546 51.6293 95.4718 51.6293Z" fill="#D8A462"/>
<path d="M24.713 37.7145C24.2301 37.7145 23.8351 37.3195 23.8351 36.8366V32.3769C23.8351 31.894 24.2301 31.499 24.713 31.499C25.1958 31.499 25.5909 31.894 25.5909 32.3769V36.8366C25.5909 37.3195 25.1958 37.7145 24.713 37.7145Z" fill="#D8A462"/>
<path d="M26.9429 35.4847H22.4831C22.0003 35.4847 21.6052 35.0896 21.6052 34.6068C21.6052 34.1239 22.0003 33.7289 22.4831 33.7289H26.9429C27.4257 33.7289 27.8207 34.1239 27.8207 34.6068C27.8207 35.0896 27.4257 35.4847 26.9429 35.4847Z" fill="#D8A462"/>
<path d="M24.713 48.6093C24.2301 48.6093 23.8351 48.2142 23.8351 47.7314V45.3347C23.8351 44.8518 24.2301 44.4568 24.713 44.4568C25.1958 44.4568 25.5909 44.8518 25.5909 45.3347V47.7314C25.5909 48.2142 25.1958 48.6093 24.713 48.6093Z" fill="#D8A462"/>
<path d="M24.7042 42.7448C24.5901 42.7448 24.4759 42.7273 24.3706 42.6834C24.2653 42.6395 24.1687 42.578 24.0897 42.4902C23.9229 42.3234 23.8351 42.104 23.8351 41.8669C23.8351 41.6299 23.9229 41.4104 24.0897 41.2524C24.1687 41.1646 24.2653 41.1031 24.3706 41.0593C24.5901 40.9715 24.8359 40.9715 25.0466 41.0593C25.1519 41.1031 25.2485 41.1646 25.3275 41.2524C25.4153 41.3314 25.4768 41.428 25.5206 41.5333C25.5645 41.6387 25.5909 41.7528 25.5909 41.8669C25.5909 41.9898 25.5645 42.1039 25.5206 42.2093C25.4768 42.3146 25.4153 42.4112 25.3275 42.4902C25.2485 42.578 25.1519 42.6395 25.0466 42.6834C24.9412 42.7273 24.8271 42.7448 24.7042 42.7448Z" fill="#D8A462"/>
<path d="M24.713 62.4537C24.2301 62.4537 23.8351 62.0587 23.8351 61.5758V55.8783C23.8351 55.3954 24.2301 55.0004 24.713 55.0004C25.1958 55.0004 25.5909 55.3954 25.5909 55.8783V61.5758C25.5909 62.0587 25.1958 62.4537 24.713 62.4537Z" fill="#D8A462"/>
<path d="M24.713 53.2797C24.2301 53.2797 23.8351 52.8847 23.8351 52.4018V51.1991C23.8351 50.7163 24.2301 50.3212 24.713 50.3212C25.1958 50.3212 25.5909 50.7163 25.5909 51.1991V52.4018C25.5909 52.8847 25.1958 53.2797 24.713 53.2797Z" fill="#D8A462"/>
</svg>
