<svg width="14" height="13" viewBox="0 0 14 13" fill="none" xmlns="http://www.w3.org/2000/svg">
<path d="M12.5001 0.5H1.50009C1.23487 0.5 0.980516 0.605357 0.792979 0.792893C0.605443 0.98043 0.500086 1.23478 0.500086 1.5V11.425C0.49756 11.6156 0.550591 11.8028 0.652702 11.9637C0.754813 12.1246 0.901584 12.2524 1.07509 12.3313C1.20699 12.3973 1.35255 12.4316 1.50009 12.4312C1.73596 12.4305 1.96398 12.3464 2.14384 12.1938L4.15634 10.5H12.5001C12.7653 10.5 13.0197 10.3946 13.2072 10.2071C13.3947 10.0196 13.5001 9.76522 13.5001 9.5V1.5C13.5001 1.23478 13.3947 0.98043 13.2072 0.792893C13.0197 0.605357 12.7653 0.5 12.5001 0.5ZM12.5001 9.5H4.15634C3.92006 9.49855 3.6913 9.58295 3.51259 9.7375L1.50009 11.425V1.5H12.5001V9.5ZM6.25009 5.5C6.25009 5.35166 6.29407 5.20666 6.37648 5.08332C6.4589 4.95999 6.57603 4.86386 6.71307 4.80709C6.85012 4.75032 7.00092 4.73547 7.1464 4.76441C7.29189 4.79335 7.42553 4.86478 7.53042 4.96967C7.63531 5.07456 7.70674 5.2082 7.73568 5.35368C7.76462 5.49917 7.74976 5.64997 7.693 5.78701C7.63623 5.92406 7.5401 6.04119 7.41676 6.1236C7.29343 6.20601 7.14842 6.25 7.00009 6.25C6.80117 6.25 6.61041 6.17098 6.46976 6.03033C6.3291 5.88968 6.25009 5.69891 6.25009 5.5ZM3.25009 5.5C3.25009 5.35166 3.29407 5.20666 3.37648 5.08332C3.4589 4.95999 3.57603 4.86386 3.71307 4.80709C3.85012 4.75032 4.00092 4.73547 4.1464 4.76441C4.29189 4.79335 4.42553 4.86478 4.53042 4.96967C4.63531 5.07456 4.70674 5.2082 4.73568 5.35368C4.76461 5.49917 4.74976 5.64997 4.693 5.78701C4.63623 5.92406 4.5401 6.04119 4.41676 6.1236C4.29343 6.20601 4.14842 6.25 4.00009 6.25C3.80117 6.25 3.61041 6.17098 3.46976 6.03033C3.3291 5.88968 3.25009 5.69891 3.25009 5.5ZM9.25009 5.5C9.25009 5.35166 9.29407 5.20666 9.37648 5.08332C9.4589 4.95999 9.57603 4.86386 9.71307 4.80709C9.85012 4.75032 10.0009 4.73547 10.1464 4.76441C10.2919 4.79335 10.4255 4.86478 10.5304 4.96967C10.6353 5.07456 10.7067 5.2082 10.7357 5.35368C10.7646 5.49917 10.7498 5.64997 10.693 5.78701C10.6362 5.92406 10.5401 6.04119 10.4168 6.1236C10.2934 6.20601 10.1484 6.25 10.0001 6.25C9.80117 6.25 9.61041 6.17098 9.46976 6.03033C9.3291 5.88968 9.25009 5.69891 9.25009 5.5Z" fill="#36343A"/>
</svg>
