<svg width="13" height="14" viewBox="0 0 13 14" fill="none" xmlns="http://www.w3.org/2000/svg">
<path d="M12.5 6.99312C12.5004 7.17129 12.4533 7.34635 12.3634 7.50018C12.2735 7.65402 12.1442 7.78104 11.9887 7.86812L1.49435 13.8687C1.34357 13.9542 1.17331 13.9994 0.999978 14C0.840133 13.9997 0.682694 13.961 0.540859 13.8873C0.399025 13.8136 0.276928 13.707 0.184802 13.5763C0.0926772 13.4457 0.0332085 13.2949 0.0113813 13.1366C-0.0104459 12.9782 0.00600458 12.8169 0.0593535 12.6662L1.76873 7.66937C1.78557 7.61994 1.81748 7.57702 1.85996 7.54664C1.90244 7.51626 1.95338 7.49995 2.0056 7.5H6.49998C6.56852 7.50015 6.63636 7.4862 6.69929 7.45903C6.76222 7.43186 6.81889 7.39204 6.86578 7.34204C6.91267 7.29204 6.94878 7.23294 6.97186 7.1684C6.99495 7.10386 7.00452 7.03527 6.99998 6.96687C6.98864 6.8383 6.92915 6.71876 6.83342 6.63218C6.73769 6.54561 6.61279 6.4984 6.48373 6.5H2.00998C1.95783 6.50009 1.90695 6.48387 1.86448 6.45361C1.822 6.42335 1.79005 6.38057 1.7731 6.33125L0.0581035 1.33125C-0.00868246 1.13965 -0.015607 0.932278 0.0382497 0.736657C0.0921063 0.541035 0.204196 0.366424 0.359633 0.236011C0.515071 0.105598 0.706502 0.0255537 0.908506 0.006507C1.11051 -0.0125397 1.31353 0.0303125 1.4906 0.129373L11.9906 6.1225C12.145 6.20946 12.2736 6.3359 12.3631 6.48888C12.4526 6.64186 12.4998 6.81588 12.5 6.99312Z" fill="#FBF5EE"/>
</svg>
