<svg width="14" height="13" viewBox="0 0 14 13" fill="none" xmlns="http://www.w3.org/2000/svg">
<path d="M13.5 4C13.5 3.73478 13.3946 3.48043 13.2071 3.29289C13.0196 3.10536 12.7652 3 12.5 3H10.5V1C10.5 0.734784 10.3946 0.48043 10.2071 0.292893C10.0196 0.105357 9.76522 0 9.5 0H1.5C1.23479 0 0.980432 0.105357 0.792895 0.292893C0.605359 0.48043 0.500002 0.734784 0.500002 1V9C0.499735 9.09468 0.526695 9.18744 0.577669 9.26722C0.628642 9.347 0.70148 9.41045 0.787502 9.45C0.853856 9.48192 0.926375 9.49899 1 9.5C1.11422 9.50077 1.22499 9.4609 1.3125 9.3875L3.5 7.625V9.5C3.5 9.76522 3.60536 10.0196 3.7929 10.2071C3.98043 10.3946 4.23479 10.5 4.5 10.5H10.35L12.6875 12.3875C12.7597 12.4473 12.8477 12.485 12.9408 12.4961C13.0339 12.5072 13.1283 12.4912 13.2125 12.45C13.2985 12.4105 13.3714 12.347 13.4223 12.2672C13.4733 12.1874 13.5003 12.0947 13.5 12V4ZM3.1625 6.6125L1.5 7.95V1H9.5V6.5H3.475C3.36079 6.49923 3.25002 6.5391 3.1625 6.6125ZM10.8375 9.6125C10.75 9.53911 10.6392 9.49923 10.525 9.5H4.5V7.5H9.5C9.76522 7.5 10.0196 7.39464 10.2071 7.20711C10.3946 7.01957 10.5 6.76522 10.5 6.5V4H12.5V10.95L10.8375 9.6125Z" fill="#9A98A0"/>
</svg>
