<svg width="60" height="35" viewBox="0 0 60 35" fill="none" xmlns="http://www.w3.org/2000/svg">
<path d="M37.4 0C37.1 0 36.8 0 36.5 0C35.2 0.2 34 0.5 32.9 1C31.1 1.8 29.4 1.8 27.6 1.1C25.4 0.2 23.3 -0.1 21.1 0.3C17.8 0.9 15.5 3 15 6C14.4 9.4 15 12.5 17 15.2C17.4 15.8 17.7 16.5 18 17.2L18.1 17.3C18.1 17.3 18.1 17.5 18.1 17.7V17.9C18 21.4 18.2 24.4 18.8 27.1C19.1 28.4 20.7 33 22.8 34.5V34.7H23.3C24.1 35 24.9 34.9 25.6 34.5C28.5 32.6 28.7 24 28.7 23C28.7 22.2 29.4 21.6 30.1 21.6C30.9 21.6 31.5 22.2 31.5 23.1C31.5 24.1 31.7 32.7 34.6 34.6C35 34.8 35.4 35 35.8 35H36C36.3 35 36.6 34.9 37 34.8L37.2 34.7C38.8 33.8 39.6 32.4 40.1 31.4C40.9 29.8 41.4 28 41.7 25.8C42 23.9 42.2 18.7 42.2 17.9C42.2 17.4 42.3 16.9 42.6 16.5L42.9 16.1C43 15.9 43.2 15.7 43.3 15.5C44.9 13.4 45.6 11 45.6 8.2C45.6 6.5 45.2 5.1 44.4 3.8C42.9 1.4 40.2 0 37.4 0ZM23.7 33C22.5 32.3 20.9 28.9 20.4 26.7C19.9 24.2 19.6 21.4 19.7 17.9V17.8C19.7 17.5 19.7 17.1 19.6 16.6L19.4 16.2C19.1 15.5 18.7 14.8 18.3 14.2C16.6 11.9 16.1 9.3 16.6 6.3C17 4.1 18.8 2.5 21.3 1.9C21.8 1.8 22.4 1.7 22.9 1.7C24.2 1.7 25.4 2 26.7 2.6C28.9 3.6 31 3.6 33.4 2.6C34.4 2.2 35.4 1.9 36.5 1.8C36.7 1.8 36.9 1.8 37.2 1.8C39.5 1.8 41.6 2.9 42.7 4.5C43.3 5.5 43.6 6.6 43.6 8C43.7 10.4 43 12.5 41.7 14.3C41.5 14.6 41.3 14.9 41.1 15.3L41 15.4C40.6 16.1 40.4 16.9 40.4 17.8C40.4 18.5 40.2 23.7 39.9 25.4C39.6 27.3 39.2 29 38.4 30.4C37.8 31.7 37.1 32.4 36.3 33C36 33.1 35.7 33.1 35.5 32.9C34 31.9 33.2 26.4 33.2 22.8C33.2 21.1 31.8 19.6 30 19.6H29.8C28.2 19.7 26.8 21.1 26.8 22.7C26.8 26.5 26 32 24.5 33C24.3 33.1 24 33.1 23.7 33Z" fill="#36343A"/>
<path d="M22.5 4.30005H22.3C20.8 4.70005 19.7 5.90005 19.4 7.40005C19.1 9.10005 19.4 10.7 20.3 12.1C20.4 12.3 20.6 12.4 20.8 12.5H21.1C21.3 12.5 21.4 12.4 21.5 12.4C21.7 12.3 21.8 12.1 21.9 11.9C22 11.7 21.9 11.4 21.8 11.2C21.2 10.2 21 9.00005 21.2 7.70005C21.3 6.80005 21.9 6.20005 22.8 6.00005C23.2 5.90005 23.5 5.40005 23.4 5.00005C23.2 4.60005 22.9 4.30005 22.5 4.30005Z" fill="#D8A462"/>
<path d="M12.2 5.79998L5.30004 1.79998C4.80004 1.69998 4.30004 1.79998 4.10004 2.19998C4.00004 2.39998 3.90004 2.59998 4.00004 2.79998C4.00004 3.09998 4.20004 3.19998 4.40004 3.39998L11.3 7.39998C11.4 7.49998 11.6 7.49998 11.7 7.49998C12 7.49998 12.3 7.29998 12.4 7.09998C12.7 6.59998 12.6 6.09998 12.2 5.79998Z" fill="#D8A462"/>
<path d="M9.70002 17.2001C9.70002 16.7001 9.30002 16.3 8.80002 16.3H0.800024C0.300024 16.3 -0.0999756 16.7001 -0.0999756 17.2001C2.44156e-05 17.7001 0.400024 18 0.900024 18H8.90002C9.30002 18 9.70002 17.7001 9.70002 17.2001Z" fill="#D8A462"/>
<path d="M11.2001 27.0001L4.30006 31.0001C4.10006 31.1001 4.00006 31.3001 3.90006 31.5001C3.80006 31.7001 3.90006 32.0001 4.00006 32.1001C4.10006 32.4001 4.40006 32.6001 4.80006 32.6001C4.90006 32.6001 5.10006 32.6001 5.20006 32.5001L12.1001 28.5001C12.3001 28.4001 12.4001 28.2001 12.5001 28.0001C12.6001 27.8001 12.5001 27.5001 12.4001 27.4001C12.2001 27.0001 11.7001 26.8001 11.2001 27.0001Z" fill="#D8A462"/>
<path d="M55.6 31.2001L48.7 27.2001C48.3 27.0001 47.8 27.1001 47.5 27.5001C47.4 27.7001 47.4 27.9001 47.4 28.1001C47.5 28.3001 47.6 28.5001 47.8 28.6001L54.7 32.6001C54.8 32.7001 55 32.7001 55.1 32.7001H55.7V32.5001C55.8 32.4001 55.9 32.3001 55.9 32.2001C55.9 32.1001 56.1 31.9001 56 31.6001C55.9 31.5001 55.8 31.3001 55.6 31.2001Z" fill="#D8A462"/>
<path d="M59.1001 16.5H51.1001C50.6001 16.5 50.2001 16.9 50.2001 17.4C50.2001 17.9 50.6001 18.3 51.1001 18.3H59.1001C59.6001 18.3 60.0001 17.9 60.0001 17.4C60.0001 16.9 59.6001 16.5 59.1001 16.5Z" fill="#D8A462"/>
<path d="M48.4 7.70011C48.5 7.70011 48.7 7.70011 48.8 7.60011L55.7 3.60011C56.1 3.40011 56.2 2.80011 56 2.50011C55.8 2.10011 55.3 1.90011 54.8 2.20011L47.9 6.20011C47.5 6.40011 47.4 7.00011 47.6 7.30011C47.8 7.50011 48.1 7.70011 48.4 7.70011Z" fill="#D8A462"/>
</svg>
