<svg width="50" height="60" viewBox="0 0 50 60" fill="none" xmlns="http://www.w3.org/2000/svg">
<path d="M10.8 30.6C11 30.4 11.1 30.2 11.1 29.9C11.1 26.1 12.5 22.6 15.2 20C17.8 17.4 21.3 15.9 25 15.9C28.7 15.9 32.2 17.3 34.8 20C37.4 22.6 38.9 26.2 38.9 29.9C38.9 30.2 39 30.4 39.2 30.6C39.2 30.6 39.2 30.6 39.3 30.7L39 30.9H39.9C40.2 30.9 40.4 30.8 40.6 30.6C40.8 30.4 40.9 30.2 40.9 29.9C40.9 22.9 36.5 16.8 29.8 14.7L29.1 14.5L29.7 14.1C31.7 12.6 32.8 10.4 32.8 7.89998C32.8 3.59998 29.3 0.0999756 24.9 0.0999756C20.6 0.0999756 17.2 3.59998 17.1 7.89998C17.1 10.3 18.2 12.6 20.2 14.1L20.8 14.5L20.1 14.7C13.5 16.8 9 22.9 9 30C9 30.3 9.1 30.5 9.3 30.7C9.7 31 10.4 31 10.8 30.6ZM25 13.5C21.7 13.5 19.2 11 19.2 7.79998C19.2 4.59998 21.8 1.99998 25 1.99998C28.2 1.99998 30.8 4.59998 30.8 7.79998C30.8 10.9 28.2 13.5 25 13.5Z" fill="#36343A"/>
<path d="M49.2 32.5999C49 32.3999 48.8 32.2999 48.5 32.2999C45.3 32.4999 42 32.9999 38.7 33.8999C34 35.0999 29.4 36.9999 25.3 39.2999L25 39.4999L24.8 39.3999C20.7 37.0999 16.1 35.1999 11.4 33.9999C8.1 33.0999 4.8 32.5999 1.5 32.3999C1 32.3999 0.5 32.8999 0.5 33.3999V51.7999C0.5 52.2999 0.9 52.7999 1.4 52.7999C4.5 52.9999 7.6 53.4999 10.9 54.2999C15.8 55.5999 20.6 57.5999 24.5 59.8999C24.7 59.9999 24.8 59.9999 25 59.9999H25.2C25.3 59.9999 25.4 59.8999 25.5 59.8999C29.4 57.5999 34.2 55.5999 39 54.2999C42.2 53.4999 45.3 52.9999 48.4 52.7999C48.9 52.7999 49.3 52.2999 49.3 51.7999V33.3999C49.5 33.0999 49.4 32.8999 49.2 32.5999ZM47.5 34.4999V50.8999H47.2C44.2 51.0999 41.4 51.5999 38.7 52.2999C34.5 53.3999 30.5 54.9999 26.7 56.9999L26 57.2999V41.1999L26.2 41.0999C30 38.8999 34.5 37.0999 39.1 35.8999C41.3 35.2999 43.7 34.8999 46.1 34.5999L47.5 34.4999ZM24 41.1999V57.2999L23.4 56.9999C19.6 54.9999 15.6 53.3999 11.4 52.2999C8.7 51.5999 5.8 51.0999 2.8 50.8999H2.5V34.4999H2.9C5.7 34.7999 8.4 35.1999 10.9 35.7999C15.5 36.9999 19.9 38.7999 23.8 40.9999L24 41.1999Z" fill="#D8A462"/>
</svg>
