<svg width="54" height="60" viewBox="0 0 54 60" fill="none" xmlns="http://www.w3.org/2000/svg">
<path d="M49.3999 28.5C47.3999 28.5 45.3999 30.2 44.6999 30.9L44.5999 31C43.5999 31.8 38.4999 36.1 36.6999 37.9C36.3999 38.2 35.7999 38.5 35.1999 38.5H35.0999L34.9999 38.6C34.5999 39 34.1999 39.4 33.7999 39.7L32.8999 40.4H34.9999C35.9999 40.4 37.1999 39.9 37.8999 39.2C38.9999 38.1 41.7999 35.7 45.6999 32.4C45.7999 32.3 45.8999 32.2 45.8999 32.2C47.0999 31.1 48.3999 30.4 49.2999 30.4C49.7999 30.4 50.0999 30.6 50.4999 31C51.5999 32.1 49.5999 34.3 49.1999 34.7L40.3999 43.5C39.2999 44.8 36.6999 48 36.3999 50.5V56.1C36.3999 57.3 35.4999 58.2 34.2999 58.2H19.9999C18.7999 58.2 17.8999 57.3 17.8999 56.1V50.6V50.5C17.5999 48.1 15.0999 45 13.5999 43.4L13.4999 43.3C8.69985 38.7 6.49985 36.6 5.49985 35.6C4.89985 35 4.69985 34.8 4.59985 34.8C3.59985 33.8 2.89985 32.7 2.99985 32C2.99985 31.6 3.19985 31.3 3.59985 30.9C3.89985 30.6 4.19985 30.5 4.49985 30.5C5.39985 30.5 6.59985 31.2 7.79985 32.4L15.8999 39.4C16.5999 40 17.7999 40.5 18.7999 40.5H20.9999L20.1999 39.8C19.7999 39.4 19.3999 39.1 18.9999 38.7L18.8999 38.6H18.6999C18.1999 38.6 17.3999 38.3 17.0999 38L9.09985 31C8.19985 30.1 6.29985 28.6 4.49985 28.6C3.69985 28.6 2.99985 28.9 2.29985 29.5C1.49985 30.2 1.09985 31 1.09985 32C1.09985 33.3 1.89985 34.8 3.29985 36.2C3.49985 36.4 10.7999 43.4 12.2999 44.8C12.7999 45.3 15.7999 48.7 16.0999 50.7V56C16.0999 58.2 17.8999 60 20.0999 60H34.4999C36.6999 60 38.4999 58.2 38.4999 56V50.6C38.6999 48.6 41.1999 45.6 41.9999 44.6L50.7999 35.9C51.6999 35 54.3999 31.9 52.0999 29.6C51.2999 28.9 50.3999 28.5 49.3999 28.5Z" fill="#36343A"/>
<path d="M20.7 37.6C22.4 39.3 24.6 40.2 27 40.2C31.9 40.2 36 36.2 36 31.2C36 26.3 32 22.2 27 22.2C22 22.2 18 26.2 18 31.2C18 33.7 19 35.9 20.7 37.6ZM19.9 31.3C19.9 29.4 20.6 27.6 22 26.3C23.2 25.1 24.8 24.3 26.5 24.2H27C30.9 24.2 34.1 27.4 34.1 31.3C34.1 35.2 30.9 38.4 27 38.4C23.1 38.4 19.9 35.2 19.9 31.3Z" fill="#36343A"/>
<path d="M5.39995 24.9C7.99995 24.9 10.1 22.8 10.1 20.2C10.1 17.6 7.99995 15.5 5.39995 15.5C2.79995 15.5 0.699951 17.6 0.699951 20.2C0.699951 22.8 2.89995 24.9 5.39995 24.9ZM2.69995 20.2C2.69995 18.7 3.99995 17.4 5.49995 17.4C6.99995 17.4 8.29995 18.7 8.29995 20.2C8.29995 21.7 6.99995 23 5.49995 23C3.99995 23 2.69995 21.7 2.69995 20.2Z" fill="#D8A462"/>
<path d="M27 9.4C29.6 9.4 31.7001 7.3 31.7001 4.7C31.7001 2.1 29.6 0 27 0C24.4 0 22.3 2.1 22.3 4.7C22.3 7.3 24.4 9.4 27 9.4ZM24.2001 4.7C24.2001 3.2 25.5 1.9 27 1.9C28.5 1.9 29.8 3.2 29.8 4.7C29.8 6.2 28.5 7.5 27 7.5C25.5 7.5 24.2001 6.2 24.2001 4.7Z" fill="#D8A462"/>
<path d="M13.9 14.6C14.8 14.6 15.6 14.3 16.4 13.9C17.5 13.2 18.2 12.2 18.5 11C18.8 9.79999 18.6 8.49999 17.9 7.49999C17 6.09999 15.6 5.29999 13.9 5.29999C13 5.29999 12.2 5.59999 11.4 5.99999C10.3 6.69999 9.60004 7.69999 9.30004 8.89999C9.00004 10.1 9.20004 11.4 9.90004 12.4C10.8 13.7 12.2 14.6 13.9 14.6ZM11.2 9.19999C11.4 8.49999 11.8 7.89999 12.4 7.49999C12.8 7.19999 13.4 7.09999 13.9 7.09999C14.9 7.09999 15.7 7.59999 16.3 8.39999C17.1 9.69999 16.7 11.4 15.4 12.3C15 12.6 14.4 12.7 13.9 12.7C12.9 12.7 12 12.2 11.5 11.4C11.1 10.7 11 9.89999 11.2 9.19999Z" fill="#D8A462"/>
<path d="M37.6 13.4C38.4 13.9 39.2 14.1 40.1 14.1C41.7 14.1 43.2 13.3 44.1 11.9C44.8 10.8 45 9.59999 44.7 8.39999C44.4 7.19999 43.7 6.09999 42.6 5.49999C41.8 4.99999 41 4.79999 40.1 4.79999C38.5 4.79999 37 5.59999 36.1 6.99999C34.8 9.09999 35.4 12 37.6 13.4ZM37.8 7.89999C38.3 7.09999 39.2 6.59999 40.2 6.59999C40.7 6.59999 41.2 6.69999 41.7 6.99999C42.3 7.39999 42.8 7.99999 42.9 8.69999C43.1 9.39999 42.9 10.2 42.5 10.8C42 11.6 41.1 12.1 40.1 12.1C39.6 12.1 39.1 12 38.6 11.7C38 11.3 37.5 10.7 37.3 9.89999C37.2 9.29999 37.4 8.49999 37.8 7.89999Z" fill="#D8A462"/>
<path d="M48.5999 24.9C51.1999 24.9 53.2999 22.8 53.2999 20.2C53.2999 17.6 51.1999 15.5 48.5999 15.5C45.9999 15.5 43.8999 17.6 43.8999 20.2C43.8999 22.8 45.9999 24.9 48.5999 24.9ZM45.7999 20.2C45.7999 18.7 47.0999 17.4 48.5999 17.4C50.0999 17.4 51.3999 18.7 51.3999 20.2C51.3999 21.7 50.0999 23 48.5999 23C46.9999 23 45.7999 21.7 45.7999 20.2Z" fill="#D8A462"/>
</svg>
