<svg width="60" height="42" viewBox="0 0 60 42" fill="none" xmlns="http://www.w3.org/2000/svg">
<path d="M40.2999 7.5C40.4999 7.5 40.6999 7.5 40.8999 7.2C42.5999 5.5 44.8999 4.5 47.3999 4.5C49.7999 4.5 52.0999 5.4 53.7999 7.1C53.9999 7.3 54.1999 7.4 54.3999 7.4C54.7999 7.4 55.0999 7.1 55.2999 6.8C55.3999 6.5 55.3999 6.1 55.0999 5.9C52.9999 3.8 50.2999 2.7 47.3999 2.7C44.4999 2.7 41.6999 3.8 39.6999 5.9C39.3999 6.2 39.2999 6.5 39.4999 6.9C39.5999 7.2 39.8999 7.5 40.2999 7.5Z" fill="#D8A462"/>
<path d="M59.8 17.3C59.6 17 59.4 16.9 59.1 16.9H36.2C35.8 16.9 35.5 17.1 35.3 17.5L32.3 25L31.7 24C30.1 21.6 27.7 19.9 25 18.9L23.2 18.3L25 17.6C28.6 16.3 31 12.9 31 9C30.9 6.2 29.9 3.9 28.1 2.2C26.5 0.8 24.3 0 22 0C19.7 0 17.6 0.8 15.9 2.3C14.1 3.9 13.1 6.3 13 9.1C13 12.4 14.8 15.5 17.8 17.1L19.7 18.1L17.6 18.4C9.39997 19.4 3.59997 25 0.299967 35C-0.200033 36.4 -3.3319e-05 38.1 0.999967 39.5C1.99997 40.9 3.39997 41.7 4.99997 41.7H51.4C53.4 41.7 55 40.1 55 38.1C55 36.9 54.4 35.8 53.5 35.1L52.6 34.5L53.4 34L53.5 33.9C54.1 33.1 56 28.2 58 23L58.7 21.1C59.3 19.6 59.7 18.5 59.9 18.2C60 17.9 60 17.6 59.8 17.3ZM22 16.3C18.1 16.3 14.9 13.1 14.9 9.1C14.9 7.2 15.6 5.4 16.9 4.1C18.3 2.7 20.2 1.9 22.2 1.9C24 1.9 25.8 2.6 27.1 4C29.2 6 29.8 9.1 28.6 11.9C27.5 14.7 25 16.4 22.1 16.4H22V16.3ZM11.9 32.5L12.9 30.9C13.1 30.6 13.1 30.3 13 30C12.8 29.7 12.5 29.5 12.1 29.5C11.8 29.5 11.6 29.6 11.4 29.9L10.3 31.6C9.89997 32.1 9.89997 32.7 10.2 33.3C10.5 33.9 11.1 34.2 11.7 34.2H18.4C19.9 34.2 21.1 35.4 21.1 36.9C21.1 38.4 19.9 39.6 18.4 39.6H4.99997C3.99997 39.6 2.99997 39.1 2.39997 38.2C1.79997 37.3 1.59997 36.3 1.99997 35.3C5.49997 25.1 11.6 20 20.5 20H20.6C25.3 20.1 29.4 22.9 31.3 27.2L31.4 27.5L28.7 34.4H22L21.8 34.2C20.9 33.2 19.7 32.7 18.5 32.7H11.9V32.5ZM22.9 36.2H51.4C52.6 36.2 53.2 37.1 53.2 38C53.2 38.9 52.6 39.8 51.4 39.8H22.2L22.6 38.9C22.8 38.4 22.9 37.8 22.9 37.4V36.2ZM48.7 34.3H30.7L36.8 18.7H57.6L52.5 31.7C52 33.3 50.5 34.3 48.7 34.3Z" fill="#36343A"/>
<path d="M42.9 10.5C42.6 10.8 42.5 11.1 42.7 11.5C42.9 11.9 43.2 12.1 43.6 12.1C43.8 12.1 44 12 44.2 11.8C45.1 10.9 46.2 10.5 47.4 10.5C48.6 10.5 49.8 11 50.6 11.8C51 12.2 51.5 12.2 51.9 11.8C52.1 11.6 52.2 11.4 52.2 11.2C52.2 11 52.1 10.7 51.9 10.6C50.7 9.4 49.1 8.7 47.4 8.7C45.7 8.6 44 9.3 42.9 10.5Z" fill="#D8A462"/>
</svg>
