<svg width="60" height="53" viewBox="0 0 60 53" fill="none" xmlns="http://www.w3.org/2000/svg">
<path d="M60 17.3C60 13 58.3 9 55.3 6C52.3 3 48.4 1 44.3 0.5C39.9 0 35.8 1.3 32.8 4.4L30.2 7.3L27.3 4.1L27.2 4C24.6 1.4 21.2 0 17.6 0C13 0 8.2 2.1 4.7 5.6C1.7 8.6 0 12.6 0 16.9C0 21.1 1.6 25.1 4.6 28.1L29.8 52.6C30 52.8 30.2 52.9 30.6 52.9C31 52.9 31.6 52.3 31.6 52.3L55.4 28.5C58.3 25.5 60 21.5 60 17.3ZM17.5 2.3C20.6 2.3 23.4 3.4 25.5 5.5L29.3 9.7C29.7 10.2 30.6 10.2 31 9.7L34.5 6C36.6 3.9 39.4 2.7 42.5 2.7C46.4 2.7 50.6 4.5 53.7 7.6C56.3 10.2 57.7 13.6 57.7 17.2C57.7 20.8 56.3 24.2 53.7 26.8L30.6 50.1L6.3 26.5C3.7 23.9 2.3 20.5 2.3 16.9C2.3 13.3 3.7 9.9 6.3 7.3C9.4 4.2 13.6 2.3 17.5 2.3Z" fill="#36343A"/>
<path d="M22.5999 26.6H28.7999V32.8C28.7999 33.4 29.2999 34 29.9999 34C30.6999 34 31.1999 33.5 31.1999 32.8V26.6H37.3999C37.9999 26.6 38.5999 26.1 38.5999 25.4C38.5999 24.8 38.0999 24.2001 37.3999 24.2001H31.1999V18C31.1999 17.4 30.6999 16.8 29.9999 16.8C29.2999 16.8 28.7999 17.3 28.7999 18V24.2001H22.5999C21.9999 24.2001 21.3999 24.7 21.3999 25.4C21.3999 26.1 21.9999 26.6 22.5999 26.6Z" fill="#D8A462"/>
</svg>
