<svg width="60" height="52" viewBox="0 0 60 52" fill="none" xmlns="http://www.w3.org/2000/svg">
<path d="M30 28C25.4 28 21.7 31.7 21.7 36.3C21.7 40.9 25.4 44.6 30 44.6C34.6 44.6 38.2999 40.9 38.2999 36.3C38.2999 31.7 34.6 28 30 28ZM36.4 36.3C36.4 39.9 33.5 42.8 29.9 42.8C26.3 42.8 23.4 39.9 23.4 36.3C23.4 32.7 26.3 29.8 29.9 29.8C33.5 29.8 36.4 32.8 36.4 36.3Z" fill="#D8A462"/>
<path d="M29.9999 33.6001C28.4999 33.6001 27.2999 34.8001 27.2999 36.3001C27.2999 37.7001 28.2999 38.8001 29.5999 39.0001H29.9999C31.4999 39.0001 32.6999 37.8001 32.6999 36.3001C32.6999 35.6001 32.3999 34.9001 31.8999 34.4001C31.3999 33.9001 30.6999 33.6001 29.9999 33.6001ZM29.9999 37.2001C29.4999 37.2001 29.0999 36.8001 29.0999 36.3001C29.0999 35.8001 29.4999 35.4001 29.9999 35.4001C30.4999 35.4001 30.8999 35.8001 30.8999 36.3001C30.8999 36.8001 30.4999 37.2001 29.9999 37.2001Z" fill="#D8A462"/>
<path d="M25.1 20.4C25.1 19.9 24.7 19.5 24.2 19.5C23.7 19.5 23.3 19.9 23.3 20.4C23.3 22.2 21.9 23.6 20.1 23.6C18.3 23.6 16.9 22.2 16.9 20.4C16.9 19.9 16.5 19.5 16 19.5C15.5 19.5 15.1 19.9 15.1 20.4C15.1 23.2 17.4 25.5 20.2 25.5C23 25.5 25.1 23.2 25.1 20.4Z" fill="#36343A"/>
<path d="M44.1 19.5C43.6 19.5 43.2 19.9 43.2 20.4C43.2 22.2 41.8 23.6 40 23.6C38.2 23.6 36.8 22.2 36.8 20.4C36.8 19.9 36.4 19.5 35.9 19.5C35.4 19.5 35 19.9 35 20.4C35 23.2 37.3 25.5 40.1 25.5C42.9 25.5 45.2 23.2 45.2 20.4C45.1 19.9 44.6 19.5 44.1 19.5Z" fill="#36343A"/>
<path d="M54.1 15.8C54 15.8 53.9 15.8 53.7 15.8C49.8 6.4 40.2 0 30 0C19.7 0 10.2 6.3 6.29998 15.8C6.19998 15.8 6.09998 15.8 5.89998 15.8C2.69998 15.8 0.0999756 18.4 0.0999756 21.6C0.0999756 24.2 1.79998 26.5 4.29998 27.2C4.69998 33.6 7.39998 39.6 12 44.1C16.7 48.7 22.8 51.2 29.3 51.4H30C36.7 51.4 43.1 48.8 47.9 44.1C52.5 39.6 55.3 33.6 55.6 27.2C58.1 26.5 59.9 24.2 59.9 21.6C59.9 18.4 57.3 15.8 54.1 15.8ZM30 49.5C17 49.5 6.59998 39.3 6.19998 26.4C6.19998 25.9 5.89998 25.6 5.39998 25.5C3.39998 25.2 1.99998 23.5 1.99998 21.6C1.99998 19.6 3.59998 17.9 5.59998 17.7H5.89998C6.19998 17.7 6.49998 17.7 6.79998 17.8H6.89998C7.29998 17.8 7.59998 17.6 7.79998 17.2C11.3 8 20.2 1.9 29.9 1.9C30 1.9 30.2 1.9 30.3 1.9C30.4 1.9 30.6 1.9 30.7 1.9C32.5 2.1 34 2.9 35.3 4.1C36.7 5.5 37.5 7.4 37.4 9.5C37.4 11 36.8 12.5 35.6 13.6C34.5 14.7 33.1 15.3 31.5 15.3C30.3 15.3 29.2 14.8 28.4 13.9C27.6 13 27.1 11.9 27.1 10.7C27.1 9.8 27.5 8.9 28.1 8.3C28.7 7.7 29.6 7.3 30.5 7.3C31.2 7.3 31.8 7.6 32.3 8.1C32.8 8.6 33 9.2 33 9.9C33 10.1 33.1 10.3 33.3 10.5C33.5 10.7 33.7 10.8 34 10.8C34.5 10.8 34.9 10.4 34.9 9.9C34.9 8.7 34.5 7.6 33.7 6.8C32.9 5.9 31.8 5.5 30.6 5.5C29.2 5.5 27.8 6 26.8 7C25.8 8 25.2 9.3 25.2 10.7C25.2 12.4 25.8 14 27 15.2C28.2 16.4 29.8 17.1 31.5 17.1H31.6C33.6 17.1 35.5 16.3 37 14.9C38.5 13.5 39.3 11.6 39.3 9.5C39.3 7 38.4 4.6 36.7 2.9C43.8 5 49.6 10.3 52.2 17.2C52.3 17.6 52.7 17.8 53.1 17.8H53.3C53.6 17.8 53.9 17.7 54.1 17.7C56.3 17.7 58 19.5 58 21.6C58 23.6 56.6 25.2 54.6 25.5C54.1 25.6 53.8 25.9 53.8 26.4C53.4 39.3 43 49.5 30 49.5Z" fill="#36343A"/>
</svg>
