<svg width="60" height="60" viewBox="0 0 60 60" fill="none" xmlns="http://www.w3.org/2000/svg">
<g clip-path="url(#clip0_162_4110)">
<path d="M20.6 50.5H19.7C19.2 50.5 18.7 50.9 18.7 51.5V59C18.7 59.5 19.1 60 19.7 60C20.2 60 20.7 59.6 20.7 59V52.4H37.5V59C37.5 59.5 38 60 38.5 60C39 60 39.5 59.6 39.5 59V51.5C39.5 51 39.1 50.5 38.5 50.5H37.5H20.6Z" fill="#D8A462"/>
<path d="M19.2 7.19999C19.2 6.99999 19.1 6.69999 18.9 6.49999L12.7 0.199994C12.3 -0.200006 11.7 -0.200006 11.3 0.199994C11.1 0.499994 11 0.699994 11 0.999994C11 1.19999 11.1 1.39999 11.3 1.69999L16.9 7.29999L5 19.1L1.7 15.8C1.3 15.4 0.7 15.4 0.3 15.8C0.1 16 0 16.3 0 16.5C0 16.7 0.1 17 0.3 17.2L4.3 21.2C4.5 21.4 4.7 21.5 5 21.5C5.4 21.5 5.6 21.3 5.7 21.2L19 7.79999C19.1 7.69999 19.2 7.49999 19.2 7.19999Z" fill="#D8A462"/>
<path d="M59.7 15.8C59.3 15.4 58.7 15.4 58.3 15.8L55 19.1L43.1 7.20001L48.5 1.70001C48.6 1.60001 48.7 1.30001 48.7 1.10001C48.7 0.900006 48.7 0.700006 48.4 0.400006C48 6.10948e-06 47.4 6.10948e-06 47 0.400006L40.9 6.60001C40.8 6.70001 40.7 6.90001 40.7 7.20001C40.7 7.40001 40.8 7.70001 41 7.90001L53.7 20.5L54.3 21.1C54.7 21.5 55.3 21.5 55.7 21.1L59.7 17.1C60.1 16.8 60.1 16.2 59.7 15.8Z" fill="#D8A462"/>
<path d="M7.10001 21.2C8.10001 22.1 8.60001 23.5 8.40001 24.8C8.30001 26.8 9.00001 28.7 10.3 30L16.1 35.8V41.4C16.1 43.3 17.1 45.1 18.8 46.1C19.9 46.7 20.5 47.9 20.5 49.1V50.5H37.4V49.5C37.4 48.2 37.9 46.9 39 46C40.5 44.8 41.3 43 41.3 41V38.5C41.9 38.4 42.4 38.1 42.8 37.6L50.3 30.1C51.7 28.7 52.2 26.7 51.7 24.9C51.4 23.7 51.7 22.4 52.6 21.6L53.6 20.6L41 7.89999L41.7 8.59999L41 9.39999C40.1 10.4 38.7 10.9 37.4 10.7C35.5 10.5 33.6 11.2 32.3 12.6L30.7 14.2C30.4 14 30.1 13.9 29.8 13.8L27.9 11.9C26.6 10.6 24.7 9.99999 22.7 10.5C22.3 10.6 22 10.6 21.8 10.6C20.9 10.6 20 10.2 19.4 9.59999L18.4 8.59999L19 7.79999L5.70001 21.2L6.40001 20.5L7.10001 21.2ZM33.6 13.9C34.4 13.1 35.6 12.6 36.8 12.6C36.9 12.6 37.1 12.6 37.2 12.6C39.1 12.8 41 12.1 42.4 10.7L43.1 9.99999L52.2 19.1L51.2 20C49.8 21.4 49.2 23.4 49.8 25.3C50.1 26.5 49.8 27.7 48.9 28.6L41.4 36.1L41.3 36.2V26.2C41.3 25.3 41 24.5 40.4 23.9C39.8 23.3 38.9 23 38 23C37.5 23 37.1 23.1 36.7 23.3V21.7C36.7 20.8 36.4 20 35.7 19.4C34.8 18.5 33.2 18.2 32 18.7V17.1C32 16.7 31.9 16.3 31.8 15.9L33.6 13.9ZM27.4 16.9C27.4 16.2 28 15.6 28.8 15.6C29.2 15.6 29.5 15.7 29.7 16C30 16.3 30.1 16.6 30.1 17V32C30.1 32.5 30.5 33 31.1 33C31.6 33 32.1 32.5 32.1 32V21.5C32.1 20.8 32.7 20.2 33.4 20.2C33.8 20.2 34.1 20.3 34.3 20.6C34.6 20.9 34.7 21.2 34.7 21.6V31.9C34.7 32.4 35.2 32.9 35.7 32.9C36.2 32.9 36.7 32.4 36.7 31.9V26.3C36.7 25.6 37.3 25 38 25C38.4 25 38.7 25.1 38.9 25.4C39.2 25.7 39.3 26 39.3 26.4V41C39.3 42.3 38.7 43.6 37.7 44.4C36.2 45.6 35.3 47.5 35.4 49.4V50.4H22.5V49.1C22.5 47.1 21.5 45.3 19.8 44.4C18.7 43.8 18.1 42.7 18.1 41.5V30.8C18.1 30.1 18.7 29.5 19.4 29.5C19.8 29.5 20.1 29.6 20.3 29.9C20.6 30.2 20.7 30.5 20.7 30.9V35.2C20.7 35.7 21.1 36.2 21.7 36.2C22.2 36.2 22.7 35.7 22.7 35.2V21.5C22.7 20.8 23.3 20.2 24 20.2C24.4 20.2 24.7 20.3 24.9 20.6C25.2 20.9 25.3 21.2 25.3 21.6V31.9C25.3 32.4 25.7 32.9 26.3 32.9C26.8 32.9 27.3 32.5 27.3 31.9V16.9H27.4ZM17 9.89999L17.9 10.9C19.3 12.3 21.4 12.8 23.2 12.3C24.3 12 25.7 12.3 26.5 13.2L27.2 13.9C26.1 14.5 25.4 15.6 25.4 16.8V18.4C25 18.2 24.5 18.1 24 18.1C22.2 18.1 20.7 19.6 20.7 21.4V27.7C20.3 27.5 19.8 27.4 19.3 27.4C17.5 27.4 16 28.9 16 30.7V32.9L11.6 28.5C10.7 27.6 10.2 26.3 10.3 24.9C10.5 23 9.80001 21.1 8.40001 19.7L7.70001 19L17 9.89999Z" fill="#36343A"/>
</g>
<defs>
<clipPath id="clip0_162_4110">
<rect width="60" height="60" fill="white"/>
</clipPath>
</defs>
</svg>
