<svg width="60" height="58" viewBox="0 0 60 58" fill="none" xmlns="http://www.w3.org/2000/svg">
<path d="M12.8 46.2C12.9 46.3 13 46.4 13.1 46.5L13.2 46.6C13.3 46.7 13.5 46.7 13.5 46.7H13.6C13.7 46.7 13.7 46.7 13.8 46.7H13.9C14 46.7 14.1 46.6 14.2 46.5L14.3 46.4C14.5 46.2 14.6 46 14.6 45.7C14.6 45.4 14.5 45.1 14.3 44.9C13.9 44.5 13.2 44.5 12.7 44.9C12.6 45 12.5 45.1 12.4 45.3C12.4 45.5 12.4 45.8 12.4 46.1C12.6 46.1 12.7 46.2 12.8 46.2Z" fill="#D8A462"/>
<path d="M8.2 46.6H8.4C8.5 46.6 8.5 46.6 8.6 46.6H8.7C8.8 46.6 8.9 46.5 9 46.4L9.1 46.2C9.2 46 9.3 45.8 9.3 45.6C9.3 45.3 9.2 45.1 9 44.8C8.7 44.5 8.1 44.4 7.8 44.5C7.7 44.5 7.5 44.6 7.4 44.7C7.1 45 7 45.5 7.2 45.9C7.4 46.4 7.8 46.6 8.2 46.6Z" fill="#D8A462"/>
<path d="M18.4 46.5L18.5 46.6H18.9C19 46.6 19.1 46.6 19.2 46.5H19.4C19.5 46.4 19.6 46.4 19.7 46.3C19.8 46.2 19.9 46.1 20 45.9C20.1 45.7 20.1 45.4 20 45.1L19.9 45C19.9 44.9 19.8 44.8 19.7 44.7C19.3 44.3 18.7 44.3 18.1 44.7C17.7 45.1 17.7 45.8 18.1 46.2C18.2 46.4 18.3 46.4 18.4 46.5Z" fill="#D8A462"/>
<path d="M1.1 27.7C1.7 27.7 2.2 27.2 2.2 26.6V19.4C2.2 18.5 2.5 17.7 3.1 17.1C3.7 16.5 4.5 16.2 5.4 16.2H17C17.9 16.2 18.7 16.5 19.3 17.1C19.9 17.7 20.2 18.5 20.2 19.4V26.6C20.2 27.2 20.7 27.7 21.3 27.7H21.5C22 27.6 22.4 27.2 22.4 26.6V19.4C22.4 18 21.8 16.6 20.8 15.6C19.8 14.6 18.4 14 17 14H5.4C4 14 2.6 14.6 1.6 15.6C0.6 16.6 0 18 0 19.4V26.6C0 27.1 0.5 27.7 1.1 27.7Z" fill="#36343A"/>
<path d="M11.2 12.4C12.9 12.4 14.4 11.7 15.5 10.5C16.6 9.3 17.2 7.8 17.2 6.2C17.2 4.6 16.6 3 15.5 1.9C14.4 0.7 12.9 0 11.2 0C9.60005 0 8.10005 0.7 7.00005 1.9C5.90005 3 5.30005 4.6 5.30005 6.2C5.30005 7.8 5.90005 9.4 7.00005 10.5C8.10005 11.7 9.60005 12.4 11.2 12.4ZM7.50005 6.2C7.50005 5.1 7.80005 4.2 8.60005 3.4C9.40005 2.6 10.3 2.2 11.3 2.2C12.3 2.2 13.3 2.7 14 3.4C14.7 4.2 15 5.2 15 6.2C15 7.2 14.7 8.2 13.9 9C13.2 9.8 12.2 10.2 11.2 10.2C10.2 10.2 9.20005 9.7 8.50005 9C7.80005 8.2 7.40005 7.2 7.50005 6.2Z" fill="#36343A"/>
<path d="M40.9 10.8V10.9H51.4C51.7 10.9 52 10.8 52.2 10.6C52.4 10.4 52.5 10.1 52.5 9.79995C52.5 9.49995 52.4 9.19995 52.2 8.99995C52 8.79995 51.7 8.69995 51.4 8.69995H41.2999C40.6999 8.69995 40.2 9.19995 40.2 9.79995C40.3 10.2 40.5 10.6 40.9 10.8Z" fill="#D8A462"/>
<path d="M58.9 3.19998C58.2 2.49998 57.3 2.09998 56.2 2.09998H36.6C35.6 2.09998 34.6 2.49998 33.9 3.19998C33.2 3.89998 32.8 4.79998 32.8 5.89998V15.1C32.8 18.6 26.4 20.7 26.4 20.7H26.3C25.8 20.9 25.5 21.4 25.6 21.9C25.7 22.4 26.1 22.8 26.7 22.8H56.2C57.2 22.8 58.2 22.4 58.9 21.7C59.6 21 60 20 60 19V5.89998C60 4.89998 59.6 3.89998 58.9 3.19998ZM57.8 5.89998V19C57.8 19.9 57.1 20.6 56.2 20.6H31.4L32.1 20.2C33.8 19.1 34.9 17.3 35.1 15.3V5.99998C35.1 5.59998 35.3 5.19998 35.6 4.89998C35.9 4.59998 36.3 4.39998 36.7 4.39998H56.3C57.1 4.29998 57.8 4.99998 57.8 5.89998Z" fill="#36343A"/>
<path d="M33.3 35.1H3.8C2.8 35.1 1.9 35.5 1.1 36.2C0.4 37 0 37.9 0 38.9V52.1C0 53.1 0.4 54.1 1.1 54.8C1.8 55.5 2.7 55.9 3.8 55.9H23.4C24.4 55.9 25.4 55.5 26.1 54.8C26.8 54.1 27.2 53.2 27.2 52.1V42.9C27.2 39.5 32.9 37.5 33.6 37.3H33.7C34.2 37.1 34.5 36.6 34.4 36.1C34.3 35.5 33.8 35.1 33.3 35.1ZM28.6 37.4L27.9 37.8C26.2 38.9 25.2 40.7 25 42.8V52.1C25 52.5 24.8 52.9 24.6 53.2C24.3 53.5 23.9 53.7 23.5 53.7H3.8C2.9 53.7 2.2 53 2.2 52.1V39C2.2 38.2 2.8 37.5 3.6 37.4H28.6Z" fill="#36343A"/>
<path d="M51.5 14H41.4001C40.8001 14 40.3 14.5 40.3 15.1C40.3 15.5 40.6001 15.9 40.9001 16.1V16.2H51.4001C51.7001 16.2 52.0001 16.1 52.2001 15.9C52.4001 15.7 52.5 15.4 52.5 15.1C52.5 14.8 52.4001 14.5 52.2001 14.3C52.0001 14.2 51.8 14 51.5 14Z" fill="#D8A462"/>
<path d="M48.8 42.8H49C50.6 42.8 52.1 42.2 53.2001 41.1C54.4001 40 55.1 38.4001 55.2001 36.7001C55.3001 35.0001 54.6 33.4001 53.5 32.2001C52.4 31.0001 50.8 30.3 49 30.3C47.4 30.3 45.8 30.9 44.6 32.1C43.4 33.3 42.8 34.9 42.8 36.5C42.8 38.1 43.4 39.7 44.5 40.8C45.6 42.1 47.1 42.7 48.8 42.8ZM44.9001 36.6C44.9001 35.6 45.2 34.6 46 33.8C46.7 33.1 47.5 32.7 48.5 32.6H49C50 32.6 51.0001 33 51.7001 33.6C52.5001 34.3 53 35.3001 53 36.4001C53 37.5001 52.6001 38.5 51.9001 39.3C51.2001 40.1 50.1 40.5 49 40.6C47.9 40.6 46.9001 40.2001 46.2001 39.4001C45.4001 38.7001 44.9001 37.6 44.9001 36.6Z" fill="#36343A"/>
<path d="M54.6 44.3H42.9C41.5 44.3 40.1 44.9001 39.1 45.9001C38.1 46.9001 37.5 48.3001 37.5 49.7001V56.9001C37.5 57.5001 38 58 38.6 58C39.2 58 39.7 57.5001 39.7 56.9001V49.7001C39.7 48.8001 40 48.0001 40.6 47.4001C41.2 46.8001 42 46.5 42.9 46.5H54.5C55.4 46.5 56.2 46.8001 56.8 47.4001C57.4 48.0001 57.7 48.8001 57.7 49.7001V56.9001C57.7 57.5001 58.2 58 58.8 58C59.4 58 59.9 57.5001 59.9 56.9001V49.7001C59.9 48.3001 59.3 46.9001 58.3 45.9001C57.4 44.8001 56 44.3 54.6 44.3Z" fill="#36343A"/>
</svg>
