<svg width="60" height="55" viewBox="0 0 60 55" fill="none" xmlns="http://www.w3.org/2000/svg">
<path d="M55.9 8.4H50.4V4.4C50.4 2 48.4 0 46 0H14C11.6 0 9.6 2 9.6 4.4V8.4H4.1C1.8 8.4 0 10.2 0 12.5V19.3C0 25.2 4.8 30 10.8 30C11.1 30 11.3 30 11.6 30H11.9L12.1 30.3C15.4 36.3 21.5 40.2 28.3 40.8H28.8V51.9H20.4C19.7 51.9 19.2 52.4 19.2 53.1C19.2 53.8 19.7 54.3 20.4 54.3H39.6C40.3 54.3 40.8 53.8 40.8 53.1C40.8 52.4 40.3 51.9 39.6 51.9H31.2V40.8H31.7C38.5 40.2 44.6 36.3 47.9 30.3L48.1 30H48.4C48.7 30 49 30 49.2 30C55.2 30 60 25.2 60 19.2V12.4C60 10.2 58.2 8.4 55.9 8.4ZM10.6 26.9L10.9 27.7L10.1 27.6C5.8 27.2 2.4 23.6 2.4 19.3V12.5C2.4 11.6 3.2 10.8 4.1 10.8H9.6V20.4C9.6 22.6 9.9 24.8 10.6 26.9ZM57.6 12.5V19.3C57.6 23.6 54.2 27.3 49.9 27.6L49.1 27.7L49.4 26.9C50.1 24.8 50.5 22.6 50.5 20.4V10.8H56C56.9 10.8 57.6 11.5 57.6 12.5ZM48 4.4V20.4C48 23 47.5 25.6 46.4 27.9L46.3 28L46.2 28.1L46.1 28.3C43 34.5 36.8 38.4 29.9 38.4C23.1 38.4 16.7 34.4 13.7 28.3V28.2C13.7 28.1 13.6 28 13.5 27.9C12.5 25.5 12 23 12 20.4V4.4C12 3.3 12.9 2.4 14 2.4H46C47.1 2.4 48 3.3 48 4.4Z" fill="#36343A"/>
<path d="M29.9999 34.8C29.3999 34.8 28.8999 34.3 28.8999 33.7C28.8999 33.1 29.3999 32.6 29.9999 32.6C33.7999 32.6 36.6999 31.5 38.6999 29.3C42.1999 25.4 41.6999 19.3 41.6999 19.3C41.5999 18.7 42.0999 18.2 42.6999 18.1C43.2999 18 43.7999 18.5 43.8999 19.1C43.8999 19.4 44.4999 26.2 40.3999 30.8C37.8999 33.5 34.4999 34.8 29.9999 34.8Z" fill="#D8A462"/>
</svg>
