<svg width="60" height="60" viewBox="0 0 60 60" fill="none" xmlns="http://www.w3.org/2000/svg">
<g clip-path="url(#clip0_802_58612)">
<g clip-path="url(#clip1_802_58612)">
<path d="M40.54 26.65L38.72 27.54C39.23 28.84 39.51 30.26 39.51 31.74C39.51 38.07 34.36 43.22 28.03 43.22C21.7 43.22 16.54 38.07 16.54 31.74C16.54 25.41 21.7 20.25 28.03 20.25C29.82 20.25 31.54 20.67 33.06 21.41L33.83 19.52C32.07 18.69 30.11 18.22 28.03 18.22C20.58 18.22 14.51 24.28 14.51 31.74C14.51 39.2 20.58 45.25 28.03 45.25C35.48 45.25 41.54 39.19 41.54 31.74C41.54 29.94 41.19 28.22 40.55 26.65H40.54Z" fill="#35343A"/>
<path d="M46.96 23.54L45.04 24.47C46.01 26.71 46.54 29.16 46.54 31.74C46.54 41.94 38.22 50.25 28.02 50.25C17.82 50.25 9.5 41.95 9.5 31.74C9.5 21.53 17.8 13.22 28.02 13.22C30.78 13.22 33.39 13.82 35.74 14.92L36.55 12.95C33.95 11.76 31.06 11.1 28.02 11.1C16.64 11.1 7.38 20.36 7.38 31.74C7.38 43.12 16.64 52.37 28.02 52.37C39.4 52.37 48.66 43.12 48.66 31.74C48.66 28.82 48.06 26.05 46.96 23.54Z" fill="#35343A"/>
<path d="M53.56 20.24L51.75 21.13C53.21 24.37 54.02 27.96 54.02 31.74C54.02 46.07 42.35 57.74 28.02 57.74C13.69 57.74 2.03 46.07 2.03 31.74C2.03 17.41 13.69 5.75 28.02 5.75C31.77 5.75 35.34 6.55 38.55 7.99L39.32 6.11C35.86 4.57 32.04 3.72 28.02 3.72C12.57 3.72 0 16.29 0 31.74C0 47.19 12.57 59.76 28.02 59.76C43.47 59.76 56.04 47.18 56.04 31.74C56.04 27.64 55.16 23.74 53.56 20.24Z" fill="#35343A"/>
<path d="M59.93 6.28999C59.77 5.90999 59.4 5.65999 58.99 5.65999H54.71L54.75 1.25999C54.75 0.849993 54.51 0.479993 54.13 0.319993C53.75 0.159993 53.31 0.249993 53.02 0.529993L43.72 9.75999C43.56 9.91999 43.46 10.12 43.43 10.34L42.71 15.63L31.8 26.54C30.74 25.77 29.44 25.31 28.03 25.31C24.47 25.31 21.59 28.19 21.59 31.75C21.59 35.31 24.47 38.19 28.03 38.19C31.59 38.19 34.47 35.31 34.47 31.75C34.47 30.34 34.01 29.04 33.24 27.98L44.14 17.08L50.14 16.43C50.37 16.41 50.58 16.31 50.74 16.15L59.71 7.40999C60.01 7.11999 60.1 6.67999 59.94 6.29999L59.93 6.28999ZM49.56 14.44L44.84 14.95L45.39 10.95L52.7 3.69999L52.67 6.65999C52.67 6.92999 52.77 7.18999 52.96 7.37999C53.15 7.56999 53.41 7.67999 53.68 7.67999H56.49L49.56 14.44Z" fill="#D8A562"/>
</g>
</g>
<defs>
<clipPath id="clip0_802_58612">
<rect width="60" height="60" fill="white"/>
</clipPath>
<clipPath id="clip1_802_58612">
<rect width="60" height="60" fill="white"/>
</clipPath>
</defs>
</svg>
