<svg width="54" height="60" viewBox="0 0 54 60" fill="none" xmlns="http://www.w3.org/2000/svg">
<path d="M43.0998 13.5H10.7998V15.8H43.0998V13.5Z" fill="#D8A462"/>
<path d="M43.0998 21.7H10.7998V24H43.0998V21.7Z" fill="#D8A462"/>
<path d="M35.5998 29.9H18.2998V32.2H35.5998V29.9Z" fill="#D8A462"/>
<path d="M51.5999 22.3L50.1999 21V13.5C50.1999 10.6 47.7999 8.20002 44.8999 8.20002H36.3999L27.7999 0.30002C27.2999 -0.0999802 26.5999 1.97589e-05 26.2999 0.30002L17.6999 8.20002H9.1999C6.2999 8.20002 3.8999 10.6 3.8999 13.5V21L2.5999 22.2H2.4999L2.3999 22.4C1.0999 23.5 0.399902 25 0.399902 26.7V54.6C0.399902 55.8 0.799902 57 1.5999 58L1.7999 58.2C2.7999 59.3 4.0999 59.9 5.4999 60H48.3999C49.8999 60 51.3999 59.3 52.3999 58.2H52.4999L52.5999 58C53.3999 57 53.8999 55.8 53.8999 54.5V26.6C53.6999 24.9 52.8999 23.2 51.5999 22.3ZM20.9999 8.20002L26.9999 2.70002L32.9999 8.20002H20.9999ZM47.7999 24.3L32.7999 39L27.6999 34.5C27.4999 34.3 27.1999 34.2 26.8999 34.2C26.5999 34.2 26.3999 34.3 26.0999 34.5L21.1999 39L6.1999 24.4V13.4C6.1999 11.8 7.4999 10.4 9.1999 10.4H44.8999C46.4999 10.4 47.8999 11.7 47.8999 13.4V24.3H47.7999ZM49.7999 57.3C49.2999 57.6 48.7999 57.7 48.1999 57.7H5.7999C5.1999 57.7 4.6999 57.6 4.1999 57.3L26.9999 36.8L49.7999 57.3ZM51.3999 54.5C51.3999 54.9 51.2999 55.2 51.1999 55.6L34.4999 40.6L50.6999 24.8C51.0999 25.3 51.3999 26 51.3999 26.7V54.5ZM2.5999 54.5V26.6C2.5999 25.9 2.7999 25.2 3.2999 24.7L19.5999 40.6L2.8999 55.6C2.5999 55.2 2.5999 54.8 2.5999 54.5Z" fill="#36343A"/>
</svg>
