<svg width="60" height="48" viewBox="0 0 60 48" fill="none" xmlns="http://www.w3.org/2000/svg">
<path d="M58.9 14H50.5V16.2H57.8V45.5H46.8V6.39999C46.8 5.79999 46.3 5.29999 45.7 5.29999H13.6C13 5.29999 12.5 5.79999 12.5 6.39999V11H1.1C0.5 11 0 11.5 0 12.2V46.9C0.1 47.5 0.6 47.9 1.1 47.9H58.8C59.4 47.9 59.9 47.4 59.9 46.8V15.2C60 14.5 59.5 14 58.9 14ZM12.4 13.2V45.6H2.3V13.2H12.4ZM44.6 7.49999V45.6H14.6V7.49999H44.6Z" fill="#36343A"/>
<path d="M27.1 15.4H20.8V17.6H27.1V15.4Z" fill="#D8A462"/>
<path d="M38.9 15.4H32.6V17.6H38.9V15.4Z" fill="#D8A462"/>
<path d="M27.1 25.4H20.8V27.6H27.1V25.4Z" fill="#D8A462"/>
<path d="M38.9 25.4H32.6V27.6H38.9V25.4Z" fill="#D8A462"/>
<path d="M27.1 34.9H20.8V37.1H27.1V34.9Z" fill="#D8A462"/>
<path d="M38.9 34.9H32.6V37.1H38.9V34.9Z" fill="#D8A462"/>
<path d="M38.9001 0H20.8V2.2H38.9001V0Z" fill="#D8A462"/>
</svg>
