<svg width="60" height="60" viewBox="0 0 60 60" fill="none" xmlns="http://www.w3.org/2000/svg">
<path d="M57.1 22C56.5 21.4 55.8 20.9 54.9 20.7L54.7 20.6L55.5 19.8C57.3 18 57.4 15 55.7 13.2C55.1 12.6 54.4 12.1 53.5 11.9L53.3 11.8L54.8 10.3C56.6 8.5 56.7 5.5 55 3.7C54.1 2.8 52.9 2.2 51.5 2.2C50.2 2.2 49.1 2.7 48.2 3.6L47.1 4.7L47 4.5C46.8 3.7 46.4 3 45.8 2.4C45 1.5 43.8 1 42.6 1C41.3 1 40.2 1.5 39.3 2.4L31.7 10C31.5 10.2 31.5 10.5 31.7 10.6L32.6 11.5C32.7 11.6 32.8 11.6 32.9 11.6C33 11.6 33.1 11.6 33.2 11.5L40.8 4C41.8 3 43.4 3 44.4 4C45.4 5 45.4 6.5 44.4 7.5L34.8 17.1C34.7 17.2 34.7 17.3 34.7 17.4C34.7 17.5 34.7 17.6 34.8 17.7L35.7 18.6C35.9 18.8 36.2 18.8 36.3 18.6L49.8 5.2C50.3 4.7 50.9 4.5 51.6 4.5C52.3 4.5 52.9 4.8 53.4 5.3C54.3 6.3 54.2 7.8 53.3 8.8L39.8 22.2C39.7 22.3 39.7 22.4 39.7 22.5C39.7 22.6 39.7 22.7 39.8 22.8L40.7 23.7C40.9 23.9 41.2 23.9 41.3 23.7L50.4 14.6C50.9 14.1 51.5 13.9 52.2 13.9C52.9 13.9 53.5 14.2 54 14.7C54.9 15.7 54.8 17.2 53.9 18.2L44.9 27.3C44.7 27.5 44.7 27.8 44.9 27.9L45.8 28.8C45.9 29 46 29 46.2 29C46.3 29 46.4 29 46.5 28.9L51.9 23.5C52.3 23 53 22.8 53.7 22.8C54.4 22.8 55 23.1 55.5 23.6C56.4 24.6 56.3 26.1 55.4 27.1L38.9 43.4L32.4 47L14.3 28.9L17.7 22.5L22.2 18C22.3 17.9 22.3 17.8 22.3 17.7L23 7.6C23 6.9 23.4 6.3 23.9 5.9C24.3 5.5 24.9 5.3 25.5 5.3H25.8C27.1 5.4 28.1 6.6 28 8L27.5 14.7C27.5 14.8 27.5 14.9 27.5 14.9L30.7 21.4C31.3 22.7 31.1 24.3 30 25.4L26.3 29C26.2 29.1 26.2 29.2 26.2 29.3C26.2 29.4 26.2 29.5 26.3 29.6L27.2 30.6C27.3 30.7 27.4 30.8 27.5 30.7C27.6 30.7 27.7 30.7 27.8 30.6L31.6 26.9C33.4 25.2 33.8 22.6 32.7 20.4L29.8 14.3L30.2 8.1C30.4 5.5 28.5 3.3 26 3C24.7 2.9 23.5 3.2 22.5 4.1C21.5 4.9 20.9 6.1 20.8 7.4L20.1 16.8L15.9 21L15.8 21.1L12.6 27.2L10.1 24.7C9.9 24.5 9.6 24.5 9.5 24.7L1.1 33C1 33.1 1 33.2 1 33.3C1 33.4 1 33.5 1.1 33.6L27.4 59.8C27.5 59.9 27.6 59.9 27.7 59.9C27.8 59.9 27.9 59.9 28 59.8L35.5 52.3C35.7 52.1 35.7 51.8 35.5 51.7L34.6 50.8C34.4 50.6 34.1 50.6 34 50.8L27.7 57L4 33.3L9.8 27.5L31.8 49.5C31.9 49.6 32.2 49.7 32.3 49.6L40.2 45.3C40.2 45.3 40.3 45.3 40.3 45.2L56.9 28.6C58.7 26.8 58.8 23.8 57.1 22Z" fill="#36343A"/>
<path d="M15.5 7C11.2 7.3 7.8 10.7 7.5 15C7.5 15.1 7.5 15.2 7.6 15.3C7.7 15.4 7.8 15.4 7.9 15.4H9.2C9.4 15.4 9.6 15.2 9.6 15C9.9 11.9 12.3 9.4 15.4 9.2C15.8 9.2 16 9 16 8.7V7.4C16 7.3 15.9 7.2 15.9 7.1C15.7 7 15.6 7 15.5 7Z" fill="#D8A462"/>
<path d="M2.7 15C3 8.1 8.6 2.5 15.5 2.2C15.8 2.2 16 2 16 1.8V0.4C16 0.3 16 0.2 15.9 0.1C15.7 0 15.6 0 15.5 0C7.4 0.3 0.8 6.9 0.5 15C0.5 15.1 0.5 15.2 0.6 15.3C0.7 15.4 0.8 15.4 0.9 15.4H2.2C2.5 15.4 2.7 15.3 2.7 15Z" fill="#D8A462"/>
<path d="M50.7 43.5C50.5 43.5 50.3 43.7 50.3 43.9C50 47 47.6 49.5 44.5 49.7C44.3 49.7 44.1 49.9 44.1 50.1V51.4C44.1 51.5 44.2 51.6 44.2 51.7C44.3 51.8 44.4 51.8 44.5 51.8C48.8 51.5 52.2 48.1 52.5 43.8C52.5 43.7 52.5 43.6 52.4 43.5C52.3 43.4 52.2 43.4 52.1 43.4H50.7V43.5Z" fill="#D8A462"/>
<path d="M59.4 43.7C59.3 43.6 59.1999 43.6 59.0999 43.6H57.7999C57.5999 43.6 57.4 43.8 57.4 44C57.1 50.9 51.4999 56.5 44.5999 56.8C44.3999 56.8 44.2 57 44.2 57.2V58.5C44.2 58.6 44.1999 58.7 44.2999 58.8C44.3999 58.9 44.4999 58.9 44.5999 58.9C52.6999 58.6 59.2999 52 59.5999 43.9C59.4999 43.9 59.5 43.8 59.4 43.7Z" fill="#D8A462"/>
</svg>
