<svg width="60" height="60" viewBox="0 0 60 60" fill="none" xmlns="http://www.w3.org/2000/svg">
<g clip-path="url(#clip0_3012_4645)">
<path d="M15 16C15 8.4 21 2.2 28.6 1.9H29.4C37.2 1.9 43.5 8.2 43.5 16V29L29 34.9L45.4 28.2V16C45.4 7.2 38.2 0 29.4 0H29C20.2 0 13 7.2 13 16V28.2L15 29V16Z" fill="#36343A"/>
<path d="M29.2 6C23.2 6 18.2 10.9 18.2 17C18.2 23 23.1 28 29.2 28C35.2 28 40.2 23.1 40.2 17C40.2 10.9 35.2 6 29.2 6ZM29.2 26C24.2 26 20.1 21.9 20.1 16.9C20.1 14.5 21 12.2 22.7 10.5C24.3 8.9 26.4999 7.9 28.7999 7.8H29.4C30.2 7.9 30.9 8.4 31.2 9C31.1 8.9 31.1 8.8 31 8.8C30.1 7.8 28.4 7.9 27.4 8.9C26.9 9.4 26.6 10.1 26.6 10.8C26.6 11.6 26.9 12.4 27.5 13C28.7 14.3 31 14.2 32.4 12.9C33.1 12.2 33.5 11.3 33.5 10.3C33.5 9.8 33.4 9.3 33.2999 8.8C36.2999 10.3 38.2 13.5 38.2 16.9C38.3 22 34.2 26 29.2 26ZM31.2999 11.4C30.9999 11.9 30.4 12.2 29.7999 12.2C29.0999 12.2 28.6 11.6 28.6 11C28.6 10.8 28.6999 10.6 28.7999 10.4C28.9999 10.2 29.2 10.2 29.4 10.2C29.7 10.2 29.7999 10.4 29.9 10.6C29.9 10.9 29.9 11.2 30.2 11.4C30.5 11.6 30.9999 11.6 31.2999 11.4Z" fill="#36343A"/>
<path d="M33.1 17.3999C32.6 17.3999 32.1 17.7999 32.1 18.3999C32.1 19.9999 30.8001 21.2999 29.2001 21.2999C27.6001 21.2999 26.3 19.9999 26.3 18.3999C26.3 17.8999 25.9 17.3999 25.3 17.3999C24.7 17.3999 24.3 17.7999 24.3 18.3999C24.3 21.0999 26.5001 23.1999 29.1 23.1999C31.8 23.1999 33.9001 20.9999 33.9001 18.3999C34.0001 17.8999 33.6 17.3999 33.1 17.3999Z" fill="#36343A"/>
<path d="M29 60H29.3C38.1 60 45.3 52.7999 45.3 44V28.2L29 34.9L15 29L13 28.2V44C13 52.7999 20.2 60 29 60ZM43.4 31V41L31.4 36L43.4 31ZM15 31.1L43.5 43.0999V44.0999C43.5 46.5999 42.8 49.0999 41.5 51.2999L15 40V31.1ZM40.3 52.7999C37.6 56.0999 33.6 58.0999 29.3 58.0999H29C21.2 58.0999 14.9 51.7999 14.9 44V42.0999L40.3 52.7999Z" fill="#D8A462"/>
</g>
<defs>
<clipPath id="clip0_3012_4645">
<rect width="60" height="60" fill="white"/>
</clipPath>
</defs>
</svg>
