<svg width="60" height="48" viewBox="0 0 60 48" fill="none" xmlns="http://www.w3.org/2000/svg">
<path d="M30 0C22 0 14.5 3.1 8.8 8.8C3.2 14.4 0 21.9 0 29.9C0 35.8 2 41.7 5.7 47C5.8 47.2 6 47.3 6.2 47.4V47.5H53.2C53.6 47.5 53.9 47.3 54.1 47C57.8 41.7 59.8 35.7 59.8 29.9C59.9 13.4 46.5 0 30 0ZM54.3 42.5C53.8 43.4 53.3 44.3 52.7 45.1L52.6 45.2H7.4L7.3 45.1C6.7 44.2 6.2 43.4 5.7 42.5L5.6 42.3L5.8 42.2C12.8 37.7 21.4 35.2 30 35.2C38.6 35.2 47.2 37.7 54.2 42.2L54.4 42.3L54.3 42.5ZM55.5 40L55.4 40.3L55.2 40.2C49.6 36.6 43 34.3 36.1 33.4H35.9C35.1 33.3 34.3 33.2 33.5 33.1H33.2C31.1 33 29 33 27 33.1C25.6 33.2 24.5 33.3 24.2 33.4H24C17.1 34.3 10.5 36.6 4.9 40.2L4.7 40.3L4.5 40C3.3 37.1 2.6 34.2 2.4 31.3V31.1H6.7C7 31.1 7.3 31 7.5 30.8C7.7 30.6 7.8 30.3 7.8 30C7.8 29.7 7.7 29.4 7.5 29.2C7.3 29 7 28.9 6.7 28.9H2.4V28.6C2.7 22.3 5.2 16.2 9.4 11.4L9.6 11.2L13.4 15C13.8 15.4 14.6 15.4 15 15C15.2 14.8 15.3 14.5 15.3 14.2C15.3 13.9 15.2 13.6 15 13.4L11.2 9.7L11.4 9.5C16 5.3 22.1 2.8 28.3 2.4H28.8V6.7C28.8 7 28.9 7.3 29.1 7.5C29.5 7.9 30.3 7.9 30.8 7.5C31 7.3 31.1 7 31.1 6.7V2.3H31.4C37.7 2.6 43.8 5.2 48.5 9.4L48.7 9.6L45 13.3C44.8 13.5 44.6 13.8 44.6 14.1C44.6 14.4 44.7 14.7 44.9 14.9C45.3 15.3 46.2 15.3 46.5 14.9L50.3 11.1L50.5 11.3C54.8 16 57.3 22.1 57.6 28.5V28.8H53.3C53 28.8 52.7 28.9 52.5 29.1C52.3 29.3 52.2 29.6 52.2 29.9C52.2 30.2 52.3 30.5 52.5 30.7C52.8 30.9 53 31 53.3 31H57.6V31.3C57.4 34.2 56.7 37.1 55.5 40Z" fill="#36343A"/>
<path d="M33 28.9L32.8 28.8L39.2 9.59998C39.3 9.19998 39.3 8.79998 39 8.49998C38.8 8.19998 38.5 8.09998 38 8.09998C37.5 8.09998 37.1 8.39997 37 8.89997L30.6 28H29.8C26.9 28 24.4 30.2 23.9 33V33.2C24.3 33.1 25.3 33 26.7 32.9H26.6H26.2L26.3 32.6C26.8 31.2 28.2 30.3 29.7 30.3C31.2 30.3 32.5 31.2 33.1 32.6L33.2 32.9C34 33 34.8 33 35.6 33.2V33C35.6 31.4 34.5 29.8 33 28.9Z" fill="#D8A462"/>
</svg>
