<svg width="60" height="60" viewBox="0 0 60 60" fill="none" xmlns="http://www.w3.org/2000/svg">
<path d="M5.29995 25.4H5.79995C5.99995 25.4 6.19995 25.3 6.29995 25.2C6.49995 25.1 6.59995 24.9 6.69995 24.6C6.69995 24.4 6.69995 24.1 6.49995 23.9C6.39995 23.7 6.09995 23.6 5.89995 23.5L1.69995 22.8H1.49995C0.999951 22.8 0.699951 23.2 0.699951 23.7C0.699951 24.1 0.999951 24.5 1.49995 24.6L5.29995 25.4Z" fill="#D8A462"/>
<path d="M29.3 5.7C29.1 5.5 29 5.3 29 5.1V0.9C29 0.4 29.3 0 29.8 0C30.2 0 30.4 0.1 30.6 0.3C30.7 0.4 30.8 0.7 30.8 0.9V5.1C30.8 5.2 30.8 5.2 30.8 5.3C30.8 5.4 30.7 5.6 30.6 5.7C30.4 5.9 30.2 6 29.9 6C29.9 6 29.6 6 29.3 5.7Z" fill="#D8A462"/>
<path d="M42.4 15.7C42.7 15.7 42.9 15.6 43.1 15.4L49.3 7.8C49.5 7.5 49.6 7.1 49.4 6.8C49.3 6.6 49.1 6.3 48.5 6.3C48.3 6.3 48.1 6.4 47.9 6.6L41.7 14.2C41.5 14.4 41.5 14.6 41.5 14.9C41.5 15.1 41.6 15.4 41.8 15.5C42 15.6 42.2 15.7 42.4 15.7Z" fill="#D8A462"/>
<path d="M16.8 15.4C17 15.6 17.2 15.7 17.4 15.7H17.5C17.7 15.7 17.9 15.6 18.1 15.5C18.3 15.3 18.4 15.1 18.4 14.9C18.4 14.7 18.3 14.4 18.2 14.2L12 6.6C11.8 6.4 11.6 6.3 11.2 6.3C10.9 6.3 10.6 6.5 10.5 6.8C10.4 7.1 10.4 7.5 10.6 7.7L16.8 15.4Z" fill="#D8A462"/>
<path d="M13.5 37.4C13.4 37 13 36.7 12.6 36.7C12.5 36.7 12.3 36.8 12.2 36.8L3.2 41C3 41.1 2.8 41.3 2.7 41.5C2.6 41.7 2.6 42 2.7 42.2C2.8 42.4 3 42.6 3.2 42.6C3.3 42.7 3.4 42.7 3.5 42.7C3.7 42.7 3.8 42.7 3.9 42.6L12.9 38.5C13.5 38.2 13.7 37.8 13.5 37.4Z" fill="#D8A462"/>
<path d="M15.9999 49.8C15.6999 49.8 15.3999 50 15.2999 50.3L13.1999 53.8C13.0999 54 13.0999 54.2 13.0999 54.5C13.1999 54.7 13.2999 54.9 13.4999 55C13.5999 55.1 13.7999 55.1 13.9999 55.1C14.2999 55.1 14.5999 54.9 14.7999 54.7L16.8999 51.2C17.0999 50.9 17.0999 50.6 16.8999 50.3C16.6999 50 16.3999 49.8 15.9999 49.8Z" fill="#D8A462"/>
<path d="M56.6999 41L47.6999 36.9C47.5999 36.8 47.3999 36.8 47.2999 36.8H47.1999C46.7999 36.8 46.4999 37.2 46.3999 37.6C46.3999 38 46.5999 38.4 46.8999 38.5L55.8999 42.6C55.9999 42.7 56.1999 42.7 56.2999 42.7C56.3999 42.7 56.4999 42.7 56.5999 42.7C56.7999 42.6 56.9999 42.4 57.0999 42.2C57.1999 42 57.1999 41.7 57.0999 41.5C57.0999 41.3 56.8999 41.1 56.6999 41Z" fill="#D8A462"/>
<path d="M58.4 22.8C58.4 22.8 58.4 22.8 54 23.5C53.8 23.5 53.5 23.7 53.4 23.8C53.2 24 53.2 24.3 53.2 24.5C53.2 24.7 53.3999 25 53.5999 25.1C53.7999 25.2 53.8999 25.3 54.0999 25.3L58.5 24.6C58.7 24.6 58.9999 24.5 59.0999 24.3C59.1999 24.1 59.2999 23.9 59.2999 23.7C59.3999 23.2 58.9 22.8 58.4 22.8Z" fill="#D8A462"/>
<path d="M44.6 50.3C44.4 50 44.1 49.9 43.8 49.9C43.5 49.9 43.2 50.1 43 50.4C42.9 50.7 42.9 51 43 51.3L45.1 54.8C45.3 55.1 45.5001 55.2 45.9001 55.2H46.3V55C46.3 55 46.4001 55 46.4001 54.9C46.6001 54.8 46.7 54.6 46.8 54.4C46.9 54.2 46.8 53.9 46.7 53.7L44.6 50.3Z" fill="#D8A462"/>
<path d="M46.4999 27.1C46.6999 26.9 46.7999 26.5 46.6999 26.2C46.5999 25.9 46.3999 25.6 45.9999 25.6L35.9999 23.6L30.6999 15C30.4999 14.7 30.1999 14.6 29.8999 14.6C29.5999 14.6 29.3999 14.8 29.1999 15L23.7999 23.7L13.8999 25.7C13.5999 25.8 13.2999 26 13.1999 26.3C13.0999 26.6 13.1999 27 13.3999 27.2L20.6999 34.6L19.3999 44.5C19.3999 44.8 19.4999 45.1 19.6999 45.3C19.8999 45.5 20.3999 45.5 20.5999 45.4L29.9999 41.4L39.2999 45.4C39.3999 45.4 39.4999 45.5 39.5999 45.5H39.9999V45.4C40.0999 45.4 40.0999 45.3 40.1999 45.3C40.4999 45.1 40.5999 44.8 40.5999 44.5L39.2999 34.5L46.4999 27.1ZM29.9999 39.5C29.8999 39.5 29.7999 39.5 29.6999 39.6L21.3999 43.1L22.5999 34.3C22.5999 34 22.4999 33.8 22.2999 33.6L15.8999 27.2L24.6999 25.4C24.8999 25.4 25.0999 25.2 25.2999 25L30.0999 17.3L34.8999 25C34.9999 25.2 35.1999 25.4 35.4999 25.4L44.1999 27.2L37.7999 33.6C37.5999 33.8 37.4999 34 37.5999 34.3L38.7999 43.1L30.5999 39.6V39.5H29.9999Z" fill="#36343A"/>
<path d="M29.8 48.5C29.3 48.5 29 48.9 29 49.4V59.1C29 59.3 29.1 59.6 29.3 59.7L29.1 60H30C30.2 60 30.5 59.9 30.7 59.7C30.8 59.6 30.9 59.4 30.9 59.3C30.9 59.2 30.9 59.2 30.9 59.1V49.4C30.9 49.2 30.8 48.9 30.7 48.8C30.4 48.6 30.2 48.5 29.8 48.5Z" fill="#D8A462"/>
</svg>
