<svg width="60" height="41" viewBox="0 0 60 41" fill="none" xmlns="http://www.w3.org/2000/svg">
<path d="M58.3001 6.2C57.0001 2.1 55.2001 0 53.1001 0C52.6001 0 52.2001 0.1 51.8001 0.3L13.8001 9.4H5.9001C2.7001 9.4 0.100098 12 0.100098 15.2V23.3C0.100098 26.4 2.5001 28.9 5.5001 29.1H14.0001L16.4001 29.7V37.5C16.4001 39 17.6001 40.2 19.1001 40.2H35.6001C36.3001 40.2 37.0001 39.9 37.5001 39.4C38.0001 38.9 38.3001 38.2 38.3001 37.5V35L52.4001 38.4H52.5001C52.6001 38.4 52.6001 38.4 52.7001 38.4C52.8001 38.4 52.9001 38.4 53.0001 38.4H53.4001C55.9001 38.1 57.4001 34.9 58.3001 32.2C59.4001 28.7 60.0001 24 60.0001 19.2C60.0001 14.4 59.4001 9.7 58.3001 6.2ZM36.5001 37.5C36.5001 38 36.1001 38.4 35.6001 38.4H19.1001C18.6001 38.4 18.2001 38 18.2001 37.5V30.2L36.5001 34.6V37.5ZM14.9001 27.5L13.0001 27.3H9.1001H5.9001C3.7001 27.3 1.9001 25.5 1.9001 23.3V15.2C1.9001 13 3.7001 11.2 5.9001 11.2H13.0001L14.9001 11L49.3001 2.8C48.7001 3.9 48.2001 5.1 47.8001 6.3C46.7001 9.8 46.1001 14.5 46.1001 19.3C46.1001 24.1 46.7001 28.8 47.8001 32.3C48.3001 33.7 48.8001 34.9 49.4001 35.9L14.9001 27.5ZM56.4001 31.9C55.4001 34.9 54.1001 36.6 53.0001 36.6C51.9001 36.6 50.6001 34.8 49.6001 31.9C48.5001 28.5 47.9001 24 47.9001 19.2C47.9001 14.4 48.5001 9.9 49.6001 6.5C50.4001 4.1 51.4001 2.5 52.4001 2L53.1001 1.8C54.2001 1.9 55.4001 3.6 56.4001 6.5C57.5001 9.9 58.1001 14.4 58.1001 19.2C58.2001 24 57.6001 28.5 56.4001 31.9Z" fill="#36343A"/>
<path d="M13 11.2V27.3L14.9 27.5V11L13 11.2Z" fill="#D8A462"/>
</svg>
