<svg width="50" height="60" viewBox="0 0 50 60" fill="none" xmlns="http://www.w3.org/2000/svg">
<path d="M35.1 18.2H34.9L32.4 18.6L32.2 18C31.8 16.7 31.1 15.5 30.3 14.5C30.1 14.2 29.9 14 29.7 13.8L29.5 13.6L31.1 11.7C31.4 11.3 31.4 10.7 31 10.3C30.6 10 30 10 29.6 10.4L28 12.4C27.7 12.2 27.4 12 27.1 11.8L27 11.7C26.9 11.7 26.9 11.6 26.8 11.6C26.7 11.5 26.6 11.5 26.6 11.5C25.5 11 24.4 10.6 23.2 10.4L22.6 10.3V7.90002C22.6 7.40002 22.2 6.90002 21.6 6.90002C21.1 6.90002 20.6 7.30002 20.6 7.90002V10.4L20 10.5C18.5 10.7 17 11.2 15.7 12L15.2 12.3L13.6 10.4C13.3 10 12.6 9.90002 12.2 10.3C12 10.5 11.9 10.7 11.8 11C11.8 11.2 11.9 11.5 12 11.7L13.6 13.6L13.2 14.1C12.2 15.3 11.4 16.6 10.9 18L10.7 18.6L8.19998 18.2H8.09998C7.59998 18.2 7.19998 18.5 7.09998 19C7.09998 19.2 7.09998 19.5 7.29998 19.7C7.39998 19.9 7.69997 20.1 7.89997 20.1L10.3 20.5V21.1C10.3 21.2 10.3 21.2 10.3 21.2C10.3 21.3 10.3 21.3 10.3 21.4C10.3 22.8 10.6 24.2 11.1 25.5L11.3 26.1L9.19998 27.3C8.99997 27.4 8.79998 27.6 8.69998 27.9C8.59997 28.1 8.69998 28.4 8.79998 28.6C8.89998 28.8 9.09998 29 9.29998 29C9.39998 29.1 9.49998 29.1 9.59998 29.1C9.79998 29.1 9.89998 29.1 10.1 29L12.3 27.7L12.7 28.2C13.6 29.4 14.8 30.4 16.2 31.1L16.8 31.4L16 34C15.9 34.2 15.9 34.5 16 34.7C16.1 34.9 16.3 35.1 16.5 35.2C16.6 35.3 16.8 35.3 16.9 35.3C17.1 35.3 17.2 35.3 17.3 35.2C17.5 35.1 17.7 34.9 17.8 34.6L18.6 32.3L19.2 32.4C20 32.6 20.7 32.6 21.5 32.6C22.3 32.6 23.1 32.5 23.8 32.4L24.4 32.3L25.2 34.6C25.3 34.8 25.5 35.1 25.7 35.2C25.8 35.2 25.9 35.3 26.1 35.3H26.2C26.3 35.3 26.4 35.3 26.5 35.2C26.7 35.1 26.9 34.9 27 34.7C27.1 34.5 27.1 34.2 27 34L26.1 31.6L26.7 31.3C28.1 30.6 29.2 29.6 30.2 28.4L30.6 27.9L32.8 29.2C33.2 29.5 33.9 29.3 34.1 28.8C34.2 28.6 34.3 28.3 34.2 28.1C34.1 27.8 34 27.6 33.8 27.5L32.4 26.7H31.5L31.9 25.7C32.4 24.3 32.7 23 32.7 21.6V21.5C32.7 21.5 32.7 21.4 32.7 21.3V20.7L35.2 20.3C35.5 20.3 35.7 20.1 35.8 19.9C36 19.7 36 19.4 36 19.2C35.9 18.5 35.6 18.2 35.1 18.2ZM28.2 28.1C26.4 29.9 24.1 30.8 21.6 30.8C19.1 30.8 16.8 29.8 15 28.1C13.2 26.3 12.3 24 12.3 21.5C12.3 19 13.3 16.7 15 14.9C16.8 13.1 19.1 12.2 21.6 12.2C23.5 12.2 25.3 12.8 26.8 13.8L27 13.9C27.4 14.2 27.8 14.6 28.2 14.9C30 16.6 30.9 19 30.9 21.5C30.9 24 29.9 26.3 28.2 28.1Z" fill="#D8A462"/>
<path d="M49.5999 27.7L43 21.1V20.8C42.7999 13.5 39 6.9 32.7999 3.2C29.4 1.1 25.5 0 21.6 0C18.4 0 15.2999 0.7 12.4 2.1C5.79995 5.2 1.29995 11.3 0.299951 18.5C-0.700049 25.7 1.99995 32.8 7.49995 37.6C9.39995 39.3 10.4 41.8 10.4 44.3V59C10.4 59.3 10.5 59.5 10.7 59.7C10.9 59.9 11.0999 60 11.4 60H35.2999C35.5 60 35.7999 59.9 36 59.7C36.2 59.5 36.2999 59.3 36.2999 59V50.5C36.2999 49.4 36.7 48.4 37.5 47.6C38.2999 46.8 39.3 46.4 40.4 46.4C42 46.4 43.6 45.8 44.7 44.6C45.9 43.4 46.5 41.9 46.5 40.3V32.2L49.7 29C49.9 28.8 50 28.6 50 28.3C49.9 28.1 49.7999 27.9 49.5999 27.7ZM44.7999 31C44.5999 31.2 44.5 31.4 44.5 31.7V40.2C44.5 41.3 44.0999 42.3 43.2999 43.1C42.5 43.9 41.5 44.3 40.4 44.3C38.8 44.3 37.1999 44.9 36.0999 46.1C34.8999 47.3 34.2999 48.8 34.2999 50.4V58H12.2999V44.3C12.4 41.2 11.1 38.2 8.69995 36.1C4.89995 32.8 2.49995 28.1 2.09995 23.1C1.69995 18 3.19995 13.1 6.39995 9.1C9.59995 5.2 14.1 2.6 19.2 2C20 2 20.8 2 21.6 2H21.7999C26.5 2 31 3.8 34.5 6.9C38.7 10.6 41.0999 15.9 41.0999 21.5C41.0999 21.8 41.2 22 41.4 22.2L47.5 28.3L44.7999 31Z" fill="#36343A"/>
</svg>
