<svg width="60" height="60" viewBox="0 0 60 60" fill="none" xmlns="http://www.w3.org/2000/svg">
<path d="M30 13.8999C21.1 13.8999 13.9 21.0999 13.9 29.9999C13.9 38.8999 21.1 46.0999 30 46.0999C38.9 46.0999 46.1 38.8999 46.1 29.9999C46.1 21.0999 38.9 13.8999 30 13.8999ZM44.1 29.9999C44.1 37.7999 37.8 44.0999 30 44.0999C22.2 44.0999 15.9 37.7999 15.9 29.9999C15.9 22.1999 22.2 15.8999 30 15.8999C37.8 15.8999 44.1 22.1999 44.1 29.9999Z" fill="#36343A"/>
<path d="M30 9C30.6 9 31 8.5 31 8V1C31 0.4 30.6 0 30 0C29.4 0 29 0.5 29 1V8C29 8.5 29.4 9 30 9Z" fill="#D8A462"/>
<path d="M13.7 15.1C13.9 15.3 14.1 15.4 14.4 15.4C14.7 15.4 14.9 15.3 15.1 15.1C15.3 14.9 15.4 14.7 15.4 14.4C15.4 14.1 15.3 13.9 15.1 13.7L10.2 8.8C9.8 8.4 9.2 8.4 8.8 8.8C8.6 9 8.5 9.2 8.5 9.5C8.5 9.8 8.6 10 8.8 10.2L13.7 15.1Z" fill="#D8A462"/>
<path d="M9 30C9 29.4 8.5 29 8 29H1C0.4 29 0 29.5 0 30C0 30.6 0.5 31 1 31H8C8.5 31 9 30.6 9 30Z" fill="#D8A462"/>
<path d="M13.7 44.9001L8.8 49.8001C8.6 50.0001 8.5 50.2001 8.5 50.5001C8.5 50.8001 8.6 51.0001 8.8 51.2001C9 51.4001 9.2 51.5001 9.5 51.5001C9.8 51.5001 10 51.4001 10.2 51.2001L15.1 46.3001C15.3 46.1001 15.4 45.9001 15.4 45.6001C15.4 45.3001 15.3 45.1001 15.1 44.9001C14.7 44.5001 14.1 44.5001 13.7 44.9001Z" fill="#D8A462"/>
<path d="M30 51C29.4 51 29 51.5 29 52V59C29 59.6 29.5 60 30 60C30.5 60 31 59.5 31 59V52C31 51.5 30.6 51 30 51Z" fill="#D8A462"/>
<path d="M46.3 44.9001C45.9 44.5001 45.3 44.5001 44.9 44.9001C44.7 45.1001 44.6 45.3001 44.6 45.6001C44.6 45.9001 44.7 46.1001 44.9 46.3001L49.8 51.2001C50 51.4001 50.2 51.5001 50.5 51.5001C50.8 51.5001 51 51.4001 51.2 51.2001C51.4 51.0001 51.5 50.8001 51.5 50.5001C51.5 50.2001 51.4 50.0001 51.2 49.8001L46.3 44.9001Z" fill="#D8A462"/>
<path d="M59 29H52C51.4 29 51 29.5 51 30C51 30.6 51.5 31 52 31H59C59.6 31 60 30.6 60 30C60 29.5 59.5 29 59 29Z" fill="#D8A462"/>
<path d="M45.6 15.4C45.9 15.4 46.1 15.3 46.3 15.1L51.2 10.2C51.4 10 51.5 9.8 51.5 9.5C51.5 9.2 51.4 9 51.2 8.8C50.8 8.4 50.2 8.4 49.8 8.8L44.9 13.7C44.7 13.9 44.6 14.1 44.6 14.4C44.6 14.7 44.7 14.9 44.9 15.1C45.1 15.3 45.3 15.4 45.6 15.4Z" fill="#D8A462"/>
</svg>
