<svg width="48" height="60" viewBox="0 0 48 60" fill="none" xmlns="http://www.w3.org/2000/svg">
<path d="M45.4 32.0001C44.4 31.2001 43.2 30.8001 41.7999 30.9001C39.5 31.2001 37.7 33.2001 37.7 35.6001C37.7 40.5001 34.3999 44.8001 29.5999 46.8001C30.4999 45.6001 31 44.1001 31 42.5001V39.7001C31 37.2001 29.6 34.9001 27.4 33.7001C25.3 32.5001 22.6 32.5001 20.4 33.7001C18.2 34.9001 16.9 37.3001 16.7999 39.8001V42.6001C16.7999 44.2001 17.3 45.7001 18.2 46.9001C13.3 45.0001 10.1 40.6001 9.99995 35.8001V35.6001C9.99995 34.3001 9.49995 33.0001 8.49995 32.2001C7.59995 31.4001 6.49995 31.0001 5.39995 31.0001H4.99995C2.59995 31.2001 0.699951 33.4001 0.699951 35.9001C0.799951 42.6001 4.09995 48.8001 9.89995 52.9001C10.2 53.1001 10.6 53.4001 10.8 53.8001C11.1 54.1001 11.9 55.3001 11.9 56.4001V59.0001C11.9 59.3001 12 59.5001 12.2 59.7001C12.4 59.9001 12.6 59.9001 12.8 59.9001C13.1 59.9001 13.3 59.8001 13.5 59.6001C13.6 59.4001 13.7 59.2001 13.7 59.0001V56.3001C13.7 55.2001 13.2 53.9001 12.3 52.6001C11.9 52.1001 11.5 51.7001 11 51.3001C5.69995 47.6001 2.69995 41.9001 2.59995 35.8001C2.59995 34.2001 3.69995 32.9001 5.09995 32.8001H5.39995C6.09995 32.8001 6.79995 33.1001 7.29995 33.5001C7.89995 34.0001 8.19995 34.8001 8.19995 35.6001C8.19995 43.4001 15.2 49.8001 23.9 49.8001C32.5 49.8001 39.5 43.5001 39.5999 35.7001C39.5999 34.2001 40.6999 33.0001 42.0999 32.8001C42.1999 32.8001 42.3 32.8001 42.4 32.8001C43.1 32.8001 43.7 33.1001 44.2999 33.5001C44.8999 34.0001 45.2999 34.8001 45.2999 35.6001C45.2999 41.9001 42.0999 47.8001 36.5999 51.6001C35.3999 52.4001 34.6 53.5001 34.2 54.8001C34.1 55.3001 34 55.7001 34 56.2001V59.1001C34 59.6001 34.4 60.0001 34.9 60.0001C35.4 60.0001 35.7999 59.6001 35.7999 59.1001V56.2001C35.7999 55.9001 35.8 55.6001 35.9 55.3001C36.2 54.2001 37 53.5001 37.5 53.1001C43.5 49.0001 47 42.5001 47 35.6001C47.0999 34.3001 46.5 33.0001 45.4 32.0001ZM18.7 42.6001V39.8001C18.7 37.9001 19.6999 36.2001 21.2999 35.3001C22.0999 34.8001 23 34.6001 23.9 34.6001C24.8 34.6001 25.7 34.8001 26.5 35.3001C28.1 36.2001 29.0999 38.0001 29.0999 39.8001V42.6001C29.0999 44.5001 28.1 46.2001 26.5 47.1001C25 48.0001 23 48.0001 21.4 47.1001C19.7 46.2001 18.7 44.4001 18.7 42.6001Z" fill="#36343A"/>
<path d="M28.2999 10C26.4999 11.7 25.5999 14.1 25.5999 16.6C25.5999 19.1 26.5999 21.4 28.2999 23.2C30.0999 25 32.3999 25.9 34.8999 25.9C37.3999 25.9 39.6999 24.9 41.4999 23.2C43.2999 21.5 44.1999 19.1 44.1999 16.6C44.1999 14.1 43.1999 11.8 41.4999 10C39.7999 8.20005 37.3999 7.30005 34.8999 7.30005C32.3999 7.30005 30.0999 8.20005 28.2999 10ZM34.8999 9.10005C36.8999 9.10005 38.6999 9.90005 40.1999 11.3C41.5999 12.7 42.3999 14.6 42.3999 16.6C42.3999 18.6 41.5999 20.4 40.1999 21.9C38.7999 23.3 36.8999 24.1 34.9999 24.1C32.9999 24.1 31.1999 23.3 29.7999 21.9C28.3999 20.5 27.5999 18.6 27.5999 16.6C27.5999 14.6 28.3999 12.8 29.7999 11.3C31.1999 9.90005 32.9999 9.20005 34.8999 9.10005Z" fill="#D8A462"/>
<path d="M34.8999 28.7999C38.1999 28.7999 41.2999 27.5 43.5999 25.2C45.8999 22.9 47.1999 19.8 47.1999 16.5C47.1999 13.2 45.8999 10.1 43.5999 7.79995C41.2999 5.49995 38.1999 4.19995 34.8999 4.19995C31.5999 4.19995 28.4999 5.49995 26.1999 7.79995C23.8999 10.1 22.5999 13.2 22.5999 16.5C22.5999 19.8 23.8999 22.9 26.1999 25.2C28.4999 27.5 31.5999 28.7999 34.8999 28.7999ZM42.2999 9.19995C44.2999 11.2 45.3999 13.8 45.3999 16.6C45.3999 19.4 44.2999 22 42.2999 24C40.2999 26 37.6999 27.1 34.8999 27.1C32.0999 27.1 29.4999 26 27.4999 24C25.4999 22 24.3999 19.4 24.3999 16.6C24.3999 13.8 25.4999 11.2 27.4999 9.19995C29.4999 7.19995 32.0999 6.09995 34.8999 6.09995H35.0999C37.7999 6.19995 40.2999 7.19995 42.2999 9.19995Z" fill="#D8A462"/>
<path d="M11 30H11.3C13 30 14.6 29.3 15.9 28.1C17.1 26.9 17.8 25.2 17.8 23.5C17.8 21.8 17.1 20.1 15.9 18.9C14.7 17.7 13 17 11.3 17C9.60005 17 8.00005 17.7 6.70005 18.9C5.40005 20.1 4.80005 21.7 4.80005 23.5C4.80005 25.3 5.50005 26.8 6.70005 28.1C7.90005 29.3 9.40005 29.9 11 30ZM11.4 18.9C12.6 18.9 13.8 19.4 14.7 20.2C15.6 21.1 16 22.2 16 23.5C16 24.7 15.5 25.9 14.7 26.8C13 28.5 9.90005 28.5 8.20005 26.8C7.30005 25.9 6.90005 24.8 6.90005 23.5C6.90005 22.3 7.40005 21.1 8.20005 20.2C9.00005 19.4 10.1 18.9 11.4 18.9Z" fill="#D8A462"/>
<path d="M17.7001 9.1C19.0001 9.1 20.1 8.6 21 7.8C21.9 6.9 22.4 5.8 22.4 4.6C22.4 3.4 21.9001 2.2 21.1 1.4C19.4001 -0.3 16.4 -0.3 14.6 1.4C13.8 2.2 13.3 3.4 13.3 4.6C13.3 5.8 13.8 7 14.6 7.8C15.4 8.6 16.5001 9.1 17.7001 9.1ZM15.9 2.6C16.4 2.1 17.1 1.8 17.8 1.8C18.5 1.8 19.2001 2.1 19.7001 2.6C20.2001 3.1 20.5 3.8 20.5 4.5C20.5 5.2 20.2001 5.9 19.7001 6.4C18.7001 7.4 16.9 7.4 15.9 6.4C15.4 5.9 15.1 5.2 15.1 4.5C15.1 3.8 15.4 3.2 15.9 2.6Z" fill="#D8A462"/>
<path d="M33.9999 10.4V10.8C33.0999 11.1 32.3999 11.7 32.0999 12.6C31.6999 13.6 31.7999 14.6 32.3999 15.4C32.9999 16.3 33.8999 16.8 34.8999 16.8C35.3999 16.8 35.7999 17 36.1999 17.3C36.4999 17.6 36.6999 18.1 36.6999 18.6C36.6999 19.1 36.4999 19.5 36.1999 19.9C35.4999 20.6 34.3999 20.6 33.6999 19.9C33.3999 19.6 33.1999 19.1 33.1999 18.6C33.1999 18.1 32.7999 17.7 32.2999 17.7C31.7999 17.7 31.3999 18.1 31.3999 18.6C31.3999 19.4 31.6999 20.3 32.1999 20.9C32.6999 21.5 33.2999 21.9 34.0999 22.1V22.4C34.0999 22.7 34.1999 23 34.3999 23.2C34.5999 23.4 34.7999 23.5 35.0999 23.5C35.3999 23.5 35.5999 23.4 35.7999 23.2C35.9999 23 36.0999 22.8 36.0999 22.5V22C37.1999 21.7 38.0999 21 38.4999 19.9C38.9999 18.8 38.8999 17.5 38.1999 16.5C37.4999 15.5 36.3999 14.9 35.1999 14.9C34.6999 14.9 34.2999 14.6 34.0999 14.2C33.8999 13.7 33.9999 13.2 34.3999 12.9C34.7999 12.5 35.2999 12.5 35.6999 12.6C36.1999 12.8 36.3999 13.2 36.3999 13.7C36.3999 14.2 36.7999 14.6 37.2999 14.6C37.7999 14.6 38.1999 14.2 38.1999 13.7C38.1999 13 37.9999 12.3 37.4999 11.8C37.0999 11.3 36.5999 11 35.9999 10.8V10.5C35.9999 10.2 35.8999 10 35.6999 9.8C35.3999 9.4 34.7999 9.4 34.2999 9.8C33.9999 9.9 33.9999 10.2 33.9999 10.4Z" fill="#D8A462"/>
</svg>
