<svg width="60" height="60" viewBox="0 0 60 60" fill="none" xmlns="http://www.w3.org/2000/svg">
<g clip-path="url(#clip0_802_58570)">
<path d="M30.8517 42.36C21.6317 42.36 12.3517 37.75 3.24167 28.64C2.89167 28.29 2.86167 27.74 3.16167 27.36C3.56167 26.85 13.0317 14.94 27.8017 14.05C37.6217 13.46 47.3517 17.9 56.7217 27.28C57.0617 27.62 57.1017 28.15 56.8217 28.53C56.4517 29.04 47.5517 41.13 33.0617 42.28C32.3317 42.34 31.5917 42.37 30.8617 42.37L30.8517 42.36ZM5.24167 27.9C14.4517 36.89 23.7517 41.07 32.9017 40.34C44.6417 39.4 52.6917 30.53 54.7417 28.03C45.9717 19.48 36.9717 15.43 27.9417 15.97C15.9817 16.69 7.45167 25.41 5.25167 27.89L5.24167 27.9Z" fill="#35343A"/>
<path d="M29.9816 13.99C22.1616 13.99 15.8016 20.36 15.8016 28.18C15.8016 30.2 16.2216 32.12 17.0016 33.86C17.9216 34.53 19.1816 35.37 20.7116 36.16C18.8616 34.02 17.7316 31.22 17.7316 28.18C17.7316 21.42 23.2316 15.93 29.9816 15.93C36.7316 15.93 42.2316 21.42 42.2316 28.18C42.2316 31.85 40.6116 35.14 38.0416 37.38C39.5516 36.73 41.0716 35.84 42.6016 34.64C43.6016 32.7 44.1616 30.51 44.1616 28.18C44.1616 20.36 37.8016 13.99 29.9816 13.99Z" fill="#35343A"/>
<path d="M29.9817 11.34C29.4517 11.34 29.0117 10.91 29.0117 10.37V0.97C29.0117 0.44 29.4417 0 29.9817 0C30.5217 0 30.9517 0.43 30.9517 0.97V10.37C30.9517 10.9 30.5217 11.34 29.9817 11.34Z" fill="#D8A562"/>
<path d="M29.9817 56.98C29.4517 56.98 29.0117 56.55 29.0117 56.01V46.61C29.0117 46.08 29.4417 45.64 29.9817 45.64C30.5217 45.64 30.9517 46.07 30.9517 46.61V56.01C30.9517 56.54 30.5217 56.98 29.9817 56.98Z" fill="#D8A562"/>
<path d="M51.0916 17.18C50.7716 17.18 50.4516 17.02 50.2716 16.73C49.9816 16.28 50.1216 15.68 50.5716 15.39L58.5216 10.37C58.9716 10.08 59.5716 10.22 59.8616 10.67C60.1516 11.12 60.0116 11.72 59.5616 12.01L51.6116 17.03C51.4516 17.13 51.2716 17.18 51.0916 17.18Z" fill="#D8A562"/>
<path d="M1.02163 46.58C0.701634 46.58 0.381634 46.42 0.201634 46.13C-0.0883657 45.68 0.0516343 45.08 0.501634 44.79L8.45163 39.77C8.90163 39.48 9.50163 39.62 9.79163 40.07C10.0816 40.52 9.94163 41.12 9.49163 41.41L1.54163 46.43C1.38163 46.53 1.20163 46.58 1.02163 46.58Z" fill="#D8A562"/>
<path d="M8.91165 17.27C8.73165 17.27 8.55165 17.22 8.39165 17.12L0.451646 12.1C0.00164646 11.81 -0.138354 11.22 0.151646 10.76C0.441646 10.31 1.03165 10.17 1.49165 10.46L9.44165 15.48C9.89165 15.77 10.0316 16.36 9.74165 16.82C9.56165 17.11 9.24165 17.27 8.92165 17.27H8.91165Z" fill="#D8A562"/>
<path d="M58.9816 46.67C58.8016 46.67 58.6216 46.62 58.4616 46.52L50.5116 41.5C50.0616 41.21 49.9216 40.62 50.2116 40.16C50.4916 39.71 51.0916 39.57 51.5516 39.86L59.5016 44.88C59.9516 45.17 60.0916 45.76 59.8016 46.22C59.6216 46.51 59.3016 46.67 58.9816 46.67Z" fill="#D8A562"/>
<path d="M20.0416 12.64C19.6816 12.64 19.3416 12.44 19.1716 12.11L14.9516 3.71001C14.7116 3.23001 14.9016 2.65001 15.3816 2.41001C15.8616 2.17001 16.4416 2.36001 16.6816 2.84001L20.9016 11.24C21.1416 11.72 20.9516 12.3 20.4716 12.54C20.3316 12.61 20.1816 12.64 20.0416 12.64Z" fill="#D8A562"/>
<path d="M44.0316 54.05C43.6716 54.05 43.3316 53.85 43.1616 53.52L38.9416 45.12C38.7016 44.64 38.8916 44.06 39.3716 43.82C39.8516 43.58 40.4316 43.77 40.6716 44.25L44.8916 52.65C45.1316 53.13 44.9416 53.71 44.4616 53.95C44.3216 54.02 44.1716 54.05 44.0316 54.05Z" fill="#D8A562"/>
<path d="M39.8616 12.64C39.7116 12.64 39.5716 12.61 39.4316 12.54C38.9516 12.3 38.7616 11.72 39.0016 11.24L43.2216 2.84001C43.4616 2.36001 44.0416 2.17001 44.5216 2.41001C45.0016 2.65001 45.1916 3.23001 44.9516 3.71001L40.7316 12.11C40.5616 12.45 40.2216 12.64 39.8616 12.64Z" fill="#D8A562"/>
<path d="M15.8716 54.05C15.7216 54.05 15.5816 54.02 15.4416 53.95C14.9616 53.71 14.7716 53.13 15.0116 52.65L19.2316 44.25C19.4716 43.77 20.0516 43.58 20.5316 43.82C21.0116 44.06 21.2016 44.64 20.9616 45.12L16.7416 53.52C16.5716 53.86 16.2316 54.05 15.8716 54.05Z" fill="#D8A562"/>
<path d="M38.3917 30.21C37.8617 30.21 37.4216 29.78 37.4216 29.24C37.4216 20.39 29.3517 19.91 29.0017 19.9C28.4717 19.87 28.0517 19.42 28.0817 18.89C28.1017 18.36 28.5617 17.94 29.0917 17.97C29.1917 17.97 39.3617 18.53 39.3617 29.25C39.3617 29.78 38.9317 30.22 38.3917 30.22V30.21Z" fill="#D8A562"/>
</g>
<defs>
<clipPath id="clip0_802_58570">
<rect width="60" height="60" fill="white"/>
</clipPath>
</defs>
</svg>
