<svg width="60" height="58" viewBox="0 0 60 58" fill="none" xmlns="http://www.w3.org/2000/svg">
<path d="M9 35.9C8.4 35.9 7.9 36 7.3 36.1C6.6 36.2 5.8 36.4 5.2 36.8C2.1 38.2 0 41.3 0 45C0 50 4 54 9.1 54C11.1 54 13 53.3 14.5 52.2C15.1 51.8 15.6 51.2 16.1 50.7C17.4 49.1 18.1 47.1 18.1 45C18.1 40 14 35.9 9 35.9ZM14.5 49.4C14 50 13.5 50.5 12.8 50.9C11.7 51.6 10.4 52 9 52C5.1 52 2 48.9 2 45C2 42.3 3.5 40 5.7 38.8C6.3 38.4 7 38.2 7.7 38C8.2 38 8.6 37.9 9 37.9C12.9 37.9 16 41 16 44.9C16 46.6 15.5 48.2 14.5 49.4Z" fill="#D8A462"/>
<path d="M54.7001 36.8C54.0001 36.5 53.3 36.2 52.6 36.1C52.1 36 51.5001 35.9 50.9001 35.9C45.9001 35.9 41.8 39.9 41.8 45C41.8 47.2 42.6 49.2 43.8 50.7C44.3 51.3 44.8001 51.8 45.4001 52.2C46.9001 53.3 48.8 54 50.8 54C55.8 54 59.8 50 59.8 45C60 41.3 57.8001 38.2 54.7001 36.8ZM50.9001 52C49.5001 52 48.2 51.6 47.1 50.9C46.5 50.5 45.9001 50 45.4001 49.4C44.4001 48.2 43.8 46.6 43.8 45C43.8 41.1 46.9 38 50.8 38C51.2 38 51.7 38 52.1 38.1C52.8 38.2 53.5001 38.5 54.2001 38.8C56.5001 40 58 42.3 58 45C58 48.8 54.8001 52 50.9001 52Z" fill="#D8A462"/>
<path d="M29.9999 0C24.9999 0 20.8999 4 20.8999 9.1C20.8999 9.9 20.9999 10.6 21.1999 11.4C22.1999 15.3 25.6999 18.2 29.9999 18.2C34.1999 18.2 37.6999 15.3 38.6999 11.4C38.8999 10.7 38.9999 9.9 38.9999 9.1C38.9999 4 34.9999 0 29.9999 0ZM29.9999 16.1C26.5999 16.1 23.8999 13.8 23.0999 10.7C22.9999 10.1 22.9999 9.6 22.9999 9.1C22.9999 8.9 22.9999 8.6 22.9999 8.4C23.2999 4.8 26.2999 2 29.9999 2C33.5999 2 36.5999 4.8 36.9999 8.4C36.9999 8.6 36.9999 8.9 36.9999 9.1C36.9999 9.6 36.8999 10.2 36.7999 10.7C36.0999 13.7 33.2999 16.1 29.9999 16.1Z" fill="#D8A462"/>
<path d="M38.9999 9.1C38.9999 9.9 38.8999 10.6 38.6999 11.4C46.9999 14.8 52.8999 23 52.8999 32.6C52.8999 33.8 52.7999 35 52.5999 36.2C53.2999 36.3 54.0999 36.5 54.6999 36.9C54.8999 35.5 55.0999 34.1 55.0999 32.7C55.0999 21.8 48.3999 12.7 38.9999 9.1ZM43.8999 50.7C39.9999 53.7 35.1999 55.4 29.9999 55.4C24.7999 55.4 19.8999 53.6 15.9999 50.6C15.4999 51.2 14.9999 51.7 14.3999 52.1C18.6999 55.5 24.0999 57.5 29.9999 57.5C35.8999 57.5 41.2999 55.5 45.5999 52.1C44.9999 51.8 44.3999 51.3 43.8999 50.7ZM7.0999 32.5C7.0999 22.9 12.9999 14.7 21.2999 11.3C21.0999 10.6 20.9999 9.8 20.9999 9C11.4999 12.7 4.8999 21.8 4.8999 32.5C4.8999 33.9 4.9999 35.4 5.2999 36.7C5.9999 36.4 6.6999 36.1 7.3999 36C7.0999 34.9 7.0999 33.7 7.0999 32.5Z" fill="#36343A"/>
</svg>
